Foldit-Medium.ufo
<glyph name="exclam.color0" format="2">
  <advance width="600"/>
  <unicode hex="0021"/>
  <outline>
    <contour>
      <point x="49" y="189" type="line"/>
      <point x="167" y="189" type="line"/>
      <point x="167" y="720" type="line"/>
      <point x="166" y="720" type="line"/>
      <point x="49" y="655" type="line"/>
    </contour>
  </outline>
</glyph>
<glyph name="exclam" format="2">
  <advance width="220"/>
  <unicode hex="0021"/>
  <outline>
    <contour>
      <point x="49" y="189" type="line"/>
      <point x="167" y="189" type="line"/>
      <point x="167" y="720" type="line"/>
      <point x="166" y="720" type="line"/>
      <point x="49" y="655" type="line"/>
    </contour>
    <contour>
      <point x="44" y="0" type="line"/>
      <point x="176" y="0" type="line"/>
      <point x="176" y="114" type="line"/>
      <point x="44" y="114" type="line"/>
    </contour>
  </outline>
</glyph>
<glyph name="quotedbl.color1" format="2">
  <advance width="600"/>
  <unicode hex="0022"/>
  <outline>
    <contour>
      <point x="52" y="489" type="line"/>
      <point x="52" y="489" type="line"/>
      <point x="127" y="489" type="line"/>
      <point x="176" y="629" type="line"/>
      <point x="77" y="629" type="line"/>
    </contour>
  </outline>
</glyph>
<glyph name="quotedbl" format="2">
  <advance width="362.5"/>
  <unicode hex="0022"/>
  <outline>
    <contour>
      <point x="34" y="629" type="line"/>
      <point x="176" y="629" type="line"/>
      <point x="111" y="749" type="line"/>
      <point x="34" y="749" type="line"/>
    </contour>
    <contour>
      <point x="52" y="489" type="line"/>
      <point x="52" y="489" type="line"/>
      <point x="127" y="489" type="line"/>
      <point x="176" y="629" type="line"/>
      <point x="77" y="629" type="line"/>
    </contour>
    <contour>
      <point x="187" y="629" type="line"/>
      <point x="329" y="629" type="line"/>
      <point x="264" y="749" type="line"/>
      <point x="187" y="749" type="line"/>
    </contour>
    <contour>
      <point x="205" y="489" type="line"/>
      <point x="205" y="489" type="line"/>
      <point x="280" y="489" type="line"/>
      <point x="329" y="629" type="line"/>
      <point x="230" y="629" type="line"/>
    </contour>
  </outline>
</glyph>
<glyph name="numbersign.color0" format="2">
  <advance width="600"/>
  <unicode hex="0023"/>
  <outline>
    <contour>
      <point x="264" y="0" type="line"/>
      <point x="377" y="0" type="line"/>
      <point x="567" y="714" type="line"/>
      <point x="567" y="715" type="line"/>
      <point x="454" y="715" type="line"/>
      <point x="264" y="1" type="line"/>
    </contour>
  </outline>
</glyph>
<glyph name="numbersign.color1" format="2">
  <advance width="600"/>
  <unicode hex="0023"/>
  <outline>
    <contour>
      <point x="17" y="166" type="line"/>
      <point x="512" y="166" type="line"/>
      <point x="548" y="270" type="line"/>
      <point x="548" y="271" type="line"/>
      <point x="53" y="271" type="line"/>
      <point x="17" y="167" type="line"/>
    </contour>
  </outline>
</glyph>
<glyph name="numbersign.color2" format="2">
  <advance width="600"/>
  <unicode hex="0023"/>
  <outline>
    <contour>
      <point x="64" y="0" type="line"/>
      <point x="178" y="0" type="line"/>
      <point x="367" y="714" type="line"/>
      <point x="367" y="715" type="line"/>
      <point x="253" y="715" type="line"/>
      <point x="64" y="1" type="line"/>
    </contour>
  </outline>
</glyph>
<glyph name="numbersign.color3" format="2">
  <advance width="600"/>
  <unicode hex="0023"/>
  <outline>
    <contour>
      <point x="83" y="462" type="line"/>
      <point x="578" y="462" type="line"/>
      <point x="615" y="564" type="line"/>
      <point x="615" y="565" type="line"/>
      <point x="120" y="565" type="line"/>
      <point x="83" y="463" type="line"/>
    </contour>
  </outline>
</glyph>
<glyph name="numbersign" format="2">
  <advance width="635.5"/>
  <unicode hex="0023"/>
  <outline>
    <contour>
      <point x="264" y="0" type="line"/>
      <point x="377" y="0" type="line"/>
      <point x="567" y="714" type="line"/>
      <point x="567" y="715" type="line"/>
      <point x="454" y="715" type="line"/>
      <point x="264" y="1" type="line"/>
    </contour>
    <contour>
      <point x="17" y="166" type="line"/>
      <point x="512" y="166" type="line"/>
      <point x="548" y="270" type="line"/>
      <point x="548" y="271" type="line"/>
      <point x="53" y="271" type="line"/>
      <point x="17" y="167" type="line"/>
    </contour>
    <contour>
      <point x="64" y="0" type="line"/>
      <point x="178" y="0" type="line"/>
      <point x="367" y="714" type="line"/>
      <point x="367" y="715" type="line"/>
      <point x="253" y="715" type="line"/>
      <point x="64" y="1" type="line"/>
    </contour>
    <contour>
      <point x="83" y="462" type="line"/>
      <point x="578" y="462" type="line"/>
      <point x="615" y="564" type="line"/>
      <point x="615" y="565" type="line"/>
      <point x="120" y="565" type="line"/>
      <point x="83" y="463" type="line"/>
    </contour>
  </outline>
</glyph>
<glyph name="dollar.color0" format="2">
  <advance width="600"/>
  <unicode hex="0024"/>
  <outline>
    <contour>
      <point x="158" y="601" type="line"/>
      <point x="497" y="601" type="line"/>
      <point x="497" y="602" type="line"/>
      <point x="384" y="715" type="line"/>
      <point x="158" y="715" type="line"/>
    </contour>
  </outline>
</glyph>
<glyph name="dollar.color2" format="2">
  <advance width="600"/>
  <unicode hex="0024"/>
  <outline>
    <contour>
      <point x="210" y="-51" type="line"/>
      <point x="211" y="-51" type="line"/>
      <point x="329" y="-28" type="line"/>
      <point x="327" y="771" type="line"/>
      <point x="325" y="771" type="line"/>
      <point x="209" y="748" type="line"/>
    </contour>
  </outline>
</glyph>
<glyph name="dollar.color3" format="2">
  <advance width="600"/>
  <unicode hex="0024"/>
  <outline>
    <contour>
      <point x="151" y="308" type="line"/>
      <point x="377" y="308" type="line"/>
      <point x="377" y="422" type="line"/>
      <point x="39" y="422" type="line"/>
      <point x="39" y="421" type="line"/>
    </contour>
  </outline>
</glyph>
<glyph name="dollar.color4" format="2">
  <advance width="600"/>
  <unicode hex="0024"/>
  <outline>
    <contour>
      <point x="39" y="422" type="line"/>
      <point x="158" y="422" type="line"/>
      <point x="158" y="715" type="line"/>
      <point x="157" y="715" type="line"/>
      <point x="39" y="600" type="line"/>
    </contour>
  </outline>
</glyph>
<glyph name="dollar.color5" format="2">
  <advance width="600"/>
  <unicode hex="0024"/>
  <outline>
    <contour>
      <point x="377" y="0" type="line"/>
      <point x="378" y="0" type="line"/>
      <point x="497" y="108" type="line"/>
      <point x="497" y="311" type="line"/>
      <point x="378" y="422" type="line"/>
      <point x="377" y="422" type="line"/>
    </contour>
  </outline>
</glyph>
<glyph name="dollar" format="2">
  <advance width="535"/>
  <unicode hex="0024"/>
  <outline>
    <contour>
      <point x="158" y="601" type="line"/>
      <point x="497" y="601" type="line"/>
      <point x="497" y="602" type="line"/>
      <point x="384" y="715" type="line"/>
      <point x="158" y="715" type="line"/>
    </contour>
    <contour>
      <point x="151" y="0" type="line"/>
      <point x="377" y="0" type="line"/>
      <point x="377" y="114" type="line"/>
      <point x="39" y="114" type="line"/>
      <point x="39" y="113" type="line"/>
    </contour>
    <contour>
      <point x="210" y="-51" type="line"/>
      <point x="211" y="-51" type="line"/>
      <point x="329" y="-28" type="line"/>
      <point x="327" y="771" type="line"/>
      <point x="325" y="771" type="line"/>
      <point x="209" y="748" type="line"/>
    </contour>
    <contour>
      <point x="151" y="308" type="line"/>
      <point x="377" y="308" type="line"/>
      <point x="377" y="422" type="line"/>
      <point x="39" y="422" type="line"/>
      <point x="39" y="421" type="line"/>
    </contour>
    <contour>
      <point x="39" y="422" type="line"/>
      <point x="158" y="422" type="line"/>
      <point x="158" y="715" type="line"/>
      <point x="157" y="715" type="line"/>
      <point x="39" y="600" type="line"/>
    </contour>
    <contour>
      <point x="377" y="0" type="line"/>
      <point x="378" y="0" type="line"/>
      <point x="497" y="108" type="line"/>
      <point x="497" y="311" type="line"/>
      <point x="378" y="422" type="line"/>
      <point x="377" y="422" type="line"/>
    </contour>
  </outline>
</glyph>
<glyph name="percent.color0" format="2">
  <advance width="600"/>
  <unicode hex="0025"/>
  <outline>
    <contour>
      <point x="256" y="0" type="line"/>
      <point x="384" y="0" type="line"/>
      <point x="803" y="714" type="line"/>
      <point x="803" y="715" type="line"/>
      <point x="675" y="715" type="line"/>
      <point x="256" y="1" type="line"/>
    </contour>
  </outline>
</glyph>
<glyph name="percent.color1" format="2">
  <advance width="600"/>
  <unicode hex="0025"/>
  <outline>
    <contour>
      <point x="104" y="330" type="line"/>
      <point x="318" y="330" type="line"/>
      <point x="318" y="444" type="line"/>
      <point x="39" y="444" type="line"/>
      <point x="39" y="443" type="line"/>
    </contour>
  </outline>
</glyph>
<glyph name="percent.color2" format="2">
  <advance width="600"/>
  <unicode hex="0025"/>
  <outline>
    <contour>
      <point x="39" y="444" type="line"/>
      <point x="158" y="444" type="line"/>
      <point x="158" y="695" type="line"/>
      <point x="157" y="695" type="line"/>
      <point x="39" y="630" type="line"/>
    </contour>
  </outline>
</glyph>
<glyph name="percent.color3" format="2">
  <advance width="600"/>
  <unicode hex="0025"/>
  <outline>
    <contour>
      <point x="318" y="330" type="line"/>
      <point x="319" y="330" type="line"/>
      <point x="436" y="395" type="line"/>
      <point x="436" y="581" type="line"/>
      <point x="318" y="581" type="line"/>
    </contour>
  </outline>
</glyph>
<glyph name="percent.color4" format="2">
  <advance width="600"/>
  <unicode hex="0025"/>
  <outline>
    <contour>
      <point x="158" y="581" type="line"/>
      <point x="436" y="581" type="line"/>
      <point x="436" y="582" type="line"/>
      <point x="371" y="695" type="line"/>
      <point x="158" y="695" type="line"/>
    </contour>
  </outline>
</glyph>
<glyph name="percent.color8" format="2">
  <advance width="600"/>
  <unicode hex="0025"/>
  <outline>
    <contour>
      <point x="730" y="261" type="line"/>
      <point x="1009" y="261" type="line"/>
      <point x="1009" y="262" type="line"/>
      <point x="944" y="375" type="line"/>
      <point x="730" y="375" type="line"/>
    </contour>
  </outline>
</glyph>
<glyph name="percent" format="2">
  <advance width="1047.5"/>
  <unicode hex="0025"/>
  <outline>
    <contour>
      <point x="256" y="0" type="line"/>
      <point x="384" y="0" type="line"/>
      <point x="803" y="714" type="line"/>
      <point x="803" y="715" type="line"/>
      <point x="675" y="715" type="line"/>
      <point x="256" y="1" type="line"/>
    </contour>
    <contour>
      <point x="104" y="330" type="line"/>
      <point x="318" y="330" type="line"/>
      <point x="318" y="444" type="line"/>
      <point x="39" y="444" type="line"/>
      <point x="39" y="443" type="line"/>
    </contour>
    <contour>
      <point x="39" y="444" type="line"/>
      <point x="158" y="444" type="line"/>
      <point x="158" y="695" type="line"/>
      <point x="157" y="695" type="line"/>
      <point x="39" y="630" type="line"/>
    </contour>
    <contour>
      <point x="318" y="330" type="line"/>
      <point x="319" y="330" type="line"/>
      <point x="436" y="395" type="line"/>
      <point x="436" y="581" type="line"/>
      <point x="318" y="581" type="line"/>
    </contour>
    <contour>
      <point x="158" y="581" type="line"/>
      <point x="436" y="581" type="line"/>
      <point x="436" y="582" type="line"/>
      <point x="371" y="695" type="line"/>
      <point x="158" y="695" type="line"/>
    </contour>
    <contour>
      <point x="677" y="11" type="line"/>
      <point x="890" y="11" type="line"/>
      <point x="890" y="125" type="line"/>
      <point x="612" y="125" type="line"/>
      <point x="612" y="124" type="line"/>
    </contour>
    <contour>
      <point x="612" y="125" type="line"/>
      <point x="730" y="125" type="line"/>
      <point x="730" y="375" type="line"/>
      <point x="729" y="375" type="line"/>
      <point x="612" y="310" type="line"/>
    </contour>
    <contour>
      <point x="890" y="11" type="line"/>
      <point x="891" y="11" type="line"/>
      <point x="1009" y="76" type="line"/>
      <point x="1009" y="261" type="line"/>
      <point x="890" y="261" type="line"/>
    </contour>
    <contour>
      <point x="730" y="261" type="line"/>
      <point x="1009" y="261" type="line"/>
      <point x="1009" y="262" type="line"/>
      <point x="944" y="375" type="line"/>
      <point x="730" y="375" type="line"/>
    </contour>
  </outline>
</glyph>
<glyph name="ampersand.color1" format="2">
  <advance width="600"/>
  <unicode hex="0026"/>
  <outline>
    <contour>
      <point x="142" y="422" type="line"/>
      <point x="231" y="422" type="line"/>
      <point x="231" y="700" type="line"/>
      <point x="230" y="700" type="line"/>
      <point x="142" y="626" type="line"/>
    </contour>
  </outline>
</glyph>
<glyph name="ampersand.color2" format="2">
  <advance width="600"/>
  <unicode hex="0026"/>
  <outline>
    <contour>
      <point x="553" y="0" type="line"/>
      <point x="556" y="0" type="line"/>
      <point x="701" y="4" type="line"/>
      <point x="701" y="5" type="line"/>
      <point x="460" y="392" type="line"/>
      <point x="323" y="392" type="line"/>
      <point x="311" y="392" type="line"/>
    </contour>
  </outline>
</glyph>
<glyph name="ampersand.color3" format="2">
  <advance width="600"/>
  <unicode hex="0026"/>
  <outline>
    <contour>
      <point x="143" y="0" type="line"/>
      <point x="443" y="0" type="line"/>
      <point x="417" y="114" type="line"/>
      <point x="143" y="114" type="line"/>
    </contour>
  </outline>
</glyph>
<glyph name="ampersand.color6" format="2">
  <advance width="600"/>
  <unicode hex="0026"/>
  <outline>
    <contour>
      <point x="443" y="0" type="line"/>
      <point x="444" y="0" type="line"/>
      <point x="569" y="133" type="line"/>
      <point x="713" y="392" type="line"/>
      <point x="713" y="393" type="line"/>
      <point x="578" y="399" type="line"/>
      <point x="417" y="114" type="line"/>
    </contour>
  </outline>
</glyph>
<glyph name="ampersand.color7" format="2">
  <advance width="600"/>
  <unicode hex="0026"/>
  <outline>
    <contour>
      <point x="408" y="308" type="line"/>
      <point x="409" y="308" type="line"/>
      <point x="496" y="422" type="line"/>
      <point x="496" y="626" type="line"/>
      <point x="409" y="700" type="line"/>
      <point x="408" y="700" type="line"/>
    </contour>
  </outline>
</glyph>
<glyph name="ampersand" format="2">
  <advance width="738"/>
  <unicode hex="0026"/>
  <outline>
    <contour>
      <point x="231" y="586" type="line"/>
      <point x="408" y="586" type="line"/>
      <point x="408" y="700" type="line"/>
      <point x="231" y="700" type="line"/>
    </contour>
    <contour>
      <point x="142" y="422" type="line"/>
      <point x="231" y="422" type="line"/>
      <point x="231" y="700" type="line"/>
      <point x="230" y="700" type="line"/>
      <point x="142" y="626" type="line"/>
    </contour>
    <contour>
      <point x="553" y="0" type="line"/>
      <point x="556" y="0" type="line"/>
      <point x="701" y="4" type="line"/>
      <point x="701" y="5" type="line"/>
      <point x="460" y="392" type="line"/>
      <point x="323" y="392" type="line"/>
      <point x="311" y="392" type="line"/>
    </contour>
    <contour>
      <point x="143" y="0" type="line"/>
      <point x="443" y="0" type="line"/>
      <point x="417" y="114" type="line"/>
      <point x="143" y="114" type="line"/>
    </contour>
    <contour>
      <point x="143" y="308" type="line"/>
      <point x="408" y="308" type="line"/>
      <point x="408" y="422" type="line"/>
      <point x="143" y="422" type="line"/>
    </contour>
    <contour>
      <point x="142" y="0" type="line"/>
      <point x="143" y="0" type="line"/>
      <point x="143" y="422" type="line"/>
      <point x="142" y="422" type="line"/>
      <point x="34" y="311" type="line"/>
      <point x="34" y="93" type="line"/>
    </contour>
    <contour>
      <point x="443" y="0" type="line"/>
      <point x="444" y="0" type="line"/>
      <point x="569" y="133" type="line"/>
      <point x="713" y="392" type="line"/>
      <point x="713" y="393" type="line"/>
      <point x="578" y="399" type="line"/>
      <point x="417" y="114" type="line"/>
    </contour>
    <contour>
      <point x="408" y="308" type="line"/>
      <point x="409" y="308" type="line"/>
      <point x="496" y="422" type="line"/>
      <point x="496" y="626" type="line"/>
      <point x="409" y="700" type="line"/>
      <point x="408" y="700" type="line"/>
    </contour>
  </outline>
</glyph>
<glyph name="parenleft.color0" format="2">
  <advance width="600"/>
  <unicode hex="0028"/>
  <outline>
    <contour>
      <point x="164" y="25" type="line"/>
      <point x="164" y="700" type="line"/>
      <point x="163" y="700" type="line"/>
      <point x="44" y="593" type="line"/>
      <point x="44" y="29" type="line"/>
    </contour>
  </outline>
</glyph>
<glyph name="parenleft.color1" format="2">
  <advance width="600"/>
  <unicode hex="0028"/>
  <outline>
    <contour>
      <point x="146" y="-77" type="line"/>
      <point x="338" y="-100" type="line"/>
      <point x="338" y="14" type="line"/>
      <point x="44" y="37" type="line"/>
      <point x="44" y="28" type="line"/>
    </contour>
  </outline>
</glyph>
<glyph name="parenleft.color2" format="2">
  <advance width="600"/>
  <unicode hex="0028"/>
  <outline>
    <contour>
      <point x="164" y="586" type="line"/>
      <point x="338" y="601" type="line"/>
      <point x="338" y="715" type="line"/>
      <point x="164" y="700" type="line"/>
    </contour>
  </outline>
</glyph>
<glyph name="parenleft" format="2">
  <advance width="356"/>
  <unicode hex="0028"/>
  <outline>
    <contour>
      <point x="164" y="25" type="line"/>
      <point x="164" y="700" type="line"/>
      <point x="163" y="700" type="line"/>
      <point x="44" y="593" type="line"/>
      <point x="44" y="29" type="line"/>
    </contour>
    <contour>
      <point x="146" y="-77" type="line"/>
      <point x="338" y="-100" type="line"/>
      <point x="338" y="14" type="line"/>
      <point x="44" y="37" type="line"/>
      <point x="44" y="28" type="line"/>
    </contour>
    <contour>
      <point x="164" y="586" type="line"/>
      <point x="338" y="601" type="line"/>
      <point x="338" y="715" type="line"/>
      <point x="164" y="700" type="line"/>
    </contour>
  </outline>
</glyph>
<glyph name="parenright.color0" format="2">
  <advance width="600"/>
  <unicode hex="0029"/>
  <outline>
    <contour>
      <point x="203" y="-85" type="line"/>
      <point x="204" y="-85" type="line"/>
      <point x="323" y="22" type="line"/>
      <point x="323" y="586" type="line"/>
      <point x="203" y="591" type="line"/>
    </contour>
  </outline>
</glyph>
<glyph name="parenright.color1" format="2">
  <advance width="600"/>
  <unicode hex="0029"/>
  <outline>
    <contour>
      <point x="28" y="-100" type="line"/>
      <point x="203" y="-85" type="line"/>
      <point x="203" y="29" type="line"/>
      <point x="28" y="14" type="line"/>
    </contour>
  </outline>
</glyph>
<glyph name="parenright.color2" format="2">
  <advance width="600"/>
  <unicode hex="0029"/>
  <outline>
    <contour>
      <point x="28" y="601" type="line"/>
      <point x="323" y="579" type="line"/>
      <point x="323" y="587" type="line"/>
      <point x="221" y="693" type="line"/>
      <point x="28" y="715" type="line"/>
    </contour>
  </outline>
</glyph>
<glyph name="parenright" format="2">
  <advance width="366"/>
  <unicode hex="0029"/>
  <outline>
    <contour>
      <point x="203" y="-85" type="line"/>
      <point x="204" y="-85" type="line"/>
      <point x="323" y="22" type="line"/>
      <point x="323" y="586" type="line"/>
      <point x="203" y="591" type="line"/>
    </contour>
    <contour>
      <point x="28" y="-100" type="line"/>
      <point x="203" y="-85" type="line"/>
      <point x="203" y="29" type="line"/>
      <point x="28" y="14" type="line"/>
    </contour>
    <contour>
      <point x="28" y="601" type="line"/>
      <point x="323" y="579" type="line"/>
      <point x="323" y="587" type="line"/>
      <point x="221" y="693" type="line"/>
      <point x="28" y="715" type="line"/>
    </contour>
  </outline>
</glyph>
<glyph name="asterisk.color0" format="2">
  <advance width="600"/>
  <unicode hex="002A"/>
  <outline>
    <contour>
      <point x="77" y="444" type="line"/>
      <point x="142" y="444" type="line"/>
      <point x="142" y="446" type="line"/>
      <point x="159" y="513" type="line"/>
      <point x="25" y="609" type="line"/>
    </contour>
  </outline>
</glyph>
<glyph name="asterisk.color1" format="2">
  <advance width="600"/>
  <unicode hex="002A"/>
  <outline>
    <contour>
      <point x="159" y="513" type="line"/>
      <point x="180" y="730" type="line"/>
      <point x="178" y="730" type="line"/>
      <point x="25" y="610" type="line"/>
      <point x="25" y="609" type="line"/>
    </contour>
  </outline>
</glyph>
<glyph name="asterisk.color2" format="2">
  <advance width="600"/>
  <unicode hex="002A"/>
  <outline>
    <contour>
      <point x="142" y="444" type="line"/>
      <point x="279" y="444" type="line"/>
      <point x="331" y="609" type="line"/>
      <point x="331" y="610" type="line"/>
      <point x="181" y="730" type="line"/>
      <point x="180" y="730" type="line"/>
      <point x="142" y="446" type="line"/>
    </contour>
  </outline>
</glyph>
<glyph name="asterisk" format="2">
  <advance width="370"/>
  <unicode hex="002A"/>
  <outline>
    <contour>
      <point x="77" y="444" type="line"/>
      <point x="142" y="444" type="line"/>
      <point x="142" y="446" type="line"/>
      <point x="159" y="513" type="line"/>
      <point x="25" y="609" type="line"/>
    </contour>
    <contour>
      <point x="159" y="513" type="line"/>
      <point x="180" y="730" type="line"/>
      <point x="178" y="730" type="line"/>
      <point x="25" y="610" type="line"/>
      <point x="25" y="609" type="line"/>
    </contour>
    <contour>
      <point x="142" y="444" type="line"/>
      <point x="279" y="444" type="line"/>
      <point x="331" y="609" type="line"/>
      <point x="331" y="610" type="line"/>
      <point x="181" y="730" type="line"/>
      <point x="180" y="730" type="line"/>
      <point x="142" y="446" type="line"/>
    </contour>
  </outline>
</glyph>
<glyph name="plus.color0" format="2">
  <advance width="600"/>
  <unicode hex="002B"/>
  <outline>
    <contour>
      <point x="40" y="302" type="line"/>
      <point x="191" y="302" type="line"/>
      <point x="191" y="416" type="line"/>
      <point x="39" y="416" type="line"/>
    </contour>
  </outline>
</glyph>
<glyph name="plus.color1" format="2">
  <advance width="600"/>
  <unicode hex="002B"/>
  <outline>
    <contour>
      <point x="191" y="156" type="line"/>
      <point x="305" y="156" type="line"/>
      <point x="305" y="302" type="line"/>
      <point x="191" y="302" type="line"/>
    </contour>
  </outline>
</glyph>
<glyph name="plus.color2" format="2">
  <advance width="600"/>
  <unicode hex="002B"/>
  <outline>
    <contour>
      <point x="191" y="302" type="line"/>
      <point x="192" y="302" type="line"/>
      <point x="305" y="416" type="line"/>
      <point x="305" y="560" type="line"/>
      <point x="191" y="560" type="line"/>
    </contour>
  </outline>
</glyph>
<glyph name="plus.color3" format="2">
  <advance width="600"/>
  <unicode hex="002B"/>
  <outline>
    <contour>
      <point x="192" y="302" type="line"/>
      <point x="457" y="302" type="line"/>
      <point x="457" y="416" type="line"/>
      <point x="305" y="416" type="line"/>
    </contour>
  </outline>
</glyph>
<glyph name="plus" format="2">
  <advance width="495.5"/>
  <unicode hex="002B"/>
  <outline>
    <contour>
      <point x="40" y="302" type="line"/>
      <point x="191" y="302" type="line"/>
      <point x="191" y="416" type="line"/>
      <point x="39" y="416" type="line"/>
    </contour>
    <contour>
      <point x="191" y="156" type="line"/>
      <point x="305" y="156" type="line"/>
      <point x="305" y="302" type="line"/>
      <point x="191" y="302" type="line"/>
    </contour>
    <contour>
      <point x="191" y="302" type="line"/>
      <point x="192" y="302" type="line"/>
      <point x="305" y="416" type="line"/>
      <point x="305" y="560" type="line"/>
      <point x="191" y="560" type="line"/>
    </contour>
    <contour>
      <point x="192" y="302" type="line"/>
      <point x="457" y="302" type="line"/>
      <point x="457" y="416" type="line"/>
      <point x="305" y="416" type="line"/>
    </contour>
  </outline>
</glyph>
<glyph name="comma.color0" format="2">
  <advance width="600"/>
  <unicode hex="002C"/>
  <outline>
    <contour>
      <point x="34" y="26" type="line"/>
      <point x="171" y="26" type="line"/>
      <point x="106" y="140" type="line"/>
      <point x="34" y="140" type="line"/>
    </contour>
  </outline>
</glyph>
<glyph name="comma.color1" format="2">
  <advance width="600"/>
  <unicode hex="002C"/>
  <outline>
    <contour>
      <point x="72" y="-120" type="line"/>
      <point x="73" y="-120" type="line"/>
      <point x="171" y="-55" type="line"/>
      <point x="171" y="26" type="line"/>
      <point x="72" y="26" type="line"/>
    </contour>
  </outline>
</glyph>
<glyph name="comma" format="2">
  <advance width="204.5"/>
  <unicode hex="002C"/>
  <outline>
    <contour>
      <point x="34" y="26" type="line"/>
      <point x="171" y="26" type="line"/>
      <point x="106" y="140" type="line"/>
      <point x="34" y="140" type="line"/>
    </contour>
    <contour>
      <point x="72" y="-120" type="line"/>
      <point x="73" y="-120" type="line"/>
      <point x="171" y="-55" type="line"/>
      <point x="171" y="26" type="line"/>
      <point x="72" y="26" type="line"/>
    </contour>
  </outline>
</glyph>
<glyph name="hyphen" format="2">
  <advance width="305.5"/>
  <unicode hex="002D"/>
  <outline>
    <contour>
      <point x="44" y="293" type="line"/>
      <point x="262" y="293" type="line"/>
      <point x="262" y="412" type="line"/>
      <point x="44" y="412" type="line"/>
    </contour>
  </outline>
</glyph>
<glyph name="slash" format="2">
  <advance width="398"/>
  <unicode hex="002F"/>
  <outline>
    <contour>
      <point x="0" y="-100" type="line"/>
      <point x="128" y="-100" type="line"/>
      <point x="399" y="790" type="line"/>
      <point x="399" y="791" type="line"/>
      <point x="270" y="791" type="line"/>
      <point x="0" y="-99" type="line"/>
    </contour>
  </outline>
</glyph>
<glyph name="zero.color0" format="2">
  <advance width="600"/>
  <unicode hex="0030"/>
  <outline>
    <contour>
      <point x="310" y="114" type="line"/>
      <point x="438" y="114" type="line"/>
      <point x="438" y="115" type="line"/>
      <point x="237" y="589" type="line"/>
      <point x="109" y="589" type="line"/>
    </contour>
  </outline>
</glyph>
<glyph name="zero.color1" format="2">
  <advance width="600"/>
  <unicode hex="0030"/>
  <outline>
    <contour>
      <point x="157" y="0" type="line"/>
      <point x="382" y="0" type="line"/>
      <point x="382" y="114" type="line"/>
      <point x="44" y="114" type="line"/>
      <point x="44" y="113" type="line"/>
    </contour>
  </outline>
</glyph>
<glyph name="zero.color2" format="2">
  <advance width="600"/>
  <unicode hex="0030"/>
  <outline>
    <contour>
      <point x="44" y="114" type="line"/>
      <point x="164" y="114" type="line"/>
      <point x="164" y="700" type="line"/>
      <point x="163" y="700" type="line"/>
      <point x="44" y="585" type="line"/>
    </contour>
  </outline>
</glyph>
<glyph name="zero.color3" format="2">
  <advance width="600"/>
  <unicode hex="0030"/>
  <outline>
    <contour>
      <point x="382" y="0" type="line"/>
      <point x="383" y="0" type="line"/>
      <point x="501" y="110" type="line"/>
      <point x="501" y="586" type="line"/>
      <point x="382" y="586" type="line"/>
    </contour>
  </outline>
</glyph>
<glyph name="zero.color4" format="2">
  <advance width="600"/>
  <unicode hex="0030"/>
  <outline>
    <contour>
      <point x="164" y="586" type="line"/>
      <point x="501" y="586" type="line"/>
      <point x="501" y="587" type="line"/>
      <point x="388" y="700" type="line"/>
      <point x="164" y="700" type="line"/>
    </contour>
  </outline>
</glyph>
<glyph name="zero" format="2">
  <advance width="545"/>
  <unicode hex="0030"/>
  <outline>
    <contour>
      <point x="310" y="114" type="line"/>
      <point x="438" y="114" type="line"/>
      <point x="438" y="115" type="line"/>
      <point x="237" y="589" type="line"/>
      <point x="109" y="589" type="line"/>
    </contour>
    <contour>
      <point x="157" y="0" type="line"/>
      <point x="382" y="0" type="line"/>
      <point x="382" y="114" type="line"/>
      <point x="44" y="114" type="line"/>
      <point x="44" y="113" type="line"/>
    </contour>
    <contour>
      <point x="44" y="114" type="line"/>
      <point x="164" y="114" type="line"/>
      <point x="164" y="700" type="line"/>
      <point x="163" y="700" type="line"/>
      <point x="44" y="585" type="line"/>
    </contour>
    <contour>
      <point x="382" y="0" type="line"/>
      <point x="383" y="0" type="line"/>
      <point x="501" y="110" type="line"/>
      <point x="501" y="586" type="line"/>
      <point x="382" y="586" type="line"/>
    </contour>
    <contour>
      <point x="164" y="586" type="line"/>
      <point x="501" y="586" type="line"/>
      <point x="501" y="587" type="line"/>
      <point x="388" y="700" type="line"/>
      <point x="164" y="700" type="line"/>
    </contour>
  </outline>
</glyph>
<glyph name="one.color0" format="2">
  <advance width="600"/>
  <unicode hex="0031"/>
  <outline>
    <contour>
      <point x="231" y="0" type="line"/>
      <point x="259" y="0" type="line"/>
      <point x="351" y="114" type="line"/>
      <point x="351" y="700" type="line"/>
      <point x="324" y="700" type="line"/>
      <point x="231" y="586" type="line"/>
    </contour>
  </outline>
</glyph>
<glyph name="one.color1" format="2">
  <advance width="600"/>
  <unicode hex="0031"/>
  <outline>
    <contour>
      <point x="45" y="0" type="line"/>
      <point x="231" y="0" type="line"/>
      <point x="231" y="114" type="line"/>
      <point x="45" y="114" type="line"/>
    </contour>
  </outline>
</glyph>
<glyph name="one.color3" format="2">
  <advance width="600"/>
  <unicode hex="0031"/>
  <outline>
    <contour>
      <point x="94" y="586" type="line"/>
      <point x="231" y="586" type="line"/>
      <point x="324" y="700" type="line"/>
      <point x="94" y="700" type="line"/>
    </contour>
  </outline>
</glyph>
<glyph name="one" format="2">
  <advance width="545"/>
  <unicode hex="0031"/>
  <outline>
    <contour>
      <point x="231" y="0" type="line"/>
      <point x="259" y="0" type="line"/>
      <point x="351" y="114" type="line"/>
      <point x="351" y="700" type="line"/>
      <point x="324" y="700" type="line"/>
      <point x="231" y="586" type="line"/>
    </contour>
    <contour>
      <point x="45" y="0" type="line"/>
      <point x="231" y="0" type="line"/>
      <point x="231" y="114" type="line"/>
      <point x="45" y="114" type="line"/>
    </contour>
    <contour>
      <point x="259" y="0" type="line"/>
      <point x="501" y="0" type="line"/>
      <point x="501" y="114" type="line"/>
      <point x="351" y="114" type="line"/>
    </contour>
    <contour>
      <point x="94" y="586" type="line"/>
      <point x="231" y="586" type="line"/>
      <point x="324" y="700" type="line"/>
      <point x="94" y="700" type="line"/>
    </contour>
  </outline>
</glyph>
<glyph name="two.color0" format="2">
  <advance width="600"/>
  <unicode hex="0032"/>
  <outline>
    <contour>
      <point x="45" y="586" type="line"/>
      <point x="383" y="586" type="line"/>
      <point x="418" y="700" type="line"/>
      <point x="157" y="700" type="line"/>
      <point x="45" y="587" type="line"/>
    </contour>
  </outline>
</glyph>
<glyph name="two.color2" format="2">
  <advance width="600"/>
  <unicode hex="0032"/>
  <outline>
    <contour>
      <point x="57" y="0" type="line"/>
      <point x="487" y="0" type="line"/>
      <point x="487" y="114" type="line"/>
      <point x="57" y="114" type="line"/>
    </contour>
  </outline>
</glyph>
<glyph name="three.color1" format="2">
  <advance width="600"/>
  <unicode hex="0033"/>
  <outline>
    <contour>
      <point x="138" y="0" type="line"/>
      <point x="373" y="0" type="line"/>
      <point x="373" y="114" type="line"/>
      <point x="26" y="114" type="line"/>
      <point x="26" y="113" type="line"/>
    </contour>
  </outline>
</glyph>
<glyph name="three.color2" format="2">
  <advance width="600"/>
  <unicode hex="0033"/>
  <outline>
    <contour>
      <point x="91" y="343" type="line"/>
      <point x="373" y="343" type="line"/>
      <point x="373" y="436" type="line"/>
      <point x="91" y="436" type="line"/>
    </contour>
  </outline>
</glyph>
<glyph name="three.color3" format="2">
  <advance width="600"/>
  <unicode hex="0033"/>
  <outline>
    <contour>
      <point x="373" y="397" type="line"/>
      <point x="491" y="397" type="line"/>
      <point x="491" y="580" type="line"/>
      <point x="374" y="700" type="line"/>
      <point x="373" y="700" type="line"/>
    </contour>
  </outline>
</glyph>
<glyph name="three" format="2">
  <advance width="545"/>
  <unicode hex="0033"/>
  <outline>
    <contour>
      <point x="30" y="586" type="line"/>
      <point x="373" y="586" type="line"/>
      <point x="373" y="700" type="line"/>
      <point x="143" y="700" type="line"/>
      <point x="30" y="587" type="line"/>
    </contour>
    <contour>
      <point x="138" y="0" type="line"/>
      <point x="373" y="0" type="line"/>
      <point x="373" y="114" type="line"/>
      <point x="26" y="114" type="line"/>
      <point x="26" y="113" type="line"/>
    </contour>
    <contour>
      <point x="91" y="343" type="line"/>
      <point x="373" y="343" type="line"/>
      <point x="373" y="436" type="line"/>
      <point x="91" y="436" type="line"/>
    </contour>
    <contour>
      <point x="373" y="397" type="line"/>
      <point x="491" y="397" type="line"/>
      <point x="491" y="580" type="line"/>
      <point x="374" y="700" type="line"/>
      <point x="373" y="700" type="line"/>
    </contour>
    <contour>
      <point x="373" y="0" type="line"/>
      <point x="374" y="0" type="line"/>
      <point x="491" y="108" type="line"/>
      <point x="491" y="337" type="line"/>
      <point x="374" y="436" type="line"/>
      <point x="373" y="436" type="line"/>
    </contour>
  </outline>
</glyph>
<glyph name="four.color2" format="2">
  <advance width="600"/>
  <unicode hex="0034"/>
  <outline>
    <contour>
      <point x="380" y="0" type="line"/>
      <point x="499" y="0" type="line"/>
      <point x="499" y="242" type="line"/>
      <point x="381" y="337" type="line"/>
      <point x="380" y="337" type="line"/>
    </contour>
  </outline>
</glyph>
<glyph name="four" format="2">
  <advance width="545"/>
  <unicode hex="0034"/>
  <outline>
    <contour>
      <point x="99" y="223" type="line"/>
      <point x="380" y="223" type="line"/>
      <point x="380" y="337" type="line"/>
      <point x="162" y="337" type="line"/>
    </contour>
    <contour>
      <point x="99" y="223" type="line"/>
      <point x="407" y="699" type="line"/>
      <point x="407" y="700" type="line"/>
      <point x="261" y="700" type="line"/>
      <point x="31" y="337" type="line"/>
    </contour>
    <contour>
      <point x="380" y="0" type="line"/>
      <point x="499" y="0" type="line"/>
      <point x="499" y="242" type="line"/>
      <point x="381" y="337" type="line"/>
      <point x="380" y="337" type="line"/>
    </contour>
  </outline>
</glyph>
<glyph name="five.color0" format="2">
  <advance width="600"/>
  <unicode hex="0035"/>
  <outline>
    <contour>
      <point x="140" y="0" type="line"/>
      <point x="375" y="0" type="line"/>
      <point x="375" y="114" type="line"/>
      <point x="27" y="114" type="line"/>
      <point x="27" y="113" type="line"/>
    </contour>
  </outline>
</glyph>
<glyph name="five.color1" format="2">
  <advance width="600"/>
  <unicode hex="0035"/>
  <outline>
    <contour>
      <point x="67" y="331" type="line"/>
      <point x="375" y="331" type="line"/>
      <point x="375" y="445" type="line"/>
      <point x="67" y="445" type="line"/>
    </contour>
  </outline>
</glyph>
<glyph name="five.color2" format="2">
  <advance width="600"/>
  <unicode hex="0035"/>
  <outline>
    <contour>
      <point x="67" y="445" type="line"/>
      <point x="185" y="445" type="line"/>
      <point x="185" y="685" type="line"/>
      <point x="67" y="685" type="line"/>
    </contour>
  </outline>
</glyph>
<glyph name="five" format="2">
  <advance width="545"/>
  <unicode hex="0035"/>
  <outline>
    <contour>
      <point x="140" y="0" type="line"/>
      <point x="375" y="0" type="line"/>
      <point x="375" y="114" type="line"/>
      <point x="27" y="114" type="line"/>
      <point x="27" y="113" type="line"/>
    </contour>
    <contour>
      <point x="67" y="331" type="line"/>
      <point x="375" y="331" type="line"/>
      <point x="375" y="445" type="line"/>
      <point x="67" y="445" type="line"/>
    </contour>
    <contour>
      <point x="67" y="445" type="line"/>
      <point x="185" y="445" type="line"/>
      <point x="185" y="685" type="line"/>
      <point x="67" y="685" type="line"/>
    </contour>
    <contour>
      <point x="375" y="0" type="line"/>
      <point x="376" y="0" type="line"/>
      <point x="493" y="105" type="line"/>
      <point x="493" y="364" type="line"/>
      <point x="376" y="445" type="line"/>
      <point x="375" y="445" type="line"/>
    </contour>
    <contour>
      <point x="185" y="571" type="line"/>
      <point x="461" y="571" type="line"/>
      <point x="461" y="685" type="line"/>
      <point x="185" y="685" type="line"/>
    </contour>
  </outline>
</glyph>
<glyph name="six.color1" format="2">
  <advance width="600"/>
  <unicode hex="0036"/>
  <outline>
    <contour>
      <point x="44" y="114" type="line"/>
      <point x="164" y="114" type="line"/>
      <point x="164" y="308" type="line"/>
      <point x="44" y="421" type="line"/>
    </contour>
  </outline>
</glyph>
<glyph name="six.color3" format="2">
  <advance width="600"/>
  <unicode hex="0036"/>
  <outline>
    <contour>
      <point x="44" y="422" type="line"/>
      <point x="164" y="422" type="line"/>
      <point x="164" y="700" type="line"/>
      <point x="163" y="700" type="line"/>
      <point x="44" y="585" type="line"/>
    </contour>
  </outline>
</glyph>
<glyph name="six.color5" format="2">
  <advance width="600"/>
  <unicode hex="0036"/>
  <outline>
    <contour>
      <point x="164" y="586" type="line"/>
      <point x="487" y="586" type="line"/>
      <point x="487" y="587" type="line"/>
      <point x="375" y="700" type="line"/>
      <point x="164" y="700" type="line"/>
    </contour>
  </outline>
</glyph>
<glyph name="six" format="2">
  <advance width="545"/>
  <unicode hex="0036"/>
  <outline>
    <contour>
      <point x="157" y="0" type="line"/>
      <point x="393" y="0" type="line"/>
      <point x="393" y="114" type="line"/>
      <point x="44" y="114" type="line"/>
      <point x="44" y="113" type="line"/>
    </contour>
    <contour>
      <point x="44" y="114" type="line"/>
      <point x="164" y="114" type="line"/>
      <point x="164" y="308" type="line"/>
      <point x="44" y="421" type="line"/>
    </contour>
    <contour>
      <point x="164" y="308" type="line"/>
      <point x="393" y="308" type="line"/>
      <point x="393" y="422" type="line"/>
      <point x="44" y="422" type="line"/>
      <point x="44" y="421" type="line"/>
    </contour>
    <contour>
      <point x="44" y="422" type="line"/>
      <point x="164" y="422" type="line"/>
      <point x="164" y="700" type="line"/>
      <point x="163" y="700" type="line"/>
      <point x="44" y="585" type="line"/>
    </contour>
    <contour>
      <point x="393" y="0" type="line"/>
      <point x="394" y="0" type="line"/>
      <point x="511" y="108" type="line"/>
      <point x="511" y="311" type="line"/>
      <point x="394" y="422" type="line"/>
      <point x="393" y="422" type="line"/>
    </contour>
    <contour>
      <point x="164" y="586" type="line"/>
      <point x="487" y="586" type="line"/>
      <point x="487" y="587" type="line"/>
      <point x="375" y="700" type="line"/>
      <point x="164" y="700" type="line"/>
    </contour>
  </outline>
</glyph>
<glyph name="seven.color0" format="2">
  <advance width="600"/>
  <unicode hex="0037"/>
  <outline>
    <contour>
      <point x="35" y="586" type="line"/>
      <point x="410" y="586" type="line"/>
      <point x="424" y="700" type="line"/>
      <point x="35" y="700" type="line"/>
    </contour>
  </outline>
</glyph>
<glyph name="eight.color0" format="2">
  <advance width="600"/>
  <unicode hex="0038"/>
  <outline>
    <contour>
      <point x="195" y="586" type="line"/>
      <point x="350" y="586" type="line"/>
      <point x="350" y="700" type="line"/>
      <point x="195" y="700" type="line"/>
    </contour>
  </outline>
</glyph>
<glyph name="eight.color1" format="2">
  <advance width="600"/>
  <unicode hex="0038"/>
  <outline>
    <contour>
      <point x="158" y="0" type="line"/>
      <point x="387" y="0" type="line"/>
      <point x="387" y="114" type="line"/>
      <point x="158" y="114" type="line"/>
    </contour>
  </outline>
</glyph>
<glyph name="eight.color3" format="2">
  <advance width="600"/>
  <unicode hex="0038"/>
  <outline>
    <contour>
      <point x="350" y="371" type="line"/>
      <point x="470" y="371" type="line"/>
      <point x="470" y="585" type="line"/>
      <point x="351" y="700" type="line"/>
      <point x="350" y="700" type="line"/>
    </contour>
  </outline>
</glyph>
<glyph name="eight.color5" format="2">
  <advance width="600"/>
  <unicode hex="0038"/>
  <outline>
    <contour>
      <point x="387" y="0" type="line"/>
      <point x="388" y="0" type="line"/>
      <point x="507" y="108" type="line"/>
      <point x="507" y="311" type="line"/>
      <point x="388" y="422" type="line"/>
      <point x="387" y="422" type="line"/>
    </contour>
  </outline>
</glyph>
<glyph name="eight.color6" format="2">
  <advance width="600"/>
  <unicode hex="0038"/>
  <outline>
    <contour>
      <point x="157" y="0" type="line"/>
      <point x="158" y="0" type="line"/>
      <point x="158" y="422" type="line"/>
      <point x="157" y="422" type="line"/>
      <point x="39" y="311" type="line"/>
      <point x="39" y="108" type="line"/>
    </contour>
  </outline>
</glyph>
<glyph name="eight" format="2">
  <advance width="545"/>
  <unicode hex="0038"/>
  <outline>
    <contour>
      <point x="195" y="586" type="line"/>
      <point x="350" y="586" type="line"/>
      <point x="350" y="700" type="line"/>
      <point x="195" y="700" type="line"/>
    </contour>
    <contour>
      <point x="158" y="0" type="line"/>
      <point x="387" y="0" type="line"/>
      <point x="387" y="114" type="line"/>
      <point x="158" y="114" type="line"/>
    </contour>
    <contour>
      <point x="75" y="371" type="line"/>
      <point x="195" y="371" type="line"/>
      <point x="195" y="700" type="line"/>
      <point x="194" y="700" type="line"/>
      <point x="75" y="585" type="line"/>
    </contour>
    <contour>
      <point x="350" y="371" type="line"/>
      <point x="470" y="371" type="line"/>
      <point x="470" y="585" type="line"/>
      <point x="351" y="700" type="line"/>
      <point x="350" y="700" type="line"/>
    </contour>
    <contour>
      <point x="158" y="308" type="line"/>
      <point x="387" y="308" type="line"/>
      <point x="387" y="422" type="line"/>
      <point x="158" y="422" type="line"/>
    </contour>
    <contour>
      <point x="387" y="0" type="line"/>
      <point x="388" y="0" type="line"/>
      <point x="507" y="108" type="line"/>
      <point x="507" y="311" type="line"/>
      <point x="388" y="422" type="line"/>
      <point x="387" y="422" type="line"/>
    </contour>
    <contour>
      <point x="157" y="0" type="line"/>
      <point x="158" y="0" type="line"/>
      <point x="158" y="422" type="line"/>
      <point x="157" y="422" type="line"/>
      <point x="39" y="311" type="line"/>
      <point x="39" y="108" type="line"/>
    </contour>
  </outline>
</glyph>
<glyph name="nine.color0" format="2">
  <advance width="600"/>
  <unicode hex="0039"/>
  <outline>
    <contour>
      <point x="146" y="278" type="line"/>
      <point x="375" y="278" type="line"/>
      <point x="375" y="392" type="line"/>
      <point x="146" y="392" type="line"/>
    </contour>
  </outline>
</glyph>
<glyph name="nine.color1" format="2">
  <advance width="600"/>
  <unicode hex="0039"/>
  <outline>
    <contour>
      <point x="375" y="0" type="line"/>
      <point x="376" y="0" type="line"/>
      <point x="493" y="116" type="line"/>
      <point x="493" y="586" type="line"/>
      <point x="375" y="586" type="line"/>
    </contour>
  </outline>
</glyph>
<glyph name="nine.color2" format="2">
  <advance width="600"/>
  <unicode hex="0039"/>
  <outline>
    <contour>
      <point x="155" y="0" type="line"/>
      <point x="375" y="0" type="line"/>
      <point x="375" y="114" type="line"/>
      <point x="42" y="114" type="line"/>
      <point x="42" y="113" type="line"/>
    </contour>
  </outline>
</glyph>
<glyph name="colon.color0" format="2">
  <advance width="600"/>
  <unicode hex="003A"/>
  <outline>
    <contour>
      <point x="45" y="80" type="line"/>
      <point x="177" y="80" type="line"/>
      <point x="177" y="194" type="line"/>
      <point x="45" y="194" type="line"/>
    </contour>
  </outline>
</glyph>
<glyph name="colon.color1" format="2">
  <advance width="600"/>
  <unicode hex="003A"/>
  <outline>
    <contour>
      <point x="45" y="347" type="line"/>
      <point x="177" y="347" type="line"/>
      <point x="177" y="461" type="line"/>
      <point x="45" y="461" type="line"/>
    </contour>
  </outline>
</glyph>
<glyph name="colon" format="2">
  <advance width="229.5"/>
  <unicode hex="003A"/>
  <outline>
    <contour>
      <point x="45" y="80" type="line"/>
      <point x="177" y="80" type="line"/>
      <point x="177" y="194" type="line"/>
      <point x="45" y="194" type="line"/>
    </contour>
    <contour>
      <point x="45" y="347" type="line"/>
      <point x="177" y="347" type="line"/>
      <point x="177" y="461" type="line"/>
      <point x="45" y="461" type="line"/>
    </contour>
  </outline>
</glyph>
<glyph name="semicolon.color0" format="2">
  <advance width="600"/>
  <unicode hex="003B"/>
  <outline>
    <contour>
      <point x="34" y="291" type="line"/>
      <point x="166" y="291" type="line"/>
      <point x="166" y="405" type="line"/>
      <point x="34" y="405" type="line"/>
    </contour>
  </outline>
</glyph>
<glyph name="semicolon.color1" format="2">
  <advance width="600"/>
  <unicode hex="003B"/>
  <outline>
    <contour>
      <point x="55" y="26" type="line"/>
      <point x="192" y="26" type="line"/>
      <point x="127" y="140" type="line"/>
      <point x="55" y="140" type="line"/>
    </contour>
  </outline>
</glyph>
<glyph name="semicolon.color2" format="2">
  <advance width="600"/>
  <unicode hex="003B"/>
  <outline>
    <contour>
      <point x="93" y="-120" type="line"/>
      <point x="94" y="-120" type="line"/>
      <point x="192" y="-55" type="line"/>
      <point x="192" y="26" type="line"/>
      <point x="93" y="26" type="line"/>
    </contour>
  </outline>
</glyph>
<glyph name="less.color0" format="2">
  <advance width="600"/>
  <unicode hex="003C"/>
  <outline>
    <contour>
      <point x="43" y="334" type="line"/>
      <point x="207" y="334" type="line"/>
      <point x="434" y="523" type="line"/>
      <point x="434" y="524" type="line"/>
      <point x="270" y="524" type="line"/>
      <point x="43" y="335" type="line"/>
    </contour>
  </outline>
</glyph>
<glyph name="less.color1" format="2">
  <advance width="600"/>
  <unicode hex="003C"/>
  <outline>
    <contour>
      <point x="270" y="147" type="line"/>
      <point x="434" y="147" type="line"/>
      <point x="434" y="151" type="line"/>
      <point x="207" y="334" type="line"/>
      <point x="43" y="334" type="line"/>
      <point x="43" y="333" type="line"/>
    </contour>
  </outline>
</glyph>
<glyph name="equal.color0" format="2">
  <advance width="600"/>
  <unicode hex="003D"/>
  <outline>
    <contour>
      <point x="39" y="367" type="line"/>
      <point x="454" y="367" type="line"/>
      <point x="454" y="472" type="line"/>
      <point x="39" y="472" type="line"/>
    </contour>
  </outline>
</glyph>
<glyph name="equal.color1" format="2">
  <advance width="600"/>
  <unicode hex="003D"/>
  <outline>
    <contour>
      <point x="39" y="214" type="line"/>
      <point x="454" y="214" type="line"/>
      <point x="454" y="319" type="line"/>
      <point x="39" y="319" type="line"/>
    </contour>
  </outline>
</glyph>
<glyph name="greater.color0" format="2">
  <advance width="600"/>
  <unicode hex="003E"/>
  <outline>
    <contour>
      <point x="58" y="144" type="line"/>
      <point x="221" y="144" type="line"/>
      <point x="449" y="333" type="line"/>
      <point x="449" y="334" type="line"/>
      <point x="285" y="334" type="line"/>
      <point x="58" y="145" type="line"/>
    </contour>
  </outline>
</glyph>
<glyph name="greater.color1" format="2">
  <advance width="600"/>
  <unicode hex="003E"/>
  <outline>
    <contour>
      <point x="285" y="334" type="line"/>
      <point x="449" y="334" type="line"/>
      <point x="449" y="335" type="line"/>
      <point x="221" y="521" type="line"/>
      <point x="58" y="521" type="line"/>
      <point x="58" y="517" type="line"/>
    </contour>
  </outline>
</glyph>
<glyph name="greater" format="2">
  <advance width="493"/>
  <unicode hex="003E"/>
  <outline>
    <contour>
      <point x="58" y="144" type="line"/>
      <point x="221" y="144" type="line"/>
      <point x="449" y="333" type="line"/>
      <point x="449" y="334" type="line"/>
      <point x="285" y="334" type="line"/>
      <point x="58" y="145" type="line"/>
    </contour>
    <contour>
      <point x="285" y="334" type="line"/>
      <point x="449" y="334" type="line"/>
      <point x="449" y="335" type="line"/>
      <point x="221" y="521" type="line"/>
      <point x="58" y="521" type="line"/>
      <point x="58" y="517" type="line"/>
    </contour>
  </outline>
</glyph>
<glyph name="question.color0" format="2">
  <advance width="600"/>
  <unicode hex="003F"/>
  <outline>
    <contour>
      <point x="25" y="601" type="line"/>
      <point x="377" y="601" type="line"/>
      <point x="377" y="715" type="line"/>
      <point x="137" y="715" type="line"/>
      <point x="25" y="602" type="line"/>
    </contour>
  </outline>
</glyph>
<glyph name="question.color1" format="2">
  <advance width="600"/>
  <unicode hex="003F"/>
  <outline>
    <contour>
      <point x="377" y="402" type="line"/>
      <point x="502" y="402" type="line"/>
      <point x="502" y="600" type="line"/>
      <point x="378" y="715" type="line"/>
      <point x="377" y="715" type="line"/>
    </contour>
  </outline>
</glyph>
<glyph name="question.color2" format="2">
  <advance width="600"/>
  <unicode hex="003F"/>
  <outline>
    <contour>
      <point x="135" y="0" type="line"/>
      <point x="267" y="0" type="line"/>
      <point x="267" y="114" type="line"/>
      <point x="135" y="114" type="line"/>
    </contour>
  </outline>
</glyph>
<glyph name="question.color4" format="2">
  <advance width="600"/>
  <unicode hex="003F"/>
  <outline>
    <contour>
      <point x="146" y="168" type="line"/>
      <point x="264" y="168" type="line"/>
      <point x="264" y="402" type="line"/>
      <point x="263" y="402" type="line"/>
      <point x="146" y="292" type="line"/>
    </contour>
  </outline>
</glyph>
<glyph name="question" format="2">
  <advance width="552.5"/>
  <unicode hex="003F"/>
  <outline>
    <contour>
      <point x="25" y="601" type="line"/>
      <point x="377" y="601" type="line"/>
      <point x="377" y="715" type="line"/>
      <point x="137" y="715" type="line"/>
      <point x="25" y="602" type="line"/>
    </contour>
    <contour>
      <point x="377" y="402" type="line"/>
      <point x="502" y="402" type="line"/>
      <point x="502" y="600" type="line"/>
      <point x="378" y="715" type="line"/>
      <point x="377" y="715" type="line"/>
    </contour>
    <contour>
      <point x="264" y="307" type="line"/>
      <point x="389" y="307" type="line"/>
      <point x="502" y="401" type="line"/>
      <point x="502" y="402" type="line"/>
      <point x="264" y="402" type="line"/>
    </contour>
    <contour>
      <point x="146" y="168" type="line"/>
      <point x="264" y="168" type="line"/>
      <point x="264" y="402" type="line"/>
      <point x="263" y="402" type="line"/>
      <point x="146" y="292" type="line"/>
    </contour>
    <component base="period" xOffset="101"/>
  </outline>
</glyph>
<glyph name="at.color0" format="2">
  <advance width="600"/>
  <unicode hex="0040"/>
  <outline>
    <contour>
      <point x="264" y="401" type="line"/>
      <point x="571" y="401" type="line"/>
      <point x="571" y="402" type="line"/>
      <point x="506" y="515" type="line"/>
      <point x="264" y="515" type="line"/>
    </contour>
  </outline>
</glyph>
<glyph name="at.color2" format="2">
  <advance width="600"/>
  <unicode hex="0040"/>
  <outline>
    <contour>
      <point x="77" y="-86" type="line"/>
      <point x="648" y="-86" type="line"/>
      <point x="648" y="-62" type="line"/>
      <point x="77" y="-62" type="line"/>
    </contour>
  </outline>
</glyph>
<glyph name="at.color3" format="2">
  <advance width="600"/>
  <unicode hex="0040"/>
  <outline>
    <contour>
      <point x="209" y="0" type="line"/>
      <point x="452" y="0" type="line"/>
      <point x="452" y="114" type="line"/>
      <point x="144" y="114" type="line"/>
      <point x="144" y="113" type="line"/>
    </contour>
  </outline>
</glyph>
<glyph name="at.color4" format="2">
  <advance width="600"/>
  <unicode hex="0040"/>
  <outline>
    <contour>
      <point x="144" y="114" type="line"/>
      <point x="264" y="114" type="line"/>
      <point x="264" y="515" type="line"/>
      <point x="263" y="515" type="line"/>
      <point x="144" y="450" type="line"/>
    </contour>
  </outline>
</glyph>
<glyph name="at.color5" format="2">
  <advance width="600"/>
  <unicode hex="0040"/>
  <outline>
    <contour>
      <point x="571" y="0" type="line"/>
      <point x="571" y="401" type="line"/>
      <point x="452" y="401" type="line"/>
      <point x="452" y="114" type="line"/>
    </contour>
  </outline>
</glyph>
<glyph name="at.color8" format="2">
  <advance width="600"/>
  <unicode hex="0040"/>
  <outline>
    <contour>
      <point x="647" y="24" type="line"/>
      <point x="671" y="24" type="line"/>
      <point x="671" y="577" type="line"/>
      <point x="648" y="600" type="line"/>
      <point x="647" y="600" type="line"/>
    </contour>
  </outline>
</glyph>
<glyph name="at" format="2">
  <advance width="723"/>
  <unicode hex="0040"/>
  <outline>
    <contour>
      <point x="264" y="401" type="line"/>
      <point x="571" y="401" type="line"/>
      <point x="571" y="402" type="line"/>
      <point x="506" y="515" type="line"/>
      <point x="264" y="515" type="line"/>
    </contour>
    <contour>
      <point x="76" y="-86" type="line"/>
      <point x="77" y="-86" type="line"/>
      <point x="77" y="576" type="line"/>
      <point x="53" y="576" type="line"/>
      <point x="53" y="-63" type="line"/>
    </contour>
    <contour>
      <point x="77" y="-86" type="line"/>
      <point x="648" y="-86" type="line"/>
      <point x="648" y="-62" type="line"/>
      <point x="77" y="-62" type="line"/>
    </contour>
    <contour>
      <point x="209" y="0" type="line"/>
      <point x="452" y="0" type="line"/>
      <point x="452" y="114" type="line"/>
      <point x="144" y="114" type="line"/>
      <point x="144" y="113" type="line"/>
    </contour>
    <contour>
      <point x="144" y="114" type="line"/>
      <point x="264" y="114" type="line"/>
      <point x="264" y="515" type="line"/>
      <point x="263" y="515" type="line"/>
      <point x="144" y="450" type="line"/>
    </contour>
    <contour>
      <point x="571" y="0" type="line"/>
      <point x="571" y="401" type="line"/>
      <point x="452" y="401" type="line"/>
      <point x="452" y="114" type="line"/>
    </contour>
    <contour>
      <point x="571" y="0" type="line"/>
      <point x="648" y="0" type="line"/>
      <point x="671" y="23" type="line"/>
      <point x="671" y="24" type="line"/>
      <point x="571" y="24" type="line"/>
    </contour>
    <contour>
      <point x="53" y="576" type="line"/>
      <point x="647" y="576" type="line"/>
      <point x="647" y="600" type="line"/>
      <point x="76" y="600" type="line"/>
      <point x="53" y="577" type="line"/>
    </contour>
    <contour>
      <point x="647" y="24" type="line"/>
      <point x="671" y="24" type="line"/>
      <point x="671" y="577" type="line"/>
      <point x="648" y="600" type="line"/>
      <point x="647" y="600" type="line"/>
    </contour>
  </outline>
</glyph>
<glyph name="B.color0" format="2">
  <advance width="600"/>
  <unicode hex="0042"/>
  <outline>
    <contour>
      <point x="44" y="0" type="line"/>
      <point x="463" y="0" type="line"/>
      <point x="463" y="114" type="line"/>
      <point x="44" y="114" type="line"/>
    </contour>
  </outline>
</glyph>
<glyph name="B.color2" format="2">
  <advance width="600"/>
  <unicode hex="0042"/>
  <outline>
    <contour>
      <point x="387" y="308" type="line"/>
      <point x="463" y="308" type="line"/>
      <point x="463" y="422" type="line"/>
      <point x="329" y="422" type="line"/>
      <point x="279" y="422" type="line"/>
    </contour>
  </outline>
</glyph>
<glyph name="B.color3" format="2">
  <advance width="600"/>
  <unicode hex="0042"/>
  <outline>
    <contour>
      <point x="164" y="601" type="line"/>
      <point x="329" y="601" type="line"/>
      <point x="329" y="715" type="line"/>
      <point x="164" y="715" type="line"/>
    </contour>
  </outline>
</glyph>
<glyph name="B.color4" format="2">
  <advance width="600"/>
  <unicode hex="0042"/>
  <outline>
    <contour>
      <point x="458" y="404" type="line"/>
      <point x="458" y="605" type="line"/>
      <point x="330" y="715" type="line"/>
      <point x="329" y="715" type="line"/>
      <point x="329" y="422" type="line"/>
      <point x="433" y="422" type="line"/>
    </contour>
  </outline>
</glyph>
<glyph name="B.color5" format="2">
  <advance width="600"/>
  <unicode hex="0042"/>
  <outline>
    <contour>
      <point x="463" y="0" type="line"/>
      <point x="464" y="0" type="line"/>
      <point x="581" y="108" type="line"/>
      <point x="581" y="315" type="line"/>
      <point x="464" y="422" type="line"/>
      <point x="463" y="422" type="line"/>
    </contour>
  </outline>
</glyph>
<glyph name="B" format="2">
  <advance width="597.5"/>
  <unicode hex="0042"/>
  <outline>
    <contour>
      <point x="44" y="0" type="line"/>
      <point x="463" y="0" type="line"/>
      <point x="463" y="114" type="line"/>
      <point x="44" y="114" type="line"/>
    </contour>
    <contour>
      <point x="44" y="114" type="line"/>
      <point x="164" y="114" type="line"/>
      <point x="164" y="715" type="line"/>
      <point x="44" y="715" type="line"/>
    </contour>
    <contour>
      <point x="387" y="308" type="line"/>
      <point x="463" y="308" type="line"/>
      <point x="463" y="422" type="line"/>
      <point x="329" y="422" type="line"/>
      <point x="279" y="422" type="line"/>
    </contour>
    <contour>
      <point x="164" y="601" type="line"/>
      <point x="329" y="601" type="line"/>
      <point x="329" y="715" type="line"/>
      <point x="164" y="715" type="line"/>
    </contour>
    <contour>
      <point x="458" y="404" type="line"/>
      <point x="458" y="605" type="line"/>
      <point x="330" y="715" type="line"/>
      <point x="329" y="715" type="line"/>
      <point x="329" y="422" type="line"/>
      <point x="433" y="422" type="line"/>
    </contour>
    <contour>
      <point x="463" y="0" type="line"/>
      <point x="464" y="0" type="line"/>
      <point x="581" y="108" type="line"/>
      <point x="581" y="315" type="line"/>
      <point x="464" y="422" type="line"/>
      <point x="463" y="422" type="line"/>
    </contour>
  </outline>
</glyph>
<glyph name="C" format="2">
  <advance width="528.5"/>
  <unicode hex="0043"/>
  <anchor x="311" y="0" name="bottom"/>
  <anchor x="288" y="715" name="top"/>
  <outline>
    <contour>
      <point x="151" y="0" type="line"/>
      <point x="409" y="0" type="line"/>
      <point x="521" y="113" type="line"/>
      <point x="521" y="114" type="line"/>
      <point x="39" y="114" type="line"/>
      <point x="39" y="113" type="line"/>
    </contour>
    <contour>
      <point x="39" y="114" type="line"/>
      <point x="158" y="114" type="line"/>
      <point x="158" y="715" type="line"/>
      <point x="157" y="715" type="line"/>
      <point x="39" y="600" type="line"/>
    </contour>
    <contour>
      <point x="158" y="601" type="line"/>
      <point x="521" y="601" type="line"/>
      <point x="521" y="602" type="line"/>
      <point x="409" y="715" type="line"/>
      <point x="158" y="715" type="line"/>
    </contour>
  </outline>
</glyph>
<glyph name="D" format="2">
  <advance width="571"/>
  <unicode hex="0044"/>
  <anchor x="116" y="363" name="stroke"/>
  <anchor x="282" y="715" name="top"/>
  <outline>
    <contour>
      <point x="164" y="601" type="line"/>
      <point x="532" y="601" type="line"/>
      <point x="532" y="602" type="line"/>
      <point x="439" y="715" type="line"/>
      <point x="164" y="715" type="line"/>
    </contour>
    <contour>
      <point x="44" y="-2" type="line"/>
      <point x="414" y="-2" type="line"/>
      <point x="414" y="112" type="line"/>
      <point x="44" y="112" type="line"/>
    </contour>
    <contour>
      <point x="44" y="112" type="line"/>
      <point x="164" y="112" type="line"/>
      <point x="164" y="715" type="line"/>
      <point x="44" y="715" type="line"/>
    </contour>
    <contour>
      <point x="414" y="-2" type="line"/>
      <point x="415" y="-2" type="line"/>
      <point x="532" y="108" type="line"/>
      <point x="532" y="601" type="line"/>
      <point x="414" y="601" type="line"/>
    </contour>
  </outline>
</glyph>
<glyph name="F.color0" format="2">
  <advance width="600"/>
  <unicode hex="0046"/>
  <outline>
    <contour>
      <point x="164" y="601" type="line"/>
      <point x="394" y="601" type="line"/>
      <point x="506" y="714" type="line"/>
      <point x="506" y="715" type="line"/>
      <point x="164" y="715" type="line"/>
    </contour>
  </outline>
</glyph>
<glyph name="F.color3" format="2">
  <advance width="600"/>
  <unicode hex="0046"/>
  <outline>
    <contour>
      <point x="44" y="387" type="line"/>
      <point x="164" y="387" type="line"/>
      <point x="164" y="715" type="line"/>
      <point x="44" y="715" type="line"/>
    </contour>
  </outline>
</glyph>
<glyph name="F" format="2">
  <advance width="503.5"/>
  <unicode hex="0046"/>
  <outline>
    <contour>
      <point x="164" y="601" type="line"/>
      <point x="394" y="601" type="line"/>
      <point x="506" y="714" type="line"/>
      <point x="506" y="715" type="line"/>
      <point x="164" y="715" type="line"/>
    </contour>
    <contour>
      <point x="44" y="0" type="line"/>
      <point x="164" y="0" type="line"/>
      <point x="164" y="273" type="line"/>
      <point x="44" y="386" type="line"/>
    </contour>
    <contour>
      <point x="164" y="273" type="line"/>
      <point x="418" y="273" type="line"/>
      <point x="418" y="387" type="line"/>
      <point x="44" y="387" type="line"/>
      <point x="44" y="386" type="line"/>
    </contour>
    <contour>
      <point x="44" y="387" type="line"/>
      <point x="164" y="387" type="line"/>
      <point x="164" y="715" type="line"/>
      <point x="44" y="715" type="line"/>
    </contour>
  </outline>
</glyph>
<glyph name="G.color1" format="2">
  <advance width="600"/>
  <unicode hex="0047"/>
  <outline>
    <contour>
      <point x="151" y="0" type="line"/>
      <point x="442" y="0" type="line"/>
      <point x="442" y="114" type="line"/>
      <point x="39" y="114" type="line"/>
      <point x="39" y="113" type="line"/>
    </contour>
  </outline>
</glyph>
<glyph name="G.color4" format="2">
  <advance width="600"/>
  <unicode hex="0047"/>
  <outline>
    <contour>
      <point x="442" y="0" type="line"/>
      <point x="443" y="0" type="line"/>
      <point x="562" y="111" type="line"/>
      <point x="562" y="314" type="line"/>
      <point x="443" y="422" type="line"/>
      <point x="442" y="422" type="line"/>
    </contour>
  </outline>
</glyph>
<glyph name="G" format="2">
  <advance width="595"/>
  <unicode hex="0047"/>
  <anchor x="320" y="0" name="bottom"/>
  <anchor x="311" y="715" name="top"/>
  <outline>
    <contour>
      <point x="158" y="601" type="line"/>
      <point x="562" y="601" type="line"/>
      <point x="562" y="602" type="line"/>
      <point x="449" y="715" type="line"/>
      <point x="158" y="715" type="line"/>
    </contour>
    <contour>
      <point x="151" y="0" type="line"/>
      <point x="442" y="0" type="line"/>
      <point x="442" y="114" type="line"/>
      <point x="39" y="114" type="line"/>
      <point x="39" y="113" type="line"/>
    </contour>
    <contour>
      <point x="39" y="114" type="line"/>
      <point x="158" y="114" type="line"/>
      <point x="158" y="715" type="line"/>
      <point x="157" y="715" type="line"/>
      <point x="39" y="600" type="line"/>
    </contour>
    <contour>
      <point x="210" y="308" type="line"/>
      <point x="442" y="308" type="line"/>
      <point x="442" y="422" type="line"/>
      <point x="210" y="422" type="line"/>
    </contour>
    <contour>
      <point x="442" y="0" type="line"/>
      <point x="443" y="0" type="line"/>
      <point x="562" y="111" type="line"/>
      <point x="562" y="314" type="line"/>
      <point x="443" y="422" type="line"/>
      <point x="442" y="422" type="line"/>
    </contour>
  </outline>
</glyph>
<glyph name="H.color0" format="2">
  <advance width="600"/>
  <unicode hex="0048"/>
  <outline>
    <contour>
      <point x="408" y="0" type="line"/>
      <point x="526" y="0" type="line"/>
      <point x="526" y="715" type="line"/>
      <point x="408" y="715" type="line"/>
    </contour>
  </outline>
</glyph>
<glyph name="H.color2" format="2">
  <advance width="600"/>
  <unicode hex="0048"/>
  <outline>
    <contour>
      <point x="164" y="308" type="line"/>
      <point x="408" y="308" type="line"/>
      <point x="408" y="422" type="line"/>
      <point x="164" y="422" type="line"/>
    </contour>
  </outline>
</glyph>
<glyph name="H" format="2">
  <advance width="570"/>
  <unicode hex="0048"/>
  <anchor x="287" y="715" name="top"/>
  <outline>
    <contour>
      <point x="408" y="0" type="line"/>
      <point x="526" y="0" type="line"/>
      <point x="526" y="715" type="line"/>
      <point x="408" y="715" type="line"/>
    </contour>
    <contour>
      <point x="44" y="0" type="line"/>
      <point x="164" y="0" type="line"/>
      <point x="164" y="715" type="line"/>
      <point x="44" y="715" type="line"/>
    </contour>
    <contour>
      <point x="164" y="308" type="line"/>
      <point x="408" y="308" type="line"/>
      <point x="408" y="422" type="line"/>
      <point x="164" y="422" type="line"/>
    </contour>
  </outline>
</glyph>
<glyph name="I.color0" format="2">
  <advance width="600"/>
  <unicode hex="0049"/>
  <outline>
    <contour>
      <point x="173" y="0" type="line"/>
      <point x="201" y="0" type="line"/>
      <point x="293" y="114" type="line"/>
      <point x="293" y="715" type="line"/>
      <point x="266" y="715" type="line"/>
      <point x="173" y="601" type="line"/>
    </contour>
  </outline>
</glyph>
<glyph name="I.color2" format="2">
  <advance width="600"/>
  <unicode hex="0049"/>
  <outline>
    <contour>
      <point x="201" y="0" type="line"/>
      <point x="419" y="0" type="line"/>
      <point x="419" y="114" type="line"/>
      <point x="293" y="114" type="line"/>
    </contour>
  </outline>
</glyph>
<glyph name="I.color3" format="2">
  <advance width="600"/>
  <unicode hex="0049"/>
  <outline>
    <contour>
      <point x="23" y="601" type="line"/>
      <point x="173" y="601" type="line"/>
      <point x="266" y="715" type="line"/>
      <point x="23" y="715" type="line"/>
    </contour>
  </outline>
</glyph>
<glyph name="I.color4" format="2">
  <advance width="600"/>
  <unicode hex="0049"/>
  <outline>
    <contour>
      <point x="293" y="601" type="line"/>
      <point x="418" y="601" type="line"/>
      <point x="418" y="715" type="line"/>
      <point x="293" y="715" type="line"/>
    </contour>
  </outline>
</glyph>
<glyph name="J.color0" format="2">
  <advance width="600"/>
  <unicode hex="004A"/>
  <outline>
    <contour>
      <point x="224" y="112" type="line"/>
      <point x="342" y="112" type="line"/>
      <point x="342" y="715" type="line"/>
      <point x="316" y="715" type="line"/>
      <point x="224" y="601" type="line"/>
    </contour>
  </outline>
</glyph>
<glyph name="J.color1" format="2">
  <advance width="600"/>
  <unicode hex="004A"/>
  <outline>
    <contour>
      <point x="34" y="-2" type="line"/>
      <point x="249" y="-2" type="line"/>
      <point x="342" y="111" type="line"/>
      <point x="342" y="112" type="line"/>
      <point x="34" y="112" type="line"/>
    </contour>
  </outline>
</glyph>
<glyph name="J.color3" format="2">
  <advance width="600"/>
  <unicode hex="004A"/>
  <outline>
    <contour>
      <point x="342" y="601" type="line"/>
      <point x="432" y="601" type="line"/>
      <point x="432" y="715" type="line"/>
      <point x="342" y="715" type="line"/>
    </contour>
  </outline>
</glyph>
<glyph name="J" format="2">
  <advance width="455.5"/>
  <unicode hex="004A"/>
  <anchor x="253" y="715" name="top"/>
  <outline>
    <contour>
      <point x="224" y="112" type="line"/>
      <point x="342" y="112" type="line"/>
      <point x="342" y="715" type="line"/>
      <point x="316" y="715" type="line"/>
      <point x="224" y="601" type="line"/>
    </contour>
    <contour>
      <point x="34" y="-2" type="line"/>
      <point x="249" y="-2" type="line"/>
      <point x="342" y="111" type="line"/>
      <point x="342" y="112" type="line"/>
      <point x="34" y="112" type="line"/>
    </contour>
    <contour>
      <point x="33" y="601" type="line"/>
      <point x="224" y="601" type="line"/>
      <point x="316" y="715" type="line"/>
      <point x="33" y="715" type="line"/>
    </contour>
    <contour>
      <point x="342" y="601" type="line"/>
      <point x="432" y="601" type="line"/>
      <point x="432" y="715" type="line"/>
      <point x="342" y="715" type="line"/>
    </contour>
  </outline>
</glyph>
<glyph name="K.color0" format="2">
  <advance width="600"/>
  <unicode hex="004B"/>
  <outline>
    <contour>
      <point x="424" y="0" type="line"/>
      <point x="573" y="0" type="line"/>
      <point x="573" y="1" type="line"/>
      <point x="390" y="373" type="line"/>
      <point x="294" y="302" type="line"/>
    </contour>
  </outline>
</glyph>
<glyph name="K.color2" format="2">
  <advance width="600"/>
  <unicode hex="004B"/>
  <outline>
    <contour>
      <point x="164" y="299" type="line"/>
      <point x="373" y="299" type="line"/>
      <point x="373" y="413" type="line"/>
      <point x="164" y="413" type="line"/>
    </contour>
  </outline>
</glyph>
<glyph name="K.color3" format="2">
  <advance width="600"/>
  <unicode hex="004B"/>
  <outline>
    <contour>
      <point x="373" y="299" type="line"/>
      <point x="374" y="299" type="line"/>
      <point x="491" y="398" type="line"/>
      <point x="491" y="715" type="line"/>
      <point x="373" y="715" type="line"/>
    </contour>
  </outline>
</glyph>
<glyph name="K" format="2">
  <advance width="583.5"/>
  <unicode hex="004B"/>
  <anchor x="284" y="0" name="bottom"/>
  <outline>
    <contour>
      <point x="424" y="0" type="line"/>
      <point x="573" y="0" type="line"/>
      <point x="573" y="1" type="line"/>
      <point x="390" y="373" type="line"/>
      <point x="294" y="302" type="line"/>
    </contour>
    <contour>
      <point x="44" y="0" type="line"/>
      <point x="164" y="0" type="line"/>
      <point x="164" y="715" type="line"/>
      <point x="44" y="715" type="line"/>
    </contour>
    <contour>
      <point x="164" y="299" type="line"/>
      <point x="373" y="299" type="line"/>
      <point x="373" y="413" type="line"/>
      <point x="164" y="413" type="line"/>
    </contour>
    <contour>
      <point x="373" y="299" type="line"/>
      <point x="374" y="299" type="line"/>
      <point x="491" y="398" type="line"/>
      <point x="491" y="715" type="line"/>
      <point x="373" y="715" type="line"/>
    </contour>
  </outline>
</glyph>
<glyph name="L.color0" format="2">
  <advance width="600"/>
  <unicode hex="004C"/>
  <outline>
    <contour>
      <point x="157" y="0" type="line"/>
      <point x="493" y="0" type="line"/>
      <point x="493" y="114" type="line"/>
      <point x="44" y="114" type="line"/>
      <point x="44" y="113" type="line"/>
    </contour>
  </outline>
</glyph>
<glyph name="L" format="2">
  <advance width="504.5"/>
  <unicode hex="004C"/>
  <anchor x="278" y="0" name="bottom"/>
  <anchor x="124" y="715" name="top"/>
  <outline>
    <contour>
      <point x="157" y="0" type="line"/>
      <point x="493" y="0" type="line"/>
      <point x="493" y="114" type="line"/>
      <point x="44" y="114" type="line"/>
      <point x="44" y="113" type="line"/>
    </contour>
    <contour>
      <point x="44" y="114" type="line"/>
      <point x="164" y="114" type="line"/>
      <point x="164" y="715" type="line"/>
      <point x="44" y="715" type="line"/>
    </contour>
  </outline>
</glyph>
<glyph name="M.color0" format="2">
  <advance width="600"/>
  <unicode hex="004D"/>
  <outline>
    <contour>
      <point x="364" y="78" type="line"/>
      <point x="435" y="-4" type="line"/>
      <point x="656" y="572" type="line"/>
      <point x="589" y="720" type="line"/>
    </contour>
  </outline>
</glyph>
<glyph name="M.color1" format="2">
  <advance width="600"/>
  <unicode hex="004D"/>
  <outline>
    <contour>
      <point x="44" y="0" type="line"/>
      <point x="164" y="0" type="line"/>
      <point x="164" y="507" type="line"/>
      <point x="44" y="708" type="line"/>
    </contour>
  </outline>
</glyph>
<glyph name="M.color2" format="2">
  <advance width="600"/>
  <unicode hex="004D"/>
  <outline>
    <contour>
      <point x="321" y="-4" type="line"/>
      <point x="435" y="-4" type="line"/>
      <point x="435" y="-3" type="line"/>
      <point x="164" y="720" type="line"/>
      <point x="163" y="720" type="line"/>
      <point x="44" y="708" type="line"/>
    </contour>
  </outline>
</glyph>
<glyph name="M.color3" format="2">
  <advance width="600"/>
  <unicode hex="004D"/>
  <outline>
    <contour>
      <point x="589" y="0" type="line"/>
      <point x="708" y="0" type="line"/>
      <point x="714" y="708" type="line"/>
      <point x="590" y="720" type="line"/>
      <point x="589" y="720" type="line"/>
    </contour>
  </outline>
</glyph>
<glyph name="M" format="2">
  <advance width="758"/>
  <unicode hex="004D"/>
  <outline>
    <contour>
      <point x="364" y="78" type="line"/>
      <point x="435" y="-4" type="line"/>
      <point x="656" y="572" type="line"/>
      <point x="589" y="720" type="line"/>
    </contour>
    <contour>
      <point x="44" y="0" type="line"/>
      <point x="164" y="0" type="line"/>
      <point x="164" y="507" type="line"/>
      <point x="44" y="708" type="line"/>
    </contour>
    <contour>
      <point x="321" y="-4" type="line"/>
      <point x="435" y="-4" type="line"/>
      <point x="435" y="-3" type="line"/>
      <point x="164" y="720" type="line"/>
      <point x="163" y="720" type="line"/>
      <point x="44" y="708" type="line"/>
    </contour>
    <contour>
      <point x="589" y="0" type="line"/>
      <point x="708" y="0" type="line"/>
      <point x="714" y="708" type="line"/>
      <point x="590" y="720" type="line"/>
      <point x="589" y="720" type="line"/>
    </contour>
  </outline>
</glyph>
<glyph name="N.color1" format="2">
  <advance width="600"/>
  <unicode hex="004E"/>
  <outline>
    <contour>
      <point x="44" y="0" type="line"/>
      <point x="164" y="0" type="line"/>
      <point x="164" y="518" type="line"/>
      <point x="44" y="635" type="line"/>
    </contour>
  </outline>
</glyph>
<glyph name="N.color2" format="2">
  <advance width="600"/>
  <unicode hex="004E"/>
  <outline>
    <contour>
      <point x="440" y="-4" type="line"/>
      <point x="441" y="-4" type="line"/>
      <point x="521" y="87" type="line"/>
      <point x="521" y="88" type="line"/>
      <point x="133" y="720" type="line"/>
      <point x="132" y="720" type="line"/>
      <point x="44" y="636" type="line"/>
      <point x="44" y="635" type="line"/>
    </contour>
  </outline>
</glyph>
<glyph name="N" format="2">
  <advance width="565"/>
  <unicode hex="004E"/>
  <anchor x="300" y="0" name="bottom"/>
  <anchor x="292" y="715" name="top"/>
  <outline>
    <contour>
      <point x="521" y="88" type="line"/>
      <point x="521" y="715" type="line"/>
      <point x="402" y="715" type="line"/>
      <point x="402" y="205" type="line"/>
    </contour>
    <contour>
      <point x="44" y="0" type="line"/>
      <point x="164" y="0" type="line"/>
      <point x="164" y="518" type="line"/>
      <point x="44" y="635" type="line"/>
    </contour>
    <contour>
      <point x="440" y="-4" type="line"/>
      <point x="441" y="-4" type="line"/>
      <point x="521" y="87" type="line"/>
      <point x="521" y="88" type="line"/>
      <point x="133" y="720" type="line"/>
      <point x="132" y="720" type="line"/>
      <point x="44" y="636" type="line"/>
      <point x="44" y="635" type="line"/>
    </contour>
  </outline>
</glyph>
<glyph name="P.color0" format="2">
  <advance width="600"/>
  <unicode hex="0050"/>
  <outline>
    <contour>
      <point x="44" y="0" type="line"/>
      <point x="164" y="0" type="line"/>
      <point x="164" y="715" type="line"/>
      <point x="163" y="715" type="line"/>
      <point x="44" y="704" type="line"/>
    </contour>
  </outline>
</glyph>
<glyph name="P.color1" format="2">
  <advance width="600"/>
  <unicode hex="0050"/>
  <outline>
    <contour>
      <point x="164" y="263" type="line"/>
      <point x="398" y="263" type="line"/>
      <point x="398" y="377" type="line"/>
      <point x="164" y="377" type="line"/>
    </contour>
  </outline>
</glyph>
<glyph name="P.color2" format="2">
  <advance width="600"/>
  <unicode hex="0050"/>
  <outline>
    <contour>
      <point x="398" y="263" type="line"/>
      <point x="399" y="263" type="line"/>
      <point x="517" y="373" type="line"/>
      <point x="517" y="601" type="line"/>
      <point x="398" y="601" type="line"/>
    </contour>
  </outline>
</glyph>
<glyph name="P.color3" format="2">
  <advance width="600"/>
  <unicode hex="0050"/>
  <outline>
    <contour>
      <point x="164" y="601" type="line"/>
      <point x="517" y="601" type="line"/>
      <point x="517" y="602" type="line"/>
      <point x="405" y="715" type="line"/>
      <point x="164" y="715" type="line"/>
    </contour>
  </outline>
</glyph>
<glyph name="P" format="2">
  <advance width="533"/>
  <unicode hex="0050"/>
  <outline>
    <contour>
      <point x="44" y="0" type="line"/>
      <point x="164" y="0" type="line"/>
      <point x="164" y="715" type="line"/>
      <point x="163" y="715" type="line"/>
      <point x="44" y="704" type="line"/>
    </contour>
    <contour>
      <point x="164" y="263" type="line"/>
      <point x="398" y="263" type="line"/>
      <point x="398" y="377" type="line"/>
      <point x="164" y="377" type="line"/>
    </contour>
    <contour>
      <point x="398" y="263" type="line"/>
      <point x="399" y="263" type="line"/>
      <point x="517" y="373" type="line"/>
      <point x="517" y="601" type="line"/>
      <point x="398" y="601" type="line"/>
    </contour>
    <contour>
      <point x="164" y="601" type="line"/>
      <point x="517" y="601" type="line"/>
      <point x="517" y="602" type="line"/>
      <point x="405" y="715" type="line"/>
      <point x="164" y="715" type="line"/>
    </contour>
  </outline>
</glyph>
<glyph name="Q.color0" format="2">
  <advance width="600"/>
  <unicode hex="0051"/>
  <outline>
    <contour>
      <point x="478" y="62" type="line"/>
      <point x="511" y="108" type="line"/>
      <point x="511" y="601" type="line"/>
      <point x="392" y="601" type="line"/>
      <point x="392" y="114" type="line"/>
      <point x="437" y="114" type="line"/>
    </contour>
  </outline>
</glyph>
<glyph name="Q.color1" format="2">
  <advance width="600"/>
  <unicode hex="0051"/>
  <outline>
    <contour>
      <point x="151" y="0" type="line"/>
      <point x="585" y="0" type="line"/>
      <point x="585" y="1" type="line"/>
      <point x="472" y="114" type="line"/>
      <point x="39" y="114" type="line"/>
      <point x="39" y="113" type="line"/>
    </contour>
  </outline>
</glyph>
<glyph name="Q.color3" format="2">
  <advance width="600"/>
  <unicode hex="0051"/>
  <outline>
    <contour>
      <point x="158" y="601" type="line"/>
      <point x="511" y="601" type="line"/>
      <point x="511" y="602" type="line"/>
      <point x="398" y="715" type="line"/>
      <point x="158" y="715" type="line"/>
    </contour>
  </outline>
</glyph>
<glyph name="Q" format="2">
  <advance width="577.5"/>
  <unicode hex="0051"/>
  <outline>
    <contour>
      <point x="478" y="62" type="line"/>
      <point x="511" y="108" type="line"/>
      <point x="511" y="601" type="line"/>
      <point x="392" y="601" type="line"/>
      <point x="392" y="114" type="line"/>
      <point x="437" y="114" type="line"/>
    </contour>
    <contour>
      <point x="151" y="0" type="line"/>
      <point x="585" y="0" type="line"/>
      <point x="585" y="1" type="line"/>
      <point x="472" y="114" type="line"/>
      <point x="39" y="114" type="line"/>
      <point x="39" y="113" type="line"/>
    </contour>
    <contour>
      <point x="39" y="114" type="line"/>
      <point x="158" y="114" type="line"/>
      <point x="158" y="715" type="line"/>
      <point x="157" y="715" type="line"/>
      <point x="39" y="600" type="line"/>
    </contour>
    <contour>
      <point x="158" y="601" type="line"/>
      <point x="511" y="601" type="line"/>
      <point x="511" y="602" type="line"/>
      <point x="398" y="715" type="line"/>
      <point x="158" y="715" type="line"/>
    </contour>
  </outline>
</glyph>
<glyph name="S.color2" format="2">
  <advance width="600"/>
  <unicode hex="0053"/>
  <outline>
    <contour>
      <point x="147" y="308" type="line"/>
      <point x="373" y="308" type="line"/>
      <point x="373" y="422" type="line"/>
      <point x="34" y="422" type="line"/>
      <point x="34" y="421" type="line"/>
    </contour>
  </outline>
</glyph>
<glyph name="S.color3" format="2">
  <advance width="600"/>
  <unicode hex="0053"/>
  <outline>
    <contour>
      <point x="34" y="422" type="line"/>
      <point x="154" y="422" type="line"/>
      <point x="154" y="715" type="line"/>
      <point x="153" y="715" type="line"/>
      <point x="34" y="600" type="line"/>
    </contour>
  </outline>
</glyph>
<glyph name="S" format="2">
  <advance width="525"/>
  <unicode hex="0053"/>
  <anchor x="267" y="0" name="bottom"/>
  <anchor x="272" y="715" name="top"/>
  <outline>
    <contour>
      <point x="154" y="601" type="line"/>
      <point x="491" y="601" type="line"/>
      <point x="491" y="602" type="line"/>
      <point x="379" y="715" type="line"/>
      <point x="154" y="715" type="line"/>
    </contour>
    <contour>
      <point x="147" y="0" type="line"/>
      <point x="373" y="0" type="line"/>
      <point x="373" y="114" type="line"/>
      <point x="34" y="114" type="line"/>
      <point x="34" y="113" type="line"/>
    </contour>
    <contour>
      <point x="147" y="308" type="line"/>
      <point x="373" y="308" type="line"/>
      <point x="373" y="422" type="line"/>
      <point x="34" y="422" type="line"/>
      <point x="34" y="421" type="line"/>
    </contour>
    <contour>
      <point x="34" y="422" type="line"/>
      <point x="154" y="422" type="line"/>
      <point x="154" y="715" type="line"/>
      <point x="153" y="715" type="line"/>
      <point x="34" y="600" type="line"/>
    </contour>
    <contour>
      <point x="373" y="0" type="line"/>
      <point x="374" y="0" type="line"/>
      <point x="491" y="108" type="line"/>
      <point x="491" y="311" type="line"/>
      <point x="374" y="422" type="line"/>
      <point x="373" y="422" type="line"/>
    </contour>
  </outline>
</glyph>
<glyph name="T.color1" format="2">
  <advance width="600"/>
  <unicode hex="0054"/>
  <outline>
    <contour>
      <point x="24" y="601" type="line"/>
      <point x="225" y="601" type="line"/>
      <point x="317" y="715" type="line"/>
      <point x="24" y="715" type="line"/>
    </contour>
  </outline>
</glyph>
<glyph name="T" format="2">
  <advance width="578.5"/>
  <unicode hex="0054"/>
  <anchor x="286" y="0" name="bottom"/>
  <anchor x="294" y="365" name="stroke"/>
  <anchor x="297" y="715" name="top"/>
  <outline>
    <contour>
      <point x="225" y="0" type="line"/>
      <point x="345" y="0" type="line"/>
      <point x="345" y="715" type="line"/>
      <point x="317" y="715" type="line"/>
      <point x="225" y="601" type="line"/>
    </contour>
    <contour>
      <point x="24" y="601" type="line"/>
      <point x="225" y="601" type="line"/>
      <point x="317" y="715" type="line"/>
      <point x="24" y="715" type="line"/>
    </contour>
    <contour>
      <point x="345" y="601" type="line"/>
      <point x="555" y="601" type="line"/>
      <point x="555" y="715" type="line"/>
      <point x="345" y="715" type="line"/>
    </contour>
  </outline>
</glyph>
<glyph name="U" format="2">
  <advance width="555"/>
  <unicode hex="0055"/>
  <anchor x="288" y="0" name="bottom"/>
  <anchor x="504" y="715" name="horn"/>
  <anchor x="290" y="716" name="top"/>
  <outline>
    <contour>
      <point x="392" y="0" type="line"/>
      <point x="393" y="0" type="line"/>
      <point x="511" y="116" type="line"/>
      <point x="511" y="715" type="line"/>
      <point x="392" y="715" type="line"/>
    </contour>
    <contour>
      <point x="157" y="0" type="line"/>
      <point x="392" y="0" type="line"/>
      <point x="392" y="114" type="line"/>
      <point x="44" y="114" type="line"/>
      <point x="44" y="113" type="line"/>
    </contour>
    <contour>
      <point x="44" y="114" type="line"/>
      <point x="164" y="114" type="line"/>
      <point x="164" y="715" type="line"/>
      <point x="44" y="715" type="line"/>
    </contour>
  </outline>
</glyph>
<glyph name="V.color0" format="2">
  <advance width="600"/>
  <unicode hex="0056"/>
  <outline>
    <contour>
      <point x="212" y="0" type="line"/>
      <point x="213" y="0" type="line"/>
      <point x="294" y="102" type="line"/>
      <point x="146" y="715" type="line"/>
      <point x="11" y="715" type="line"/>
      <point x="11" y="714" type="line"/>
    </contour>
  </outline>
</glyph>
<glyph name="V.color1" format="2">
  <advance width="600"/>
  <unicode hex="0056"/>
  <outline>
    <contour>
      <point x="213" y="0" type="line"/>
      <point x="327" y="0" type="line"/>
      <point x="540" y="714" type="line"/>
      <point x="540" y="715" type="line"/>
      <point x="405" y="715" type="line"/>
    </contour>
  </outline>
</glyph>
<glyph name="W.color2" format="2">
  <advance width="600"/>
  <unicode hex="0057"/>
  <outline>
    <contour>
      <point x="179" y="0" type="line"/>
      <point x="281" y="0" type="line"/>
      <point x="475" y="715" type="line"/>
      <point x="361" y="715" type="line"/>
    </contour>
  </outline>
</glyph>
<glyph name="W.color3" format="2">
  <advance width="600"/>
  <unicode hex="0057"/>
  <outline>
    <contour>
      <point x="550" y="0" type="line"/>
      <point x="650" y="0" type="line"/>
      <point x="825" y="714" type="line"/>
      <point x="825" y="715" type="line"/>
      <point x="692" y="715" type="line"/>
    </contour>
  </outline>
</glyph>
<glyph name="X.color0" format="2">
  <advance width="600"/>
  <unicode hex="0058"/>
  <outline>
    <contour>
      <point x="196" y="358" type="line"/>
      <point x="197" y="358" type="line"/>
      <point x="271" y="449" type="line"/>
      <point x="158" y="715" type="line"/>
      <point x="25" y="715" type="line"/>
      <point x="25" y="714" type="line"/>
    </contour>
  </outline>
</glyph>
<glyph name="X.color1" format="2">
  <advance width="600"/>
  <unicode hex="0058"/>
  <outline>
    <contour>
      <point x="360" y="0" type="line"/>
      <point x="495" y="0" type="line"/>
      <point x="495" y="1" type="line"/>
      <point x="324" y="358" type="line"/>
      <point x="323" y="358" type="line"/>
      <point x="248" y="266" type="line"/>
    </contour>
  </outline>
</glyph>
<glyph name="X.color2" format="2">
  <advance width="600"/>
  <unicode hex="0058"/>
  <outline>
    <contour>
      <point x="17" y="0" type="line"/>
      <point x="155" y="0" type="line"/>
      <point x="323" y="358" type="line"/>
      <point x="196" y="358" type="line"/>
      <point x="17" y="1" type="line"/>
    </contour>
  </outline>
</glyph>
<glyph name="X.color3" format="2">
  <advance width="600"/>
  <unicode hex="0058"/>
  <outline>
    <contour>
      <point x="197" y="358" type="line"/>
      <point x="324" y="358" type="line"/>
      <point x="500" y="714" type="line"/>
      <point x="500" y="715" type="line"/>
      <point x="362" y="715" type="line"/>
    </contour>
  </outline>
</glyph>
<glyph name="X" format="2">
  <advance width="517"/>
  <unicode hex="0058"/>
  <outline>
    <contour>
      <point x="196" y="358" type="line"/>
      <point x="197" y="358" type="line"/>
      <point x="271" y="449" type="line"/>
      <point x="158" y="715" type="line"/>
      <point x="25" y="715" type="line"/>
      <point x="25" y="714" type="line"/>
    </contour>
    <contour>
      <point x="360" y="0" type="line"/>
      <point x="495" y="0" type="line"/>
      <point x="495" y="1" type="line"/>
      <point x="324" y="358" type="line"/>
      <point x="323" y="358" type="line"/>
      <point x="248" y="266" type="line"/>
    </contour>
    <contour>
      <point x="17" y="0" type="line"/>
      <point x="155" y="0" type="line"/>
      <point x="323" y="358" type="line"/>
      <point x="196" y="358" type="line"/>
      <point x="17" y="1" type="line"/>
    </contour>
    <contour>
      <point x="197" y="358" type="line"/>
      <point x="324" y="358" type="line"/>
      <point x="500" y="714" type="line"/>
      <point x="500" y="715" type="line"/>
      <point x="362" y="715" type="line"/>
    </contour>
  </outline>
</glyph>
<glyph name="Y.color0" format="2">
  <advance width="600"/>
  <unicode hex="0059"/>
  <outline>
    <contour>
      <point x="205" y="317" type="line"/>
      <point x="206" y="317" type="line"/>
      <point x="269" y="412" type="line"/>
      <point x="140" y="715" type="line"/>
      <point x="11" y="715" type="line"/>
      <point x="11" y="714" type="line"/>
    </contour>
  </outline>
</glyph>
<glyph name="Y.color1" format="2">
  <advance width="600"/>
  <unicode hex="0059"/>
  <outline>
    <contour>
      <point x="205" y="0" type="line"/>
      <point x="324" y="0" type="line"/>
      <point x="324" y="317" type="line"/>
      <point x="205" y="317" type="line"/>
    </contour>
  </outline>
</glyph>
<glyph name="Y.color2" format="2">
  <advance width="600"/>
  <unicode hex="0059"/>
  <outline>
    <contour>
      <point x="206" y="317" type="line"/>
      <point x="324" y="317" type="line"/>
      <point x="503" y="714" type="line"/>
      <point x="503" y="715" type="line"/>
      <point x="374" y="715" type="line"/>
    </contour>
  </outline>
</glyph>
<glyph name="Y" format="2">
  <advance width="514"/>
  <unicode hex="0059"/>
  <anchor x="264" y="0" name="bottom"/>
  <anchor x="264" y="715" name="top"/>
  <outline>
    <contour>
      <point x="205" y="317" type="line"/>
      <point x="206" y="317" type="line"/>
      <point x="269" y="412" type="line"/>
      <point x="140" y="715" type="line"/>
      <point x="11" y="715" type="line"/>
      <point x="11" y="714" type="line"/>
    </contour>
    <contour>
      <point x="205" y="0" type="line"/>
      <point x="324" y="0" type="line"/>
      <point x="324" y="317" type="line"/>
      <point x="205" y="317" type="line"/>
    </contour>
    <contour>
      <point x="206" y="317" type="line"/>
      <point x="324" y="317" type="line"/>
      <point x="503" y="714" type="line"/>
      <point x="503" y="715" type="line"/>
      <point x="374" y="715" type="line"/>
    </contour>
  </outline>
</glyph>
<glyph name="Z.color0" format="2">
  <advance width="600"/>
  <unicode hex="005A"/>
  <outline>
    <contour>
      <point x="34" y="601" type="line"/>
      <point x="370" y="601" type="line"/>
      <point x="385" y="715" type="line"/>
      <point x="34" y="715" type="line"/>
    </contour>
  </outline>
</glyph>
<glyph name="Z.color2" format="2">
  <advance width="600"/>
  <unicode hex="005A"/>
  <outline>
    <contour>
      <point x="49" y="0" type="line"/>
      <point x="470" y="0" type="line"/>
      <point x="470" y="114" type="line"/>
      <point x="37" y="114" type="line"/>
    </contour>
  </outline>
</glyph>
<glyph name="Z" format="2">
  <advance width="503.5"/>
  <unicode hex="005A"/>
  <anchor x="253" y="715" name="top"/>
  <outline>
    <contour>
      <point x="34" y="601" type="line"/>
      <point x="370" y="601" type="line"/>
      <point x="385" y="715" type="line"/>
      <point x="34" y="715" type="line"/>
    </contour>
    <contour>
      <point x="150" y="66" type="line"/>
      <point x="467" y="616" type="line"/>
      <point x="385" y="715" type="line"/>
      <point x="37" y="115" type="line"/>
      <point x="37" y="114" type="line"/>
    </contour>
    <contour>
      <point x="49" y="0" type="line"/>
      <point x="470" y="0" type="line"/>
      <point x="470" y="114" type="line"/>
      <point x="37" y="114" type="line"/>
    </contour>
  </outline>
</glyph>
<glyph name="bracketleft.color0" format="2">
  <advance width="600"/>
  <unicode hex="005B"/>
  <outline>
    <contour>
      <point x="54" y="14" type="line"/>
      <point x="173" y="14" type="line"/>
      <point x="173" y="715" type="line"/>
      <point x="54" y="715" type="line"/>
    </contour>
  </outline>
</glyph>
<glyph name="bracketleft.color2" format="2">
  <advance width="600"/>
  <unicode hex="005B"/>
  <outline>
    <contour>
      <point x="173" y="601" type="line"/>
      <point x="349" y="601" type="line"/>
      <point x="349" y="715" type="line"/>
      <point x="173" y="715" type="line"/>
    </contour>
  </outline>
</glyph>
<glyph name="bracketleft" format="2">
  <advance width="376"/>
  <unicode hex="005B"/>
  <outline>
    <contour>
      <point x="54" y="14" type="line"/>
      <point x="173" y="14" type="line"/>
      <point x="173" y="715" type="line"/>
      <point x="54" y="715" type="line"/>
    </contour>
    <contour>
      <point x="54" y="-100" type="line"/>
      <point x="349" y="-100" type="line"/>
      <point x="349" y="14" type="line"/>
      <point x="54" y="14" type="line"/>
    </contour>
    <contour>
      <point x="173" y="601" type="line"/>
      <point x="349" y="601" type="line"/>
      <point x="349" y="715" type="line"/>
      <point x="173" y="715" type="line"/>
    </contour>
  </outline>
</glyph>
<glyph name="backslash" format="2">
  <advance width="398"/>
  <unicode hex="005C"/>
  <outline>
    <contour>
      <point x="272" y="-100" type="line"/>
      <point x="401" y="-100" type="line"/>
      <point x="401" y="-99" type="line"/>
      <point x="131" y="791" type="line"/>
      <point x="3" y="791" type="line"/>
      <point x="3" y="790" type="line"/>
    </contour>
  </outline>
</glyph>
<glyph name="bracketright.color0" format="2">
  <advance width="600"/>
  <unicode hex="005D"/>
  <outline>
    <contour>
      <point x="203" y="-100" type="line"/>
      <point x="323" y="-100" type="line"/>
      <point x="323" y="601" type="line"/>
      <point x="203" y="601" type="line"/>
    </contour>
  </outline>
</glyph>
<glyph name="bracketright.color2" format="2">
  <advance width="600"/>
  <unicode hex="005D"/>
  <outline>
    <contour>
      <point x="28" y="601" type="line"/>
      <point x="323" y="601" type="line"/>
      <point x="323" y="715" type="line"/>
      <point x="28" y="715" type="line"/>
    </contour>
  </outline>
</glyph>
<glyph name="bracketright" format="2">
  <advance width="376"/>
  <unicode hex="005D"/>
  <outline>
    <contour>
      <point x="203" y="-100" type="line"/>
      <point x="323" y="-100" type="line"/>
      <point x="323" y="601" type="line"/>
      <point x="203" y="601" type="line"/>
    </contour>
    <contour>
      <point x="28" y="-100" type="line"/>
      <point x="203" y="-100" type="line"/>
      <point x="203" y="14" type="line"/>
      <point x="28" y="14" type="line"/>
    </contour>
    <contour>
      <point x="28" y="601" type="line"/>
      <point x="323" y="601" type="line"/>
      <point x="323" y="715" type="line"/>
      <point x="28" y="715" type="line"/>
    </contour>
  </outline>
</glyph>
<glyph name="asciicircum.color0" format="2">
  <advance width="600"/>
  <unicode hex="005E"/>
  <outline>
    <contour>
      <point x="44" y="388" type="line"/>
      <point x="170" y="388" type="line"/>
      <point x="320" y="715" type="line"/>
      <point x="208" y="715" type="line"/>
      <point x="44" y="389" type="line"/>
    </contour>
  </outline>
</glyph>
<glyph name="asciicircum" format="2">
  <advance width="513"/>
  <unicode hex="005E"/>
  <outline>
    <contour>
      <point x="44" y="388" type="line"/>
      <point x="170" y="388" type="line"/>
      <point x="320" y="715" type="line"/>
      <point x="208" y="715" type="line"/>
      <point x="44" y="389" type="line"/>
    </contour>
    <contour>
      <point x="344" y="388" type="line"/>
      <point x="470" y="388" type="line"/>
      <point x="470" y="389" type="line"/>
      <point x="320" y="715" type="line"/>
      <point x="208" y="715" type="line"/>
    </contour>
  </outline>
</glyph>
<glyph name="underscore" format="2">
  <advance width="733"/>
  <unicode hex="005F"/>
  <outline>
    <contour>
      <point x="44" y="-104" type="line"/>
      <point x="689" y="-104" type="line"/>
      <point x="689" y="0" type="line"/>
      <point x="44" y="0" type="line"/>
    </contour>
  </outline>
</glyph>
<glyph name="grave" format="2">
  <advance width="600"/>
  <unicode hex="0060"/>
  <anchor x="324" y="515" name="_top"/>
  <outline>
    <contour>
      <point x="296" y="580" type="line"/>
      <point x="361" y="580" type="line"/>
      <point x="331" y="760" type="line"/>
      <point x="227" y="760" type="line"/>
      <point x="227" y="759" type="line"/>
    </contour>
  </outline>
</glyph>
<glyph name="a" format="2">
  <advance width="512"/>
  <unicode hex="0061"/>
  <anchor x="272" y="0" name="bottom"/>
  <anchor x="277" y="515" name="top"/>
  <outline>
    <contour>
      <point x="161" y="401" type="line"/>
      <point x="470" y="401" type="line"/>
      <point x="470" y="402" type="line"/>
      <point x="405" y="515" type="line"/>
      <point x="161" y="515" type="line"/>
    </contour>
    <contour>
      <point x="108" y="0" type="line"/>
      <point x="351" y="0" type="line"/>
      <point x="351" y="114" type="line"/>
      <point x="43" y="114" type="line"/>
      <point x="43" y="113" type="line"/>
    </contour>
    <contour>
      <point x="43" y="114" type="line"/>
      <point x="161" y="114" type="line"/>
      <point x="161" y="515" type="line"/>
      <point x="160" y="515" type="line"/>
      <point x="43" y="450" type="line"/>
    </contour>
    <contour>
      <point x="351" y="0" type="line"/>
      <point x="470" y="0" type="line"/>
      <point x="470" y="401" type="line"/>
      <point x="351" y="401" type="line"/>
    </contour>
  </outline>
</glyph>
<glyph name="b.color0" format="2">
  <advance width="600"/>
  <unicode hex="0062"/>
  <outline>
    <contour>
      <point x="43" y="114" type="line"/>
      <point x="162" y="114" type="line"/>
      <point x="162" y="763" type="line"/>
      <point x="43" y="763" type="line"/>
    </contour>
  </outline>
</glyph>
<glyph name="b.color1" format="2">
  <advance width="600"/>
  <unicode hex="0062"/>
  <outline>
    <contour>
      <point x="106" y="0" type="line"/>
      <point x="342" y="0" type="line"/>
      <point x="342" y="114" type="line"/>
      <point x="43" y="114" type="line"/>
      <point x="43" y="113" type="line"/>
    </contour>
  </outline>
</glyph>
<glyph name="b.color2" format="2">
  <advance width="600"/>
  <unicode hex="0062"/>
  <outline>
    <contour>
      <point x="342" y="0" type="line"/>
      <point x="343" y="0" type="line"/>
      <point x="460" y="65" type="line"/>
      <point x="460" y="401" type="line"/>
      <point x="342" y="401" type="line"/>
    </contour>
  </outline>
</glyph>
<glyph name="b.color3" format="2">
  <advance width="600"/>
  <unicode hex="0062"/>
  <outline>
    <contour>
      <point x="162" y="401" type="line"/>
      <point x="460" y="401" type="line"/>
      <point x="460" y="402" type="line"/>
      <point x="398" y="515" type="line"/>
      <point x="162" y="515" type="line"/>
    </contour>
  </outline>
</glyph>
<glyph name="b" format="2">
  <advance width="503"/>
  <unicode hex="0062"/>
  <outline>
    <contour>
      <point x="43" y="114" type="line"/>
      <point x="162" y="114" type="line"/>
      <point x="162" y="763" type="line"/>
      <point x="43" y="763" type="line"/>
    </contour>
    <contour>
      <point x="106" y="0" type="line"/>
      <point x="342" y="0" type="line"/>
      <point x="342" y="114" type="line"/>
      <point x="43" y="114" type="line"/>
      <point x="43" y="113" type="line"/>
    </contour>
    <contour>
      <point x="342" y="0" type="line"/>
      <point x="343" y="0" type="line"/>
      <point x="460" y="65" type="line"/>
      <point x="460" y="401" type="line"/>
      <point x="342" y="401" type="line"/>
    </contour>
    <contour>
      <point x="162" y="401" type="line"/>
      <point x="460" y="401" type="line"/>
      <point x="460" y="402" type="line"/>
      <point x="398" y="515" type="line"/>
      <point x="162" y="515" type="line"/>
    </contour>
  </outline>
</glyph>
<glyph name="c.color0" format="2">
  <advance width="600"/>
  <unicode hex="0063"/>
  <outline>
    <contour>
      <point x="110" y="0" type="line"/>
      <point x="377" y="0" type="line"/>
      <point x="442" y="113" type="line"/>
      <point x="442" y="114" type="line"/>
      <point x="45" y="114" type="line"/>
      <point x="45" y="113" type="line"/>
    </contour>
  </outline>
</glyph>
<glyph name="c.color1" format="2">
  <advance width="600"/>
  <unicode hex="0063"/>
  <outline>
    <contour>
      <point x="45" y="114" type="line"/>
      <point x="164" y="114" type="line"/>
      <point x="164" y="515" type="line"/>
      <point x="163" y="515" type="line"/>
      <point x="45" y="450" type="line"/>
    </contour>
  </outline>
</glyph>
<glyph name="c" format="2">
  <advance width="462"/>
  <unicode hex="0063"/>
  <anchor x="256" y="0" name="bottom"/>
  <anchor x="264" y="515" name="top"/>
  <outline>
    <contour>
      <point x="110" y="0" type="line"/>
      <point x="377" y="0" type="line"/>
      <point x="442" y="113" type="line"/>
      <point x="442" y="114" type="line"/>
      <point x="45" y="114" type="line"/>
      <point x="45" y="113" type="line"/>
    </contour>
    <contour>
      <point x="45" y="114" type="line"/>
      <point x="164" y="114" type="line"/>
      <point x="164" y="515" type="line"/>
      <point x="163" y="515" type="line"/>
      <point x="45" y="450" type="line"/>
    </contour>
    <contour>
      <point x="164" y="401" type="line"/>
      <point x="447" y="401" type="line"/>
      <point x="447" y="402" type="line"/>
      <point x="382" y="515" type="line"/>
      <point x="164" y="515" type="line"/>
    </contour>
  </outline>
</glyph>
<glyph name="d.color0" format="2">
  <advance width="600"/>
  <unicode hex="0064"/>
  <outline>
    <contour>
      <point x="464" y="403" type="line"/>
      <point x="465" y="403" type="line"/>
      <point x="465" y="763" type="line"/>
      <point x="346" y="763" type="line"/>
      <point x="346" y="515" type="line"/>
    </contour>
  </outline>
</glyph>
<glyph name="d.color1" format="2">
  <advance width="600"/>
  <unicode hex="0064"/>
  <outline>
    <contour>
      <point x="167" y="401" type="line"/>
      <point x="465" y="401" type="line"/>
      <point x="465" y="402" type="line"/>
      <point x="373" y="515" type="line"/>
      <point x="167" y="515" type="line"/>
    </contour>
  </outline>
</glyph>
<glyph name="d.color2" format="2">
  <advance width="600"/>
  <unicode hex="0064"/>
  <outline>
    <contour>
      <point x="110" y="0" type="line"/>
      <point x="346" y="0" type="line"/>
      <point x="346" y="114" type="line"/>
      <point x="47" y="114" type="line"/>
      <point x="47" y="113" type="line"/>
    </contour>
  </outline>
</glyph>
<glyph name="d.color3" format="2">
  <advance width="600"/>
  <unicode hex="0064"/>
  <outline>
    <contour>
      <point x="47" y="114" type="line"/>
      <point x="167" y="114" type="line"/>
      <point x="167" y="515" type="line"/>
      <point x="166" y="515" type="line"/>
      <point x="47" y="450" type="line"/>
    </contour>
  </outline>
</glyph>
<glyph name="d" format="2">
  <advance width="507.5"/>
  <unicode hex="0064"/>
  <anchor x="319" y="617" name="stroke"/>
  <anchor x="415" y="763" name="top"/>
  <outline>
    <contour>
      <point x="464" y="403" type="line"/>
      <point x="465" y="403" type="line"/>
      <point x="465" y="763" type="line"/>
      <point x="346" y="763" type="line"/>
      <point x="346" y="515" type="line"/>
    </contour>
    <contour>
      <point x="167" y="401" type="line"/>
      <point x="465" y="401" type="line"/>
      <point x="465" y="402" type="line"/>
      <point x="373" y="515" type="line"/>
      <point x="167" y="515" type="line"/>
    </contour>
    <contour>
      <point x="110" y="0" type="line"/>
      <point x="346" y="0" type="line"/>
      <point x="346" y="114" type="line"/>
      <point x="47" y="114" type="line"/>
      <point x="47" y="113" type="line"/>
    </contour>
    <contour>
      <point x="47" y="114" type="line"/>
      <point x="167" y="114" type="line"/>
      <point x="167" y="515" type="line"/>
      <point x="166" y="515" type="line"/>
      <point x="47" y="450" type="line"/>
    </contour>
    <contour>
      <point x="346" y="0" type="line"/>
      <point x="347" y="0" type="line"/>
      <point x="465" y="65" type="line"/>
      <point x="465" y="401" type="line"/>
      <point x="346" y="401" type="line"/>
    </contour>
  </outline>
</glyph>
<glyph name="e.color1" format="2">
  <advance width="600"/>
  <unicode hex="0065"/>
  <outline>
    <contour>
      <point x="47" y="112" type="line"/>
      <point x="167" y="112" type="line"/>
      <point x="167" y="515" type="line"/>
      <point x="166" y="515" type="line"/>
      <point x="47" y="450" type="line"/>
    </contour>
  </outline>
</glyph>
<glyph name="f.color0" format="2">
  <advance width="600"/>
  <unicode hex="0066"/>
  <outline>
    <contour>
      <point x="161" y="263" type="line"/>
      <point x="356" y="263" type="line"/>
      <point x="356" y="377" type="line"/>
      <point x="44" y="377" type="line"/>
    </contour>
  </outline>
</glyph>
<glyph name="f.color1" format="2">
  <advance width="600"/>
  <unicode hex="0066"/>
  <outline>
    <contour>
      <point x="43" y="0" type="line"/>
      <point x="161" y="0" type="line"/>
      <point x="161" y="263" type="line"/>
      <point x="44" y="377" type="line"/>
      <point x="43" y="377" type="line"/>
    </contour>
  </outline>
</glyph>
<glyph name="f.color2" format="2">
  <advance width="600"/>
  <unicode hex="0066"/>
  <outline>
    <contour>
      <point x="43" y="377" type="line"/>
      <point x="161" y="377" type="line"/>
      <point x="161" y="702" type="line"/>
      <point x="160" y="702" type="line"/>
      <point x="43" y="637" type="line"/>
    </contour>
  </outline>
</glyph>
<glyph name="f.color3" format="2">
  <advance width="600"/>
  <unicode hex="0066"/>
  <outline>
    <contour>
      <point x="161" y="588" type="line"/>
      <point x="367" y="588" type="line"/>
      <point x="367" y="589" type="line"/>
      <point x="344" y="702" type="line"/>
      <point x="161" y="702" type="line"/>
    </contour>
  </outline>
</glyph>
<glyph name="f" format="2">
  <advance width="387.5"/>
  <unicode hex="0066"/>
  <outline>
    <contour>
      <point x="161" y="263" type="line"/>
      <point x="356" y="263" type="line"/>
      <point x="356" y="377" type="line"/>
      <point x="44" y="377" type="line"/>
    </contour>
    <contour>
      <point x="43" y="0" type="line"/>
      <point x="161" y="0" type="line"/>
      <point x="161" y="263" type="line"/>
      <point x="44" y="377" type="line"/>
      <point x="43" y="377" type="line"/>
    </contour>
    <contour>
      <point x="43" y="377" type="line"/>
      <point x="161" y="377" type="line"/>
      <point x="161" y="702" type="line"/>
      <point x="160" y="702" type="line"/>
      <point x="43" y="637" type="line"/>
    </contour>
    <contour>
      <point x="161" y="588" type="line"/>
      <point x="367" y="588" type="line"/>
      <point x="367" y="589" type="line"/>
      <point x="344" y="702" type="line"/>
      <point x="161" y="702" type="line"/>
    </contour>
  </outline>
</glyph>
<glyph name="g.color1" format="2">
  <advance width="600"/>
  <unicode hex="0067"/>
  <outline>
    <contour>
      <point x="94" y="-203" type="line"/>
      <point x="327" y="-203" type="line"/>
      <point x="327" y="-101" type="line"/>
      <point x="43" y="-101" type="line"/>
      <point x="43" y="-102" type="line"/>
    </contour>
  </outline>
</glyph>
<glyph name="g.color2" format="2">
  <advance width="600"/>
  <unicode hex="0067"/>
  <outline>
    <contour>
      <point x="106" y="0" type="line"/>
      <point x="327" y="0" type="line"/>
      <point x="327" y="114" type="line"/>
      <point x="43" y="114" type="line"/>
      <point x="43" y="113" type="line"/>
    </contour>
  </outline>
</glyph>
<glyph name="g" format="2">
  <advance width="513.5"/>
  <unicode hex="0067"/>
  <anchor x="291" y="515" name="top"/>
  <outline>
    <contour>
      <point x="161" y="401" type="line"/>
      <point x="455" y="401" type="line"/>
      <point x="508" y="514" type="line"/>
      <point x="508" y="515" type="line"/>
      <point x="161" y="515" type="line"/>
    </contour>
    <contour>
      <point x="94" y="-203" type="line"/>
      <point x="327" y="-203" type="line"/>
      <point x="327" y="-101" type="line"/>
      <point x="43" y="-101" type="line"/>
      <point x="43" y="-102" type="line"/>
    </contour>
    <contour>
      <point x="106" y="0" type="line"/>
      <point x="327" y="0" type="line"/>
      <point x="327" y="114" type="line"/>
      <point x="43" y="114" type="line"/>
      <point x="43" y="113" type="line"/>
    </contour>
    <contour>
      <point x="43" y="114" type="line"/>
      <point x="161" y="114" type="line"/>
      <point x="161" y="515" type="line"/>
      <point x="160" y="515" type="line"/>
      <point x="43" y="450" type="line"/>
    </contour>
    <contour>
      <point x="327" y="-203" type="line"/>
      <point x="328" y="-203" type="line"/>
      <point x="446" y="-141" type="line"/>
      <point x="446" y="401" type="line"/>
      <point x="327" y="401" type="line"/>
    </contour>
  </outline>
</glyph>
<glyph name="h.color2" format="2">
  <advance width="600"/>
  <unicode hex="0068"/>
  <outline>
    <contour>
      <point x="161" y="401" type="line"/>
      <point x="459" y="401" type="line"/>
      <point x="459" y="402" type="line"/>
      <point x="394" y="515" type="line"/>
      <point x="161" y="515" type="line"/>
    </contour>
  </outline>
</glyph>
<glyph name="h" format="2">
  <advance width="502"/>
  <unicode hex="0068"/>
  <anchor x="190" y="613" name="stroke"/>
  <anchor x="324" y="515" name="top"/>
  <outline>
    <contour>
      <point x="43" y="0" type="line"/>
      <point x="161" y="0" type="line"/>
      <point x="161" y="763" type="line"/>
      <point x="43" y="763" type="line"/>
    </contour>
    <contour>
      <point x="341" y="-4" type="line"/>
      <point x="342" y="-4" type="line"/>
      <point x="459" y="31" type="line"/>
      <point x="459" y="401" type="line"/>
      <point x="341" y="401" type="line"/>
    </contour>
    <contour>
      <point x="161" y="401" type="line"/>
      <point x="459" y="401" type="line"/>
      <point x="459" y="402" type="line"/>
      <point x="394" y="515" type="line"/>
      <point x="161" y="515" type="line"/>
    </contour>
  </outline>
</glyph>
<glyph name="i.color1" format="2">
  <advance width="600"/>
  <unicode hex="0069"/>
  <outline>
    <contour>
      <point x="47" y="506" type="line"/>
      <point x="48" y="506" type="line"/>
      <point x="167" y="571" type="line"/>
      <point x="167" y="648" type="line"/>
      <point x="47" y="648" type="line"/>
    </contour>
  </outline>
</glyph>
<glyph name="i" format="2">
  <advance width="214"/>
  <unicode hex="0069"/>
  <anchor x="107" y="0" name="bottom"/>
  <outline>
    <contour>
      <point x="47" y="0" type="line"/>
      <point x="167" y="0" type="line"/>
      <point x="167" y="503" type="line"/>
      <point x="166" y="503" type="line"/>
      <point x="47" y="437" type="line"/>
    </contour>
    <contour>
      <point x="47" y="506" type="line"/>
      <point x="48" y="506" type="line"/>
      <point x="167" y="571" type="line"/>
      <point x="167" y="648" type="line"/>
      <point x="47" y="648" type="line"/>
    </contour>
  </outline>
</glyph>
<glyph name="j.color0" format="2">
  <advance width="600"/>
  <unicode hex="006A"/>
  <outline>
    <contour>
      <point x="56" y="-203" type="line"/>
      <point x="57" y="-203" type="line"/>
      <point x="165" y="-138" type="line"/>
      <point x="165" y="503" type="line"/>
      <point x="164" y="503" type="line"/>
      <point x="56" y="437" type="line"/>
    </contour>
  </outline>
</glyph>
<glyph name="j.color2" format="2">
  <advance width="600"/>
  <unicode hex="006A"/>
  <outline>
    <contour>
      <point x="56" y="506" type="line"/>
      <point x="57" y="506" type="line"/>
      <point x="165" y="571" type="line"/>
      <point x="165" y="648" type="line"/>
      <point x="56" y="648" type="line"/>
    </contour>
  </outline>
</glyph>
<glyph name="j" format="2">
  <advance width="212.5"/>
  <unicode hex="006A"/>
  <outline>
    <contour>
      <point x="56" y="-203" type="line"/>
      <point x="57" y="-203" type="line"/>
      <point x="165" y="-138" type="line"/>
      <point x="165" y="503" type="line"/>
      <point x="164" y="503" type="line"/>
      <point x="56" y="437" type="line"/>
    </contour>
    <contour>
      <point x="-81" y="-203" type="line"/>
      <point x="56" y="-203" type="line"/>
      <point x="56" y="-101" type="line"/>
      <point x="-81" y="-101" type="line"/>
    </contour>
    <contour>
      <point x="56" y="506" type="line"/>
      <point x="57" y="506" type="line"/>
      <point x="165" y="571" type="line"/>
      <point x="165" y="648" type="line"/>
      <point x="56" y="648" type="line"/>
    </contour>
  </outline>
</glyph>
<glyph name="k.color1" format="2">
  <advance width="600"/>
  <unicode hex="006B"/>
  <outline>
    <contour>
      <point x="353" y="0" type="line"/>
      <point x="471" y="0" type="line"/>
      <point x="471" y="273" type="line"/>
      <point x="353" y="273" type="line"/>
    </contour>
  </outline>
</glyph>
<glyph name="k.color2" format="2">
  <advance width="600"/>
  <unicode hex="006B"/>
  <outline>
    <contour>
      <point x="161" y="273" type="line"/>
      <point x="471" y="273" type="line"/>
      <point x="471" y="274" type="line"/>
      <point x="406" y="387" type="line"/>
      <point x="161" y="387" type="line"/>
    </contour>
  </outline>
</glyph>
<glyph name="k" format="2">
  <advance width="497.5"/>
  <unicode hex="006B"/>
  <anchor x="253" y="0" name="bottom"/>
  <outline>
    <contour>
      <point x="43" y="0" type="line"/>
      <point x="161" y="0" type="line"/>
      <point x="161" y="763" type="line"/>
      <point x="43" y="763" type="line"/>
    </contour>
    <contour>
      <point x="353" y="0" type="line"/>
      <point x="471" y="0" type="line"/>
      <point x="471" y="273" type="line"/>
      <point x="353" y="273" type="line"/>
    </contour>
    <contour>
      <point x="161" y="273" type="line"/>
      <point x="471" y="273" type="line"/>
      <point x="471" y="274" type="line"/>
      <point x="406" y="387" type="line"/>
      <point x="161" y="387" type="line"/>
    </contour>
    <contour>
      <point x="288" y="387" type="line"/>
      <point x="406" y="387" type="line"/>
      <point x="406" y="631" type="line"/>
      <point x="405" y="631" type="line"/>
      <point x="288" y="566" type="line"/>
    </contour>
  </outline>
</glyph>
<glyph name="l.color0" format="2">
  <advance width="600"/>
  <unicode hex="006C"/>
  <outline>
    <contour>
      <point x="160" y="0" type="line"/>
      <point x="161" y="0" type="line"/>
      <point x="161" y="763" type="line"/>
      <point x="43" y="763" type="line"/>
      <point x="43" y="65" type="line"/>
    </contour>
  </outline>
</glyph>
<glyph name="l" format="2">
  <advance width="321"/>
  <unicode hex="006C"/>
  <anchor x="176" y="0" name="bottom"/>
  <anchor x="112" y="763" name="top"/>
  <outline>
    <contour>
      <point x="160" y="0" type="line"/>
      <point x="161" y="0" type="line"/>
      <point x="161" y="763" type="line"/>
      <point x="43" y="763" type="line"/>
      <point x="43" y="65" type="line"/>
    </contour>
    <contour>
      <point x="161" y="0" type="line"/>
      <point x="298" y="0" type="line"/>
      <point x="298" y="114" type="line"/>
      <point x="161" y="114" type="line"/>
    </contour>
  </outline>
</glyph>
<glyph name="m.color1" format="2">
  <advance width="600"/>
  <unicode hex="006D"/>
  <outline>
    <contour>
      <point x="311" y="0" type="line"/>
      <point x="420" y="0" type="line"/>
      <point x="420" y="401" type="line"/>
      <point x="311" y="401" type="line"/>
    </contour>
  </outline>
</glyph>
<glyph name="m.color2" format="2">
  <advance width="600"/>
  <unicode hex="006D"/>
  <outline>
    <contour>
      <point x="161" y="401" type="line"/>
      <point x="420" y="401" type="line"/>
      <point x="420" y="402" type="line"/>
      <point x="375" y="515" type="line"/>
      <point x="161" y="515" type="line"/>
    </contour>
  </outline>
</glyph>
<glyph name="m.color3" format="2">
  <advance width="600"/>
  <unicode hex="006D"/>
  <outline>
    <contour>
      <point x="568" y="-4" type="line"/>
      <point x="569" y="-4" type="line"/>
      <point x="688" y="31" type="line"/>
      <point x="688" y="401" type="line"/>
      <point x="568" y="401" type="line"/>
    </contour>
  </outline>
</glyph>
<glyph name="m.color4" format="2">
  <advance width="600"/>
  <unicode hex="006D"/>
  <outline>
    <contour>
      <point x="420" y="401" type="line"/>
      <point x="688" y="401" type="line"/>
      <point x="688" y="402" type="line"/>
      <point x="623" y="515" type="line"/>
      <point x="420" y="515" type="line"/>
    </contour>
  </outline>
</glyph>
<glyph name="m" format="2">
  <advance width="730"/>
  <unicode hex="006D"/>
  <outline>
    <contour>
      <point x="43" y="0" type="line"/>
      <point x="161" y="0" type="line"/>
      <point x="161" y="515" type="line"/>
      <point x="160" y="515" type="line"/>
      <point x="43" y="450" type="line"/>
    </contour>
    <contour>
      <point x="311" y="0" type="line"/>
      <point x="420" y="0" type="line"/>
      <point x="420" y="401" type="line"/>
      <point x="311" y="401" type="line"/>
    </contour>
    <contour>
      <point x="161" y="401" type="line"/>
      <point x="420" y="401" type="line"/>
      <point x="420" y="402" type="line"/>
      <point x="375" y="515" type="line"/>
      <point x="161" y="515" type="line"/>
    </contour>
    <contour>
      <point x="568" y="-4" type="line"/>
      <point x="569" y="-4" type="line"/>
      <point x="688" y="31" type="line"/>
      <point x="688" y="401" type="line"/>
      <point x="568" y="401" type="line"/>
    </contour>
    <contour>
      <point x="420" y="401" type="line"/>
      <point x="688" y="401" type="line"/>
      <point x="688" y="402" type="line"/>
      <point x="623" y="515" type="line"/>
      <point x="420" y="515" type="line"/>
    </contour>
  </outline>
</glyph>
<glyph name="n" format="2">
  <advance width="502.5"/>
  <unicode hex="006E"/>
  <anchor x="258" y="0" name="bottom"/>
  <anchor x="274" y="515" name="top"/>
  <outline>
    <contour>
      <point x="43" y="0" type="line"/>
      <point x="161" y="0" type="line"/>
      <point x="161" y="515" type="line"/>
      <point x="160" y="515" type="line"/>
      <point x="43" y="450" type="line"/>
    </contour>
    <contour>
      <point x="341" y="-4" type="line"/>
      <point x="342" y="-4" type="line"/>
      <point x="460" y="31" type="line"/>
      <point x="460" y="401" type="line"/>
      <point x="341" y="401" type="line"/>
    </contour>
    <contour>
      <point x="161" y="401" type="line"/>
      <point x="460" y="401" type="line"/>
      <point x="460" y="402" type="line"/>
      <point x="395" y="515" type="line"/>
      <point x="161" y="515" type="line"/>
    </contour>
  </outline>
</glyph>
<glyph name="o.color1" format="2">
  <advance width="600"/>
  <unicode hex="006F"/>
  <outline>
    <contour>
      <point x="103" y="0" type="line"/>
      <point x="361" y="0" type="line"/>
      <point x="361" y="114" type="line"/>
      <point x="38" y="114" type="line"/>
      <point x="38" y="113" type="line"/>
    </contour>
  </outline>
</glyph>
<glyph name="p.color2" format="2">
  <advance width="600"/>
  <unicode hex="0070"/>
  <outline>
    <contour>
      <point x="136" y="0" type="line"/>
      <point x="342" y="0" type="line"/>
      <point x="342" y="114" type="line"/>
      <point x="43" y="114" type="line"/>
      <point x="43" y="113" type="line"/>
    </contour>
  </outline>
</glyph>
<glyph name="p" format="2">
  <advance width="502.5"/>
  <unicode hex="0070"/>
  <outline>
    <contour>
      <point x="161" y="401" type="line"/>
      <point x="460" y="401" type="line"/>
      <point x="460" y="402" type="line"/>
      <point x="397" y="515" type="line"/>
      <point x="161" y="515" type="line"/>
    </contour>
    <contour>
      <point x="43" y="-200" type="line"/>
      <point x="161" y="-200" type="line"/>
      <point x="161" y="0" type="line"/>
      <point x="44" y="113" type="line"/>
      <point x="43" y="113" type="line"/>
    </contour>
    <contour>
      <point x="136" y="0" type="line"/>
      <point x="342" y="0" type="line"/>
      <point x="342" y="114" type="line"/>
      <point x="43" y="114" type="line"/>
      <point x="43" y="113" type="line"/>
    </contour>
    <contour>
      <point x="43" y="114" type="line"/>
      <point x="161" y="114" type="line"/>
      <point x="161" y="515" type="line"/>
      <point x="160" y="515" type="line"/>
      <point x="43" y="450" type="line"/>
    </contour>
    <contour>
      <point x="342" y="0" type="line"/>
      <point x="343" y="0" type="line"/>
      <point x="460" y="65" type="line"/>
      <point x="460" y="401" type="line"/>
      <point x="342" y="401" type="line"/>
    </contour>
  </outline>
</glyph>
<glyph name="q" format="2">
  <advance width="502.5"/>
  <unicode hex="0071"/>
  <outline>
    <contour>
      <point x="342" y="-200" type="line"/>
      <point x="460" y="-200" type="line"/>
      <point x="460" y="401" type="line"/>
      <point x="342" y="401" type="line"/>
      <point x="342" y="238" type="line"/>
    </contour>
    <contour>
      <point x="106" y="0" type="line"/>
      <point x="342" y="0" type="line"/>
      <point x="342" y="114" type="line"/>
      <point x="43" y="114" type="line"/>
      <point x="43" y="113" type="line"/>
    </contour>
    <contour>
      <point x="43" y="114" type="line"/>
      <point x="161" y="114" type="line"/>
      <point x="161" y="515" type="line"/>
      <point x="160" y="515" type="line"/>
      <point x="43" y="450" type="line"/>
    </contour>
    <contour>
      <point x="161" y="401" type="line"/>
      <point x="460" y="401" type="line"/>
      <point x="460" y="402" type="line"/>
      <point x="397" y="515" type="line"/>
      <point x="161" y="515" type="line"/>
    </contour>
  </outline>
</glyph>
<glyph name="r" format="2">
  <advance width="381.5"/>
  <unicode hex="0072"/>
  <anchor x="98" y="0" name="bottom"/>
  <anchor x="221" y="515" name="top"/>
  <outline>
    <contour>
      <point x="43" y="0" type="line"/>
      <point x="161" y="0" type="line"/>
      <point x="161" y="515" type="line"/>
      <point x="160" y="515" type="line"/>
      <point x="43" y="450" type="line"/>
    </contour>
    <contour>
      <point x="161" y="401" type="line"/>
      <point x="375" y="401" type="line"/>
      <point x="375" y="402" type="line"/>
      <point x="310" y="515" type="line"/>
      <point x="161" y="515" type="line"/>
    </contour>
  </outline>
</glyph>
<glyph name="s" format="2">
  <advance width="420"/>
  <unicode hex="0073"/>
  <anchor x="215" y="0" name="bottom"/>
  <anchor x="220" y="515" name="top"/>
  <outline>
    <contour>
      <point x="105" y="413" type="line"/>
      <point x="386" y="413" type="line"/>
      <point x="386" y="414" type="line"/>
      <point x="321" y="515" type="line"/>
      <point x="91" y="515" type="line"/>
    </contour>
    <contour>
      <point x="246" y="87" type="line"/>
      <point x="392" y="102" type="line"/>
      <point x="392" y="103" type="line"/>
      <point x="91" y="515" type="line"/>
      <point x="34" y="416" type="line"/>
    </contour>
    <contour>
      <point x="94" y="0" type="line"/>
      <point x="327" y="0" type="line"/>
      <point x="392" y="102" type="line"/>
      <point x="29" y="102" type="line"/>
      <point x="29" y="101" type="line"/>
    </contour>
  </outline>
</glyph>
<glyph name="t" format="2">
  <advance width="384.5"/>
  <unicode hex="0074"/>
  <anchor x="218" y="0" name="bottom"/>
  <anchor x="121" y="733" name="top"/>
  <outline>
    <contour>
      <point x="43" y="401" type="line"/>
      <point x="44" y="401" type="line"/>
      <point x="161" y="515" type="line"/>
      <point x="161" y="687" type="line"/>
      <point x="43" y="687" type="line"/>
    </contour>
    <contour>
      <point x="44" y="401" type="line"/>
      <point x="318" y="401" type="line"/>
      <point x="318" y="515" type="line"/>
      <point x="161" y="515" type="line"/>
    </contour>
    <contour>
      <point x="160" y="0" type="line"/>
      <point x="161" y="0" type="line"/>
      <point x="161" y="401" type="line"/>
      <point x="43" y="401" type="line"/>
      <point x="43" y="65" type="line"/>
    </contour>
    <contour>
      <point x="161" y="0" type="line"/>
      <point x="362" y="0" type="line"/>
      <point x="385" y="113" type="line"/>
      <point x="385" y="114" type="line"/>
      <point x="161" y="114" type="line"/>
    </contour>
  </outline>
</glyph>
<glyph name="u" format="2">
  <advance width="502"/>
  <unicode hex="0075"/>
  <anchor x="262" y="0" name="bottom"/>
  <anchor x="447" y="515" name="horn"/>
  <anchor x="262" y="515" name="top"/>
  <outline>
    <contour>
      <point x="341" y="0" type="line"/>
      <point x="342" y="0" type="line"/>
      <point x="459" y="0" type="line"/>
      <point x="459" y="515" type="line"/>
      <point x="341" y="515" type="line"/>
    </contour>
    <contour>
      <point x="108" y="0" type="line"/>
      <point x="341" y="0" type="line"/>
      <point x="341" y="114" type="line"/>
      <point x="43" y="114" type="line"/>
      <point x="43" y="113" type="line"/>
    </contour>
    <contour>
      <point x="43" y="114" type="line"/>
      <point x="161" y="114" type="line"/>
      <point x="161" y="521" type="line"/>
      <point x="160" y="521" type="line"/>
      <point x="43" y="486" type="line"/>
    </contour>
  </outline>
</glyph>
<glyph name="v.color0" format="2">
  <advance width="600"/>
  <unicode hex="0076"/>
  <outline>
    <contour>
      <point x="326" y="0" type="line"/>
      <point x="327" y="0" type="line"/>
      <point x="444" y="113" type="line"/>
      <point x="444" y="515" type="line"/>
      <point x="326" y="515" type="line"/>
    </contour>
  </outline>
</glyph>
<glyph name="v.color1" format="2">
  <advance width="600"/>
  <unicode hex="0076"/>
  <outline>
    <contour>
      <point x="88" y="0" type="line"/>
      <point x="326" y="0" type="line"/>
      <point x="326" y="114" type="line"/>
      <point x="43" y="114" type="line"/>
      <point x="43" y="113" type="line"/>
    </contour>
  </outline>
</glyph>
<glyph name="v.color2" format="2">
  <advance width="600"/>
  <unicode hex="0076"/>
  <outline>
    <contour>
      <point x="43" y="114" type="line"/>
      <point x="161" y="114" type="line"/>
      <point x="161" y="517" type="line"/>
      <point x="160" y="517" type="line"/>
      <point x="43" y="505" type="line"/>
    </contour>
  </outline>
</glyph>
<glyph name="v" format="2">
  <advance width="487"/>
  <unicode hex="0076"/>
  <outline>
    <contour>
      <point x="326" y="0" type="line"/>
      <point x="327" y="0" type="line"/>
      <point x="444" y="113" type="line"/>
      <point x="444" y="515" type="line"/>
      <point x="326" y="515" type="line"/>
    </contour>
    <contour>
      <point x="88" y="0" type="line"/>
      <point x="326" y="0" type="line"/>
      <point x="326" y="114" type="line"/>
      <point x="43" y="114" type="line"/>
      <point x="43" y="113" type="line"/>
    </contour>
    <contour>
      <point x="43" y="114" type="line"/>
      <point x="161" y="114" type="line"/>
      <point x="161" y="517" type="line"/>
      <point x="160" y="517" type="line"/>
      <point x="43" y="505" type="line"/>
    </contour>
  </outline>
</glyph>
<glyph name="w.color1" format="2">
  <advance width="600"/>
  <unicode hex="0077"/>
  <outline>
    <contour>
      <point x="108" y="0" type="line"/>
      <point x="311" y="0" type="line"/>
      <point x="311" y="114" type="line"/>
      <point x="43" y="114" type="line"/>
      <point x="43" y="113" type="line"/>
    </contour>
  </outline>
</glyph>
<glyph name="w" format="2">
  <advance width="730"/>
  <unicode hex="0077"/>
  <anchor x="371" y="515" name="top"/>
  <outline>
    <contour>
      <point x="568" y="0" type="line"/>
      <point x="569" y="0" type="line"/>
      <point x="688" y="114" type="line"/>
      <point x="688" y="515" type="line"/>
      <point x="568" y="515" type="line"/>
    </contour>
    <contour>
      <point x="108" y="0" type="line"/>
      <point x="311" y="0" type="line"/>
      <point x="311" y="114" type="line"/>
      <point x="43" y="114" type="line"/>
      <point x="43" y="113" type="line"/>
    </contour>
    <contour>
      <point x="43" y="114" type="line"/>
      <point x="161" y="114" type="line"/>
      <point x="161" y="521" type="line"/>
      <point x="160" y="521" type="line"/>
      <point x="43" y="486" type="line"/>
    </contour>
    <contour>
      <point x="356" y="0" type="line"/>
      <point x="568" y="0" type="line"/>
      <point x="568" y="114" type="line"/>
      <point x="311" y="114" type="line"/>
      <point x="311" y="113" type="line"/>
    </contour>
    <contour>
      <point x="311" y="114" type="line"/>
      <point x="420" y="114" type="line"/>
      <point x="420" y="518" type="line"/>
      <point x="419" y="518" type="line"/>
      <point x="311" y="506" type="line"/>
    </contour>
  </outline>
</glyph>
<glyph name="x.color0" format="2">
  <advance width="600"/>
  <unicode hex="0078"/>
  <outline>
    <contour>
      <point x="174" y="258" type="line"/>
      <point x="175" y="258" type="line"/>
      <point x="263" y="317" type="line"/>
      <point x="155" y="515" type="line"/>
      <point x="11" y="515" type="line"/>
      <point x="11" y="514" type="line"/>
    </contour>
  </outline>
</glyph>
<glyph name="x.color1" format="2">
  <advance width="600"/>
  <unicode hex="0078"/>
  <outline>
    <contour>
      <point x="332" y="0" type="line"/>
      <point x="476" y="0" type="line"/>
      <point x="476" y="1" type="line"/>
      <point x="309" y="258" type="line"/>
      <point x="308" y="258" type="line"/>
      <point x="226" y="198" type="line"/>
    </contour>
  </outline>
</glyph>
<glyph name="x.color2" format="2">
  <advance width="600"/>
  <unicode hex="0078"/>
  <outline>
    <contour>
      <point x="14" y="0" type="line"/>
      <point x="148" y="0" type="line"/>
      <point x="308" y="258" type="line"/>
      <point x="174" y="258" type="line"/>
      <point x="14" y="1" type="line"/>
    </contour>
  </outline>
</glyph>
<glyph name="x.color3" format="2">
  <advance width="600"/>
  <unicode hex="0078"/>
  <outline>
    <contour>
      <point x="175" y="258" type="line"/>
      <point x="309" y="258" type="line"/>
      <point x="468" y="514" type="line"/>
      <point x="468" y="515" type="line"/>
      <point x="335" y="515" type="line"/>
    </contour>
  </outline>
</glyph>
<glyph name="x" format="2">
  <advance width="487"/>
  <unicode hex="0078"/>
  <outline>
    <contour>
      <point x="174" y="258" type="line"/>
      <point x="175" y="258" type="line"/>
      <point x="263" y="317" type="line"/>
      <point x="155" y="515" type="line"/>
      <point x="11" y="515" type="line"/>
      <point x="11" y="514" type="line"/>
    </contour>
    <contour>
      <point x="332" y="0" type="line"/>
      <point x="476" y="0" type="line"/>
      <point x="476" y="1" type="line"/>
      <point x="309" y="258" type="line"/>
      <point x="308" y="258" type="line"/>
      <point x="226" y="198" type="line"/>
    </contour>
    <contour>
      <point x="14" y="0" type="line"/>
      <point x="148" y="0" type="line"/>
      <point x="308" y="258" type="line"/>
      <point x="174" y="258" type="line"/>
      <point x="14" y="1" type="line"/>
    </contour>
    <contour>
      <point x="175" y="258" type="line"/>
      <point x="309" y="258" type="line"/>
      <point x="468" y="514" type="line"/>
      <point x="468" y="515" type="line"/>
      <point x="335" y="515" type="line"/>
    </contour>
  </outline>
</glyph>
<glyph name="y.color1" format="2">
  <advance width="600"/>
  <unicode hex="0079"/>
  <outline>
    <contour>
      <point x="94" y="-203" type="line"/>
      <point x="327" y="-203" type="line"/>
      <point x="327" y="-101" type="line"/>
      <point x="43" y="-101" type="line"/>
      <point x="43" y="-102" type="line"/>
    </contour>
  </outline>
</glyph>
<glyph name="z.color0" format="2">
  <advance width="600"/>
  <unicode hex="007A"/>
  <outline>
    <contour>
      <point x="29" y="413" type="line"/>
      <point x="385" y="413" type="line"/>
      <point x="399" y="515" type="line"/>
      <point x="83" y="515" type="line"/>
      <point x="29" y="414" type="line"/>
    </contour>
  </outline>
</glyph>
<glyph name="z.color1" format="2">
  <advance width="600"/>
  <unicode hex="007A"/>
  <outline>
    <contour>
      <point x="160" y="87" type="line"/>
      <point x="456" y="416" type="line"/>
      <point x="399" y="515" type="line"/>
      <point x="26" y="103" type="line"/>
      <point x="26" y="102" type="line"/>
    </contour>
  </outline>
</glyph>
<glyph name="z.color2" format="2">
  <advance width="600"/>
  <unicode hex="007A"/>
  <outline>
    <contour>
      <point x="91" y="0" type="line"/>
      <point x="453" y="0" type="line"/>
      <point x="453" y="102" type="line"/>
      <point x="26" y="102" type="line"/>
    </contour>
  </outline>
</glyph>
<glyph name="z" format="2">
  <advance width="482"/>
  <unicode hex="007A"/>
  <anchor x="251" y="515" name="top"/>
  <outline>
    <contour>
      <point x="29" y="413" type="line"/>
      <point x="385" y="413" type="line"/>
      <point x="399" y="515" type="line"/>
      <point x="83" y="515" type="line"/>
      <point x="29" y="414" type="line"/>
    </contour>
    <contour>
      <point x="160" y="87" type="line"/>
      <point x="456" y="416" type="line"/>
      <point x="399" y="515" type="line"/>
      <point x="26" y="103" type="line"/>
      <point x="26" y="102" type="line"/>
    </contour>
    <contour>
      <point x="91" y="0" type="line"/>
      <point x="453" y="0" type="line"/>
      <point x="453" y="102" type="line"/>
      <point x="26" y="102" type="line"/>
    </contour>
  </outline>
</glyph>
<glyph name="braceleft.color0" format="2">
  <advance width="600"/>
  <unicode hex="007B"/>
  <outline>
    <contour>
      <point x="272" y="-100" type="line"/>
      <point x="422" y="-100" type="line"/>
      <point x="422" y="14" type="line"/>
      <point x="272" y="14" type="line"/>
    </contour>
  </outline>
</glyph>
<glyph name="braceleft.color1" format="2">
  <advance width="600"/>
  <unicode hex="007B"/>
  <outline>
    <contour>
      <point x="54" y="253" type="line"/>
      <point x="152" y="253" type="line"/>
      <point x="152" y="367" type="line"/>
      <point x="54" y="367" type="line"/>
    </contour>
  </outline>
</glyph>
<glyph name="braceleft.color2" format="2">
  <advance width="600"/>
  <unicode hex="007B"/>
  <outline>
    <contour>
      <point x="272" y="601" type="line"/>
      <point x="422" y="601" type="line"/>
      <point x="422" y="715" type="line"/>
      <point x="272" y="715" type="line"/>
    </contour>
  </outline>
</glyph>
<glyph name="braceleft.color3" format="2">
  <advance width="600"/>
  <unicode hex="007B"/>
  <outline>
    <contour>
      <point x="152" y="-88" type="line"/>
      <point x="272" y="-100" type="line"/>
      <point x="272" y="258" type="line"/>
      <point x="153" y="367" type="line"/>
      <point x="152" y="367" type="line"/>
    </contour>
  </outline>
</glyph>
<glyph name="braceleft.color4" format="2">
  <advance width="600"/>
  <unicode hex="007B"/>
  <outline>
    <contour>
      <point x="152" y="253" type="line"/>
      <point x="153" y="253" type="line"/>
      <point x="272" y="361" type="line"/>
      <point x="272" y="715" type="line"/>
      <point x="152" y="703" type="line"/>
    </contour>
  </outline>
</glyph>
<glyph name="braceleft" format="2">
  <advance width="449.5"/>
  <unicode hex="007B"/>
  <outline>
    <contour>
      <point x="272" y="-100" type="line"/>
      <point x="422" y="-100" type="line"/>
      <point x="422" y="14" type="line"/>
      <point x="272" y="14" type="line"/>
    </contour>
    <contour>
      <point x="54" y="253" type="line"/>
      <point x="152" y="253" type="line"/>
      <point x="152" y="367" type="line"/>
      <point x="54" y="367" type="line"/>
    </contour>
    <contour>
      <point x="272" y="601" type="line"/>
      <point x="422" y="601" type="line"/>
      <point x="422" y="715" type="line"/>
      <point x="272" y="715" type="line"/>
    </contour>
    <contour>
      <point x="152" y="-88" type="line"/>
      <point x="272" y="-100" type="line"/>
      <point x="272" y="258" type="line"/>
      <point x="153" y="367" type="line"/>
      <point x="152" y="367" type="line"/>
    </contour>
    <contour>
      <point x="152" y="253" type="line"/>
      <point x="153" y="253" type="line"/>
      <point x="272" y="361" type="line"/>
      <point x="272" y="715" type="line"/>
      <point x="152" y="703" type="line"/>
    </contour>
  </outline>
</glyph>
<glyph name="bar" format="2">
  <advance width="199"/>
  <unicode hex="007C"/>
  <outline>
    <contour>
      <point x="44" y="-100" type="line"/>
      <point x="155" y="-100" type="line"/>
      <point x="155" y="794" type="line"/>
      <point x="44" y="794" type="line"/>
    </contour>
  </outline>
</glyph>
<glyph name="braceright.color0" format="2">
  <advance width="600"/>
  <unicode hex="007D"/>
  <outline>
    <contour>
      <point x="307" y="249" type="line"/>
      <point x="308" y="249" type="line"/>
      <point x="308" y="703" type="line"/>
      <point x="188" y="715" type="line"/>
      <point x="188" y="358" type="line"/>
    </contour>
  </outline>
</glyph>
<glyph name="braceright.color1" format="2">
  <advance width="600"/>
  <unicode hex="007D"/>
  <outline>
    <contour>
      <point x="38" y="-100" type="line"/>
      <point x="188" y="-100" type="line"/>
      <point x="188" y="14" type="line"/>
      <point x="38" y="14" type="line"/>
    </contour>
  </outline>
</glyph>
<glyph name="braceright.color2" format="2">
  <advance width="600"/>
  <unicode hex="007D"/>
  <outline>
    <contour>
      <point x="38" y="601" type="line"/>
      <point x="188" y="601" type="line"/>
      <point x="188" y="715" type="line"/>
      <point x="38" y="715" type="line"/>
    </contour>
  </outline>
</glyph>
<glyph name="braceright.color3" format="2">
  <advance width="600"/>
  <unicode hex="007D"/>
  <outline>
    <contour>
      <point x="308" y="248" type="line"/>
      <point x="406" y="248" type="line"/>
      <point x="406" y="362" type="line"/>
      <point x="308" y="362" type="line"/>
    </contour>
  </outline>
</glyph>
<glyph name="braceright.color4" format="2">
  <advance width="600"/>
  <unicode hex="007D"/>
  <outline>
    <contour>
      <point x="188" y="-100" type="line"/>
      <point x="308" y="-88" type="line"/>
      <point x="308" y="362" type="line"/>
      <point x="307" y="362" type="line"/>
      <point x="188" y="254" type="line"/>
    </contour>
  </outline>
</glyph>
<glyph name="braceright" format="2">
  <advance width="459.5"/>
  <unicode hex="007D"/>
  <outline>
    <contour>
      <point x="307" y="249" type="line"/>
      <point x="308" y="249" type="line"/>
      <point x="308" y="703" type="line"/>
      <point x="188" y="715" type="line"/>
      <point x="188" y="358" type="line"/>
    </contour>
    <contour>
      <point x="38" y="-100" type="line"/>
      <point x="188" y="-100" type="line"/>
      <point x="188" y="14" type="line"/>
      <point x="38" y="14" type="line"/>
    </contour>
    <contour>
      <point x="38" y="601" type="line"/>
      <point x="188" y="601" type="line"/>
      <point x="188" y="715" type="line"/>
      <point x="38" y="715" type="line"/>
    </contour>
    <contour>
      <point x="308" y="248" type="line"/>
      <point x="406" y="248" type="line"/>
      <point x="406" y="362" type="line"/>
      <point x="308" y="362" type="line"/>
    </contour>
    <contour>
      <point x="188" y="-100" type="line"/>
      <point x="308" y="-88" type="line"/>
      <point x="308" y="362" type="line"/>
      <point x="307" y="362" type="line"/>
      <point x="188" y="254" type="line"/>
    </contour>
  </outline>
</glyph>
<glyph name="asciitilde.color0" format="2">
  <advance width="600"/>
  <unicode hex="007E"/>
  <outline>
    <contour>
      <point x="39" y="246" type="line"/>
      <point x="138" y="246" type="line"/>
      <point x="138" y="463" type="line"/>
      <point x="39" y="423" type="line"/>
    </contour>
  </outline>
</glyph>
<glyph name="asciitilde.color1" format="2">
  <advance width="600"/>
  <unicode hex="007E"/>
  <outline>
    <contour>
      <point x="373" y="281" type="line"/>
      <point x="472" y="280" type="line"/>
      <point x="472" y="456" type="line"/>
      <point x="373" y="456" type="line"/>
    </contour>
  </outline>
</glyph>
<glyph name="asciitilde.color2" format="2">
  <advance width="600"/>
  <unicode hex="007E"/>
  <outline>
    <contour>
      <point x="378" y="230" type="line"/>
      <point x="379" y="230" type="line"/>
      <point x="472" y="280" type="line"/>
      <point x="472" y="281" type="line"/>
      <point x="139" y="463" type="line"/>
      <point x="138" y="463" type="line"/>
      <point x="39" y="424" type="line"/>
      <point x="39" y="423" type="line"/>
    </contour>
  </outline>
</glyph>
<glyph name="asciitilde" format="2">
  <advance width="511"/>
  <unicode hex="007E"/>
  <outline>
    <contour>
      <point x="39" y="246" type="line"/>
      <point x="138" y="246" type="line"/>
      <point x="138" y="463" type="line"/>
      <point x="39" y="423" type="line"/>
    </contour>
    <contour>
      <point x="373" y="281" type="line"/>
      <point x="472" y="280" type="line"/>
      <point x="472" y="456" type="line"/>
      <point x="373" y="456" type="line"/>
    </contour>
    <contour>
      <point x="378" y="230" type="line"/>
      <point x="379" y="230" type="line"/>
      <point x="472" y="280" type="line"/>
      <point x="472" y="281" type="line"/>
      <point x="139" y="463" type="line"/>
      <point x="138" y="463" type="line"/>
      <point x="39" y="424" type="line"/>
      <point x="39" y="423" type="line"/>
    </contour>
  </outline>
</glyph>
<glyph name="exclamdown.color0" format="2">
  <advance width="600"/>
  <unicode hex="00A1"/>
  <outline>
    <contour>
      <point x="50" y="-34" type="line"/>
      <point x="51" y="-34" type="line"/>
      <point x="170" y="31" type="line"/>
      <point x="170" y="497" type="line"/>
      <point x="50" y="497" type="line"/>
    </contour>
  </outline>
</glyph>
<glyph name="exclamdown.color1" format="2">
  <advance width="600"/>
  <unicode hex="00A1"/>
  <outline>
    <contour>
      <point x="44" y="571" type="line"/>
      <point x="176" y="571" type="line"/>
      <point x="176" y="685" type="line"/>
      <point x="44" y="685" type="line"/>
    </contour>
  </outline>
</glyph>
<glyph name="exclamdown" format="2">
  <advance width="219.5"/>
  <unicode hex="00A1"/>
  <outline>
    <contour>
      <point x="50" y="-34" type="line"/>
      <point x="51" y="-34" type="line"/>
      <point x="170" y="31" type="line"/>
      <point x="170" y="497" type="line"/>
      <point x="50" y="497" type="line"/>
    </contour>
    <contour>
      <point x="44" y="571" type="line"/>
      <point x="176" y="571" type="line"/>
      <point x="176" y="685" type="line"/>
      <point x="44" y="685" type="line"/>
    </contour>
  </outline>
</glyph>
<glyph name="cent.color0" format="2">
  <advance width="600"/>
  <unicode hex="00A2"/>
  <outline>
    <contour>
      <point x="211" y="482" type="line"/>
      <point x="330" y="482" type="line"/>
      <point x="330" y="567" type="line"/>
      <point x="328" y="567" type="line"/>
      <point x="210" y="544" type="line"/>
    </contour>
  </outline>
</glyph>
<glyph name="cent.color1" format="2">
  <advance width="600"/>
  <unicode hex="00A2"/>
  <outline>
    <contour>
      <point x="211" y="-54" type="line"/>
      <point x="213" y="-54" type="line"/>
      <point x="330" y="-31" type="line"/>
      <point x="330" y="25" type="line"/>
      <point x="211" y="25" type="line"/>
    </contour>
  </outline>
</glyph>
<glyph name="cent.color2" format="2">
  <advance width="600"/>
  <unicode hex="00A2"/>
  <outline>
    <contour>
      <point x="107" y="0" type="line"/>
      <point x="374" y="0" type="line"/>
      <point x="439" y="113" type="line"/>
      <point x="439" y="114" type="line"/>
      <point x="42" y="114" type="line"/>
      <point x="42" y="113" type="line"/>
    </contour>
  </outline>
</glyph>
<glyph name="cent.color3" format="2">
  <advance width="600"/>
  <unicode hex="00A2"/>
  <outline>
    <contour>
      <point x="42" y="114" type="line"/>
      <point x="161" y="114" type="line"/>
      <point x="161" y="515" type="line"/>
      <point x="160" y="515" type="line"/>
      <point x="42" y="450" type="line"/>
    </contour>
  </outline>
</glyph>
<glyph name="cent.color4" format="2">
  <advance width="600"/>
  <unicode hex="00A2"/>
  <outline>
    <contour>
      <point x="161" y="401" type="line"/>
      <point x="444" y="401" type="line"/>
      <point x="444" y="402" type="line"/>
      <point x="379" y="515" type="line"/>
      <point x="161" y="515" type="line"/>
    </contour>
  </outline>
</glyph>
<glyph name="cent" format="2">
  <advance width="485"/>
  <unicode hex="00A2"/>
  <outline>
    <contour>
      <point x="211" y="482" type="line"/>
      <point x="330" y="482" type="line"/>
      <point x="330" y="567" type="line"/>
      <point x="328" y="567" type="line"/>
      <point x="210" y="544" type="line"/>
    </contour>
    <contour>
      <point x="211" y="-54" type="line"/>
      <point x="213" y="-54" type="line"/>
      <point x="330" y="-31" type="line"/>
      <point x="330" y="25" type="line"/>
      <point x="211" y="25" type="line"/>
    </contour>
    <component base="c" xOffset="-3"/>
  </outline>
</glyph>
<glyph name="sterling.color0" format="2">
  <advance width="600"/>
  <unicode hex="00A3"/>
  <outline>
    <contour>
      <point x="44" y="0" type="line"/>
      <point x="617" y="0" type="line"/>
      <point x="617" y="114" type="line"/>
      <point x="44" y="114" type="line"/>
    </contour>
  </outline>
</glyph>
<glyph name="sterling.color1" format="2">
  <advance width="600"/>
  <unicode hex="00A3"/>
  <outline>
    <contour>
      <point x="62" y="317" type="line"/>
      <point x="563" y="318" type="line"/>
      <point x="563" y="432" type="line"/>
      <point x="62" y="431" type="line"/>
    </contour>
  </outline>
</glyph>
<glyph name="sterling.color2" format="2">
  <advance width="600"/>
  <unicode hex="00A3"/>
  <outline>
    <contour>
      <point x="119" y="114" type="line"/>
      <point x="238" y="114" type="line"/>
      <point x="238" y="715" type="line"/>
      <point x="237" y="715" type="line"/>
      <point x="119" y="600" type="line"/>
    </contour>
  </outline>
</glyph>
<glyph name="sterling.color3" format="2">
  <advance width="600"/>
  <unicode hex="00A3"/>
  <outline>
    <contour>
      <point x="238" y="601" type="line"/>
      <point x="602" y="601" type="line"/>
      <point x="602" y="602" type="line"/>
      <point x="489" y="715" type="line"/>
      <point x="238" y="715" type="line"/>
    </contour>
  </outline>
</glyph>
<glyph name="sterling" format="2">
  <advance width="660"/>
  <unicode hex="00A3"/>
  <outline>
    <contour>
      <point x="44" y="0" type="line"/>
      <point x="617" y="0" type="line"/>
      <point x="617" y="114" type="line"/>
      <point x="44" y="114" type="line"/>
    </contour>
    <contour>
      <point x="62" y="317" type="line"/>
      <point x="563" y="318" type="line"/>
      <point x="563" y="432" type="line"/>
      <point x="62" y="431" type="line"/>
    </contour>
    <contour>
      <point x="119" y="114" type="line"/>
      <point x="238" y="114" type="line"/>
      <point x="238" y="715" type="line"/>
      <point x="237" y="715" type="line"/>
      <point x="119" y="600" type="line"/>
    </contour>
    <contour>
      <point x="238" y="601" type="line"/>
      <point x="602" y="601" type="line"/>
      <point x="602" y="602" type="line"/>
      <point x="489" y="715" type="line"/>
      <point x="238" y="715" type="line"/>
    </contour>
  </outline>
</glyph>
<glyph name="currency.color0" format="2">
  <advance width="600"/>
  <unicode hex="00A4"/>
  <outline>
    <contour>
      <point x="243" y="451" type="line"/>
      <point x="566" y="451" type="line"/>
      <point x="492" y="565" type="line"/>
      <point x="243" y="565" type="line"/>
    </contour>
  </outline>
</glyph>
<glyph name="currency.color1" format="2">
  <advance width="600"/>
  <unicode hex="00A4"/>
  <outline>
    <contour>
      <point x="110" y="82" type="line"/>
      <point x="200" y="150" type="line"/>
      <point x="124" y="264" type="line"/>
      <point x="35" y="195" type="line"/>
    </contour>
  </outline>
</glyph>
<glyph name="currency.color2" format="2">
  <advance width="600"/>
  <unicode hex="00A4"/>
  <outline>
    <contour>
      <point x="200" y="150" type="line"/>
      <point x="448" y="150" type="line"/>
      <point x="448" y="264" type="line"/>
      <point x="124" y="264" type="line"/>
    </contour>
  </outline>
</glyph>
<glyph name="currency.color3" format="2">
  <advance width="600"/>
  <unicode hex="00A4"/>
  <outline>
    <contour>
      <point x="124" y="264" type="line"/>
      <point x="243" y="264" type="line"/>
      <point x="243" y="565" type="line"/>
      <point x="124" y="491" type="line"/>
    </contour>
  </outline>
</glyph>
<glyph name="currency.color4" format="2">
  <advance width="600"/>
  <unicode hex="00A4"/>
  <outline>
    <contour>
      <point x="124" y="491" type="line"/>
      <point x="243" y="565" type="line"/>
      <point x="179" y="654" type="line"/>
      <point x="59" y="580" type="line"/>
    </contour>
  </outline>
</glyph>
<glyph name="currency.color5" format="2">
  <advance width="600"/>
  <unicode hex="00A4"/>
  <outline>
    <contour>
      <point x="513" y="61" type="line"/>
      <point x="632" y="135" type="line"/>
      <point x="566" y="225" type="line"/>
      <point x="448" y="150" type="line"/>
    </contour>
  </outline>
</glyph>
<glyph name="currency.color6" format="2">
  <advance width="600"/>
  <unicode hex="00A4"/>
  <outline>
    <contour>
      <point x="448" y="150" type="line"/>
      <point x="566" y="225" type="line"/>
      <point x="566" y="451" type="line"/>
      <point x="448" y="451" type="line"/>
    </contour>
  </outline>
</glyph>
<glyph name="currency.color7" format="2">
  <advance width="600"/>
  <unicode hex="00A4"/>
  <outline>
    <contour>
      <point x="566" y="451" type="line"/>
      <point x="657" y="520" type="line"/>
      <point x="582" y="634" type="line"/>
      <point x="492" y="565" type="line"/>
    </contour>
  </outline>
</glyph>
<glyph name="currency" format="2">
  <advance width="690.5"/>
  <unicode hex="00A4"/>
  <outline>
    <contour>
      <point x="243" y="451" type="line"/>
      <point x="566" y="451" type="line"/>
      <point x="492" y="565" type="line"/>
      <point x="243" y="565" type="line"/>
    </contour>
    <contour>
      <point x="110" y="82" type="line"/>
      <point x="200" y="150" type="line"/>
      <point x="124" y="264" type="line"/>
      <point x="35" y="195" type="line"/>
    </contour>
    <contour>
      <point x="200" y="150" type="line"/>
      <point x="448" y="150" type="line"/>
      <point x="448" y="264" type="line"/>
      <point x="124" y="264" type="line"/>
    </contour>
    <contour>
      <point x="124" y="264" type="line"/>
      <point x="243" y="264" type="line"/>
      <point x="243" y="565" type="line"/>
      <point x="124" y="491" type="line"/>
    </contour>
    <contour>
      <point x="124" y="491" type="line"/>
      <point x="243" y="565" type="line"/>
      <point x="179" y="654" type="line"/>
      <point x="59" y="580" type="line"/>
    </contour>
    <contour>
      <point x="513" y="61" type="line"/>
      <point x="632" y="135" type="line"/>
      <point x="566" y="225" type="line"/>
      <point x="448" y="150" type="line"/>
    </contour>
    <contour>
      <point x="448" y="150" type="line"/>
      <point x="566" y="225" type="line"/>
      <point x="566" y="451" type="line"/>
      <point x="448" y="451" type="line"/>
    </contour>
    <contour>
      <point x="566" y="451" type="line"/>
      <point x="657" y="520" type="line"/>
      <point x="582" y="634" type="line"/>
      <point x="492" y="565" type="line"/>
    </contour>
  </outline>
</glyph>
<glyph name="yen.color0" format="2">
  <advance width="600"/>
  <unicode hex="00A5"/>
  <outline>
    <contour>
      <point x="53" y="309" type="line"/>
      <point x="512" y="310" type="line"/>
      <point x="512" y="311" type="line"/>
      <point x="489" y="334" type="line"/>
      <point x="30" y="333" type="line"/>
      <point x="30" y="332" type="line"/>
    </contour>
  </outline>
</glyph>
<glyph name="yen.color1" format="2">
  <advance width="600"/>
  <unicode hex="00A5"/>
  <outline>
    <contour>
      <point x="53" y="220" type="line"/>
      <point x="512" y="221" type="line"/>
      <point x="512" y="222" type="line"/>
      <point x="489" y="245" type="line"/>
      <point x="30" y="244" type="line"/>
      <point x="30" y="243" type="line"/>
    </contour>
  </outline>
</glyph>
<glyph name="yen.color2" format="2">
  <advance width="600"/>
  <unicode hex="00A5"/>
  <outline>
    <contour>
      <point x="207" y="317" type="line"/>
      <point x="208" y="317" type="line"/>
      <point x="271" y="412" type="line"/>
      <point x="142" y="715" type="line"/>
      <point x="13" y="715" type="line"/>
      <point x="13" y="714" type="line"/>
    </contour>
  </outline>
</glyph>
<glyph name="yen.color3" format="2">
  <advance width="600"/>
  <unicode hex="00A5"/>
  <outline>
    <contour>
      <point x="207" y="0" type="line"/>
      <point x="326" y="0" type="line"/>
      <point x="326" y="317" type="line"/>
      <point x="207" y="317" type="line"/>
    </contour>
  </outline>
</glyph>
<glyph name="yen.color4" format="2">
  <advance width="600"/>
  <unicode hex="00A5"/>
  <outline>
    <contour>
      <point x="208" y="317" type="line"/>
      <point x="326" y="317" type="line"/>
      <point x="505" y="714" type="line"/>
      <point x="505" y="715" type="line"/>
      <point x="376" y="715" type="line"/>
    </contour>
  </outline>
</glyph>
<glyph name="yen" format="2">
  <advance width="542"/>
  <unicode hex="00A5"/>
  <anchor x="266" y="0" name="bottom"/>
  <anchor x="266" y="715" name="top"/>
  <outline>
    <contour>
      <point x="53" y="309" type="line"/>
      <point x="512" y="310" type="line"/>
      <point x="512" y="311" type="line"/>
      <point x="489" y="334" type="line"/>
      <point x="30" y="333" type="line"/>
      <point x="30" y="332" type="line"/>
    </contour>
    <contour>
      <point x="53" y="220" type="line"/>
      <point x="512" y="221" type="line"/>
      <point x="512" y="222" type="line"/>
      <point x="489" y="245" type="line"/>
      <point x="30" y="244" type="line"/>
      <point x="30" y="243" type="line"/>
    </contour>
    <contour>
      <point x="207" y="317" type="line"/>
      <point x="208" y="317" type="line"/>
      <point x="271" y="412" type="line"/>
      <point x="142" y="715" type="line"/>
      <point x="13" y="715" type="line"/>
      <point x="13" y="714" type="line"/>
    </contour>
    <contour>
      <point x="207" y="0" type="line"/>
      <point x="326" y="0" type="line"/>
      <point x="326" y="317" type="line"/>
      <point x="207" y="317" type="line"/>
    </contour>
    <contour>
      <point x="208" y="317" type="line"/>
      <point x="326" y="317" type="line"/>
      <point x="505" y="714" type="line"/>
      <point x="505" y="715" type="line"/>
      <point x="376" y="715" type="line"/>
    </contour>
  </outline>
</glyph>
<glyph name="brokenbar.color0" format="2">
  <advance width="600"/>
  <unicode hex="00A6"/>
  <outline>
    <contour>
      <point x="39" y="432" type="line"/>
      <point x="149" y="432" type="line"/>
      <point x="149" y="718" type="line"/>
      <point x="39" y="718" type="line"/>
    </contour>
  </outline>
</glyph>
<glyph name="brokenbar.color1" format="2">
  <advance width="600"/>
  <unicode hex="00A6"/>
  <outline>
    <contour>
      <point x="39" y="0" type="line"/>
      <point x="149" y="0" type="line"/>
      <point x="149" y="287" type="line"/>
      <point x="39" y="287" type="line"/>
    </contour>
  </outline>
</glyph>
<glyph name="brokenbar" format="2">
  <advance width="188"/>
  <unicode hex="00A6"/>
  <outline>
    <contour>
      <point x="39" y="432" type="line"/>
      <point x="149" y="432" type="line"/>
      <point x="149" y="718" type="line"/>
      <point x="39" y="718" type="line"/>
    </contour>
    <contour>
      <point x="39" y="0" type="line"/>
      <point x="149" y="0" type="line"/>
      <point x="149" y="287" type="line"/>
      <point x="39" y="287" type="line"/>
    </contour>
  </outline>
</glyph>
<glyph name="section.color0" format="2">
  <advance width="600"/>
  <unicode hex="00A7"/>
  <outline>
    <contour>
      <point x="145" y="275" type="line"/>
      <point x="280" y="432" type="line"/>
      <point x="181" y="497" type="line"/>
      <point x="111" y="432" type="line"/>
    </contour>
  </outline>
</glyph>
<glyph name="section.color1" format="2">
  <advance width="600"/>
  <unicode hex="00A7"/>
  <outline>
    <contour>
      <point x="361" y="133" type="line"/>
      <point x="444" y="225" type="line"/>
      <point x="365" y="311" type="line"/>
      <point x="283" y="227" type="line"/>
    </contour>
  </outline>
</glyph>
<glyph name="section.color3" format="2">
  <advance width="600"/>
  <unicode hex="00A7"/>
  <outline>
    <contour>
      <point x="160" y="601" type="line"/>
      <point x="513" y="601" type="line"/>
      <point x="513" y="602" type="line"/>
      <point x="401" y="715" type="line"/>
      <point x="145" y="715" type="line"/>
    </contour>
  </outline>
</glyph>
<glyph name="section.color4" format="2">
  <advance width="600"/>
  <unicode hex="00A7"/>
  <outline>
    <contour>
      <point x="418" y="-78" type="line"/>
      <point x="487" y="22" type="line"/>
      <point x="111" y="432" type="line"/>
      <point x="39" y="332" type="line"/>
      <point x="39" y="331" type="line"/>
    </contour>
  </outline>
</glyph>
<glyph name="section.color5" format="2">
  <advance width="600"/>
  <unicode hex="00A7"/>
  <outline>
    <contour>
      <point x="444" y="225" type="line"/>
      <point x="516" y="320" type="line"/>
      <point x="516" y="321" type="line"/>
      <point x="145" y="715" type="line"/>
      <point x="74" y="616" type="line"/>
    </contour>
  </outline>
</glyph>
<glyph name="section" format="2">
  <advance width="558.5"/>
  <unicode hex="00A7"/>
  <outline>
    <contour>
      <point x="145" y="275" type="line"/>
      <point x="280" y="432" type="line"/>
      <point x="181" y="497" type="line"/>
      <point x="111" y="432" type="line"/>
    </contour>
    <contour>
      <point x="361" y="133" type="line"/>
      <point x="444" y="225" type="line"/>
      <point x="365" y="311" type="line"/>
      <point x="283" y="227" type="line"/>
    </contour>
    <contour>
      <point x="161" y="-78" type="line"/>
      <point x="418" y="-78" type="line"/>
      <point x="403" y="36" type="line"/>
      <point x="48" y="36" type="line"/>
      <point x="48" y="35" type="line"/>
    </contour>
    <contour>
      <point x="160" y="601" type="line"/>
      <point x="513" y="601" type="line"/>
      <point x="513" y="602" type="line"/>
      <point x="401" y="715" type="line"/>
      <point x="145" y="715" type="line"/>
    </contour>
    <contour>
      <point x="418" y="-78" type="line"/>
      <point x="487" y="22" type="line"/>
      <point x="111" y="432" type="line"/>
      <point x="39" y="332" type="line"/>
      <point x="39" y="331" type="line"/>
    </contour>
    <contour>
      <point x="444" y="225" type="line"/>
      <point x="516" y="320" type="line"/>
      <point x="516" y="321" type="line"/>
      <point x="145" y="715" type="line"/>
      <point x="74" y="616" type="line"/>
    </contour>
  </outline>
</glyph>
<glyph name="dieresis.color0" format="2">
  <advance width="600"/>
  <unicode hex="00A8"/>
  <outline>
    <contour>
      <point x="326" y="621" type="line"/>
      <point x="430" y="621" type="line"/>
      <point x="430" y="704" type="line"/>
      <point x="326" y="704" type="line"/>
    </contour>
  </outline>
</glyph>
<glyph name="dieresis.color1" format="2">
  <advance width="600"/>
  <unicode hex="00A8"/>
  <outline>
    <contour>
      <point x="174" y="621" type="line"/>
      <point x="278" y="621" type="line"/>
      <point x="278" y="704" type="line"/>
      <point x="174" y="704" type="line"/>
    </contour>
  </outline>
</glyph>
<glyph name="dieresis" format="2">
  <advance width="600"/>
  <unicode hex="00A8"/>
  <anchor x="306" y="515" name="_top"/>
  <anchor x="304" y="671" name="top"/>
  <outline>
    <contour>
      <point x="326" y="621" type="line"/>
      <point x="430" y="621" type="line"/>
      <point x="430" y="704" type="line"/>
      <point x="326" y="704" type="line"/>
    </contour>
    <contour>
      <point x="174" y="621" type="line"/>
      <point x="278" y="621" type="line"/>
      <point x="278" y="704" type="line"/>
      <point x="174" y="704" type="line"/>
    </contour>
  </outline>
</glyph>
<glyph name="copyright.color0" format="2">
  <advance width="600"/>
  <unicode hex="00A9"/>
  <outline>
    <contour>
      <point x="214" y="38" type="line"/>
      <point x="480" y="38" type="line"/>
      <point x="545" y="149" type="line"/>
      <point x="545" y="150" type="line"/>
      <point x="149" y="150" type="line"/>
      <point x="149" y="149" type="line"/>
    </contour>
  </outline>
</glyph>
<glyph name="copyright.color1" format="2">
  <advance width="600"/>
  <unicode hex="00A9"/>
  <outline>
    <contour>
      <point x="76" y="-45" type="line"/>
      <point x="77" y="-45" type="line"/>
      <point x="77" y="631" type="line"/>
      <point x="53" y="631" type="line"/>
      <point x="53" y="-22" type="line"/>
    </contour>
  </outline>
</glyph>
<glyph name="copyright.color2" format="2">
  <advance width="600"/>
  <unicode hex="00A9"/>
  <outline>
    <contour>
      <point x="77" y="-45" type="line"/>
      <point x="615" y="-45" type="line"/>
      <point x="638" y="-22" type="line"/>
      <point x="638" y="-21" type="line"/>
      <point x="77" y="-21" type="line"/>
    </contour>
  </outline>
</glyph>
<glyph name="copyright.color3" format="2">
  <advance width="600"/>
  <unicode hex="00A9"/>
  <outline>
    <contour>
      <point x="149" y="150" type="line"/>
      <point x="267" y="150" type="line"/>
      <point x="267" y="571" type="line"/>
      <point x="266" y="571" type="line"/>
      <point x="149" y="506" type="line"/>
    </contour>
  </outline>
</glyph>
<glyph name="copyright.color4" format="2">
  <advance width="600"/>
  <unicode hex="00A9"/>
  <outline>
    <contour>
      <point x="267" y="469" type="line"/>
      <point x="550" y="469" type="line"/>
      <point x="550" y="470" type="line"/>
      <point x="485" y="571" type="line"/>
      <point x="267" y="571" type="line"/>
    </contour>
  </outline>
</glyph>
<glyph name="copyright.color6" format="2">
  <advance width="600"/>
  <unicode hex="00A9"/>
  <outline>
    <contour>
      <point x="614" y="-21" type="line"/>
      <point x="638" y="-21" type="line"/>
      <point x="638" y="632" type="line"/>
      <point x="615" y="655" type="line"/>
      <point x="614" y="655" type="line"/>
    </contour>
  </outline>
</glyph>
<glyph name="copyright" format="2">
  <advance width="691"/>
  <unicode hex="00A9"/>
  <outline>
    <contour>
      <point x="214" y="38" type="line"/>
      <point x="480" y="38" type="line"/>
      <point x="545" y="149" type="line"/>
      <point x="545" y="150" type="line"/>
      <point x="149" y="150" type="line"/>
      <point x="149" y="149" type="line"/>
    </contour>
    <contour>
      <point x="76" y="-45" type="line"/>
      <point x="77" y="-45" type="line"/>
      <point x="77" y="631" type="line"/>
      <point x="53" y="631" type="line"/>
      <point x="53" y="-22" type="line"/>
    </contour>
    <contour>
      <point x="77" y="-45" type="line"/>
      <point x="615" y="-45" type="line"/>
      <point x="638" y="-22" type="line"/>
      <point x="638" y="-21" type="line"/>
      <point x="77" y="-21" type="line"/>
    </contour>
    <contour>
      <point x="149" y="150" type="line"/>
      <point x="267" y="150" type="line"/>
      <point x="267" y="571" type="line"/>
      <point x="266" y="571" type="line"/>
      <point x="149" y="506" type="line"/>
    </contour>
    <contour>
      <point x="267" y="469" type="line"/>
      <point x="550" y="469" type="line"/>
      <point x="550" y="470" type="line"/>
      <point x="485" y="571" type="line"/>
      <point x="267" y="571" type="line"/>
    </contour>
    <contour>
      <point x="53" y="631" type="line"/>
      <point x="614" y="631" type="line"/>
      <point x="614" y="655" type="line"/>
      <point x="76" y="655" type="line"/>
      <point x="53" y="632" type="line"/>
    </contour>
    <contour>
      <point x="614" y="-21" type="line"/>
      <point x="638" y="-21" type="line"/>
      <point x="638" y="632" type="line"/>
      <point x="615" y="655" type="line"/>
      <point x="614" y="655" type="line"/>
    </contour>
  </outline>
</glyph>
<glyph name="ordfeminine.color0" format="2">
  <advance width="600"/>
  <unicode hex="00AA"/>
  <outline>
    <contour>
      <point x="123" y="697" type="line"/>
      <point x="325" y="697" type="line"/>
      <point x="325" y="698" type="line"/>
      <point x="260" y="766" type="line"/>
      <point x="123" y="766" type="line"/>
    </contour>
  </outline>
</glyph>
<glyph name="ordfeminine.color2" format="2">
  <advance width="600"/>
  <unicode hex="00AA"/>
  <outline>
    <contour>
      <point x="50" y="564" type="line"/>
      <point x="123" y="564" type="line"/>
      <point x="123" y="766" type="line"/>
      <point x="122" y="766" type="line"/>
      <point x="50" y="701" type="line"/>
    </contour>
  </outline>
</glyph>
<glyph name="ordfeminine.color3" format="2">
  <advance width="600"/>
  <unicode hex="00AA"/>
  <outline>
    <contour>
      <point x="252" y="496" type="line"/>
      <point x="325" y="496" type="line"/>
      <point x="325" y="697" type="line"/>
      <point x="252" y="697" type="line"/>
    </contour>
  </outline>
</glyph>
<glyph name="ordfeminine" format="2">
  <advance width="373.5"/>
  <unicode hex="00AA"/>
  <outline>
    <contour>
      <point x="123" y="697" type="line"/>
      <point x="325" y="697" type="line"/>
      <point x="325" y="698" type="line"/>
      <point x="260" y="766" type="line"/>
      <point x="123" y="766" type="line"/>
    </contour>
    <contour>
      <point x="113" y="496" type="line"/>
      <point x="252" y="496" type="line"/>
      <point x="252" y="564" type="line"/>
      <point x="50" y="564" type="line"/>
      <point x="50" y="563" type="line"/>
    </contour>
    <contour>
      <point x="50" y="564" type="line"/>
      <point x="123" y="564" type="line"/>
      <point x="123" y="766" type="line"/>
      <point x="122" y="766" type="line"/>
      <point x="50" y="701" type="line"/>
    </contour>
    <contour>
      <point x="252" y="496" type="line"/>
      <point x="325" y="496" type="line"/>
      <point x="325" y="697" type="line"/>
      <point x="252" y="697" type="line"/>
    </contour>
  </outline>
</glyph>
<glyph name="guillemetleft.color0" format="2">
  <advance width="600"/>
  <unicode hex="00AB"/>
  <outline>
    <contour>
      <point x="224" y="269" type="line"/>
      <point x="357" y="269" type="line"/>
      <point x="550" y="491" type="line"/>
      <point x="550" y="492" type="line"/>
      <point x="416" y="492" type="line"/>
      <point x="224" y="270" type="line"/>
    </contour>
  </outline>
</glyph>
<glyph name="guillemetleft.color3" format="2">
  <advance width="600"/>
  <unicode hex="00AB"/>
  <outline>
    <contour>
      <point x="416" y="50" type="line"/>
      <point x="550" y="50" type="line"/>
      <point x="550" y="53" type="line"/>
      <point x="357" y="269" type="line"/>
      <point x="224" y="269" type="line"/>
      <point x="224" y="268" type="line"/>
    </contour>
  </outline>
</glyph>
<glyph name="guillemetleft" format="2">
  <advance width="583"/>
  <unicode hex="00AB"/>
  <outline>
    <contour>
      <point x="224" y="269" type="line"/>
      <point x="357" y="269" type="line"/>
      <point x="550" y="491" type="line"/>
      <point x="550" y="492" type="line"/>
      <point x="416" y="492" type="line"/>
      <point x="224" y="270" type="line"/>
    </contour>
    <contour>
      <point x="231" y="50" type="line"/>
      <point x="365" y="50" type="line"/>
      <point x="365" y="53" type="line"/>
      <point x="173" y="269" type="line"/>
      <point x="40" y="269" type="line"/>
      <point x="40" y="268" type="line"/>
    </contour>
    <contour>
      <point x="40" y="269" type="line"/>
      <point x="173" y="269" type="line"/>
      <point x="365" y="491" type="line"/>
      <point x="365" y="492" type="line"/>
      <point x="231" y="492" type="line"/>
      <point x="40" y="270" type="line"/>
    </contour>
    <contour>
      <point x="416" y="50" type="line"/>
      <point x="550" y="50" type="line"/>
      <point x="550" y="53" type="line"/>
      <point x="357" y="269" type="line"/>
      <point x="224" y="269" type="line"/>
      <point x="224" y="268" type="line"/>
    </contour>
  </outline>
</glyph>
<glyph name="logicalnot.color0" format="2">
  <advance width="600"/>
  <unicode hex="00AC"/>
  <outline>
    <contour>
      <point x="39" y="328" type="line"/>
      <point x="385" y="328" type="line"/>
      <point x="320" y="422" type="line"/>
      <point x="39" y="422" type="line"/>
    </contour>
  </outline>
</glyph>
<glyph name="logicalnot.color1" format="2">
  <advance width="600"/>
  <unicode hex="00AC"/>
  <outline>
    <contour>
      <point x="286" y="182" type="line"/>
      <point x="287" y="182" type="line"/>
      <point x="385" y="247" type="line"/>
      <point x="385" y="328" type="line"/>
      <point x="286" y="328" type="line"/>
    </contour>
  </outline>
</glyph>
<glyph name="logicalnot" format="2">
  <advance width="423.5"/>
  <unicode hex="00AC"/>
  <outline>
    <contour>
      <point x="39" y="328" type="line"/>
      <point x="385" y="328" type="line"/>
      <point x="320" y="422" type="line"/>
      <point x="39" y="422" type="line"/>
    </contour>
    <contour>
      <point x="286" y="182" type="line"/>
      <point x="287" y="182" type="line"/>
      <point x="385" y="247" type="line"/>
      <point x="385" y="328" type="line"/>
      <point x="286" y="328" type="line"/>
    </contour>
  </outline>
</glyph>
<glyph name="softhyphen" format="2">
  <advance width="295.5"/>
  <unicode hex="00AD"/>
  <outline>
    <contour>
      <point x="44" y="293" type="line"/>
      <point x="262" y="293" type="line"/>
      <point x="262" y="412" type="line"/>
      <point x="44" y="412" type="line"/>
    </contour>
  </outline>
</glyph>
<glyph name="registered.color0" format="2">
  <advance width="600"/>
  <unicode hex="00AE"/>
  <outline>
    <contour>
      <point x="97" y="468" type="line"/>
      <point x="185" y="468" type="line"/>
      <point x="185" y="703" type="line"/>
      <point x="184" y="703" type="line"/>
      <point x="97" y="691" type="line"/>
    </contour>
  </outline>
</glyph>
<glyph name="registered.color1" format="2">
  <advance width="600"/>
  <unicode hex="00AE"/>
  <outline>
    <contour>
      <point x="57" y="421" type="line"/>
      <point x="58" y="421" type="line"/>
      <point x="58" y="727" type="line"/>
      <point x="34" y="727" type="line"/>
      <point x="34" y="444" type="line"/>
    </contour>
  </outline>
</glyph>
<glyph name="registered.color3" format="2">
  <advance width="600"/>
  <unicode hex="00AE"/>
  <outline>
    <contour>
      <point x="259" y="468" type="line"/>
      <point x="382" y="468" type="line"/>
      <point x="382" y="469" type="line"/>
      <point x="314" y="582" type="line"/>
      <point x="196" y="576" type="line"/>
    </contour>
  </outline>
</glyph>
<glyph name="registered.color5" format="2">
  <advance width="600"/>
  <unicode hex="00AE"/>
  <outline>
    <contour>
      <point x="277" y="533" type="line"/>
      <point x="278" y="533" type="line"/>
      <point x="365" y="568" type="line"/>
      <point x="365" y="645" type="line"/>
      <point x="277" y="645" type="line"/>
    </contour>
  </outline>
</glyph>
<glyph name="registered.color6" format="2">
  <advance width="600"/>
  <unicode hex="00AE"/>
  <outline>
    <contour>
      <point x="185" y="645" type="line"/>
      <point x="365" y="645" type="line"/>
      <point x="365" y="646" type="line"/>
      <point x="303" y="703" type="line"/>
      <point x="185" y="703" type="line"/>
    </contour>
  </outline>
</glyph>
<glyph name="registered.color7" format="2">
  <advance width="600"/>
  <unicode hex="00AE"/>
  <outline>
    <contour>
      <point x="34" y="727" type="line"/>
      <point x="414" y="727" type="line"/>
      <point x="414" y="751" type="line"/>
      <point x="57" y="751" type="line"/>
      <point x="34" y="728" type="line"/>
    </contour>
  </outline>
</glyph>
<glyph name="registered.color8" format="2">
  <advance width="600"/>
  <unicode hex="00AE"/>
  <outline>
    <contour>
      <point x="414" y="445" type="line"/>
      <point x="437" y="445" type="line"/>
      <point x="437" y="728" type="line"/>
      <point x="415" y="751" type="line"/>
      <point x="414" y="751" type="line"/>
    </contour>
  </outline>
</glyph>
<glyph name="registered" format="2">
  <advance width="470.5"/>
  <unicode hex="00AE"/>
  <outline>
    <contour>
      <point x="97" y="468" type="line"/>
      <point x="185" y="468" type="line"/>
      <point x="185" y="703" type="line"/>
      <point x="184" y="703" type="line"/>
      <point x="97" y="691" type="line"/>
    </contour>
    <contour>
      <point x="57" y="421" type="line"/>
      <point x="58" y="421" type="line"/>
      <point x="58" y="727" type="line"/>
      <point x="34" y="727" type="line"/>
      <point x="34" y="444" type="line"/>
    </contour>
    <contour>
      <point x="58" y="421" type="line"/>
      <point x="415" y="421" type="line"/>
      <point x="437" y="444" type="line"/>
      <point x="437" y="445" type="line"/>
      <point x="58" y="445" type="line"/>
    </contour>
    <contour>
      <point x="259" y="468" type="line"/>
      <point x="382" y="468" type="line"/>
      <point x="382" y="469" type="line"/>
      <point x="314" y="582" type="line"/>
      <point x="196" y="576" type="line"/>
    </contour>
    <contour>
      <point x="185" y="533" type="line"/>
      <point x="277" y="533" type="line"/>
      <point x="277" y="592" type="line"/>
      <point x="185" y="592" type="line"/>
    </contour>
    <contour>
      <point x="277" y="533" type="line"/>
      <point x="278" y="533" type="line"/>
      <point x="365" y="568" type="line"/>
      <point x="365" y="645" type="line"/>
      <point x="277" y="645" type="line"/>
    </contour>
    <contour>
      <point x="185" y="645" type="line"/>
      <point x="365" y="645" type="line"/>
      <point x="365" y="646" type="line"/>
      <point x="303" y="703" type="line"/>
      <point x="185" y="703" type="line"/>
    </contour>
    <contour>
      <point x="34" y="727" type="line"/>
      <point x="414" y="727" type="line"/>
      <point x="414" y="751" type="line"/>
      <point x="57" y="751" type="line"/>
      <point x="34" y="728" type="line"/>
    </contour>
    <contour>
      <point x="414" y="445" type="line"/>
      <point x="437" y="445" type="line"/>
      <point x="437" y="728" type="line"/>
      <point x="415" y="751" type="line"/>
      <point x="414" y="751" type="line"/>
    </contour>
  </outline>
</glyph>
<glyph name="macron" format="2">
  <advance width="600"/>
  <unicode hex="00AF"/>
  <anchor x="308" y="515" name="_top"/>
  <outline>
    <contour>
      <point x="167" y="620" type="line"/>
      <point x="434" y="620" type="line"/>
      <point x="434" y="688" type="line"/>
      <point x="167" y="688" type="line"/>
    </contour>
  </outline>
</glyph>
<glyph name="degree.color0" format="2">
  <advance width="600"/>
  <unicode hex="00B0"/>
  <outline>
    <contour>
      <point x="69" y="689" type="line"/>
      <point x="242" y="689" type="line"/>
      <point x="242" y="690" type="line"/>
      <point x="195" y="751" type="line"/>
      <point x="69" y="751" type="line"/>
    </contour>
  </outline>
</glyph>
<glyph name="degree.color1" format="2">
  <advance width="600"/>
  <unicode hex="00B0"/>
  <outline>
    <contour>
      <point x="47" y="557" type="line"/>
      <point x="173" y="557" type="line"/>
      <point x="173" y="618" type="line"/>
      <point x="0" y="618" type="line"/>
      <point x="0" y="617" type="line"/>
    </contour>
  </outline>
</glyph>
<glyph name="degree.color2" format="2">
  <advance width="600"/>
  <unicode hex="00B0"/>
  <outline>
    <contour>
      <point x="0" y="618" type="line"/>
      <point x="69" y="618" type="line"/>
      <point x="69" y="751" type="line"/>
      <point x="67" y="751" type="line"/>
      <point x="0" y="702" type="line"/>
    </contour>
  </outline>
</glyph>
<glyph name="degree.color3" format="2">
  <advance width="600"/>
  <unicode hex="00B0"/>
  <outline>
    <contour>
      <point x="173" y="557" type="line"/>
      <point x="174" y="557" type="line"/>
      <point x="242" y="602" type="line"/>
      <point x="242" y="689" type="line"/>
      <point x="173" y="689" type="line"/>
    </contour>
  </outline>
</glyph>
<glyph name="degree" format="2">
  <advance width="280.5"/>
  <unicode hex="00B0"/>
  <outline>
    <contour>
      <point x="69" y="689" type="line"/>
      <point x="242" y="689" type="line"/>
      <point x="242" y="690" type="line"/>
      <point x="195" y="751" type="line"/>
      <point x="69" y="751" type="line"/>
    </contour>
    <contour>
      <point x="47" y="557" type="line"/>
      <point x="173" y="557" type="line"/>
      <point x="173" y="618" type="line"/>
      <point x="0" y="618" type="line"/>
      <point x="0" y="617" type="line"/>
    </contour>
    <contour>
      <point x="0" y="618" type="line"/>
      <point x="69" y="618" type="line"/>
      <point x="69" y="751" type="line"/>
      <point x="67" y="751" type="line"/>
      <point x="0" y="702" type="line"/>
    </contour>
    <contour>
      <point x="173" y="557" type="line"/>
      <point x="174" y="557" type="line"/>
      <point x="242" y="602" type="line"/>
      <point x="242" y="689" type="line"/>
      <point x="173" y="689" type="line"/>
    </contour>
  </outline>
</glyph>
<glyph name="plusminus.color0" format="2">
  <advance width="600"/>
  <unicode hex="00B1"/>
  <outline>
    <contour>
      <point x="39" y="124" type="line"/>
      <point x="457" y="124" type="line"/>
      <point x="457" y="238" type="line"/>
      <point x="39" y="238" type="line"/>
    </contour>
  </outline>
</glyph>
<glyph name="plusminus.color2" format="2">
  <advance width="600"/>
  <unicode hex="00B1"/>
  <outline>
    <contour>
      <point x="200" y="273" type="line"/>
      <point x="295" y="273" type="line"/>
      <point x="295" y="394" type="line"/>
      <point x="200" y="394" type="line"/>
    </contour>
  </outline>
</glyph>
<glyph name="plusminus.color4" format="2">
  <advance width="600"/>
  <unicode hex="00B1"/>
  <outline>
    <contour>
      <point x="201" y="394" type="line"/>
      <point x="457" y="394" type="line"/>
      <point x="457" y="487" type="line"/>
      <point x="295" y="487" type="line"/>
    </contour>
  </outline>
</glyph>
<glyph name="plusminus" format="2">
  <advance width="515"/>
  <unicode hex="00B1"/>
  <outline>
    <contour>
      <point x="39" y="124" type="line"/>
      <point x="457" y="124" type="line"/>
      <point x="457" y="238" type="line"/>
      <point x="39" y="238" type="line"/>
    </contour>
    <contour>
      <point x="39" y="394" type="line"/>
      <point x="200" y="394" type="line"/>
      <point x="200" y="487" type="line"/>
      <point x="39" y="487" type="line"/>
    </contour>
    <contour>
      <point x="200" y="273" type="line"/>
      <point x="295" y="273" type="line"/>
      <point x="295" y="394" type="line"/>
      <point x="200" y="394" type="line"/>
    </contour>
    <contour>
      <point x="200" y="394" type="line"/>
      <point x="201" y="394" type="line"/>
      <point x="295" y="487" type="line"/>
      <point x="295" y="608" type="line"/>
      <point x="200" y="608" type="line"/>
    </contour>
    <contour>
      <point x="201" y="394" type="line"/>
      <point x="457" y="394" type="line"/>
      <point x="457" y="487" type="line"/>
      <point x="295" y="487" type="line"/>
    </contour>
  </outline>
</glyph>
<glyph name="twosuperior.color0" format="2">
  <advance width="600"/>
  <unicode hex="00B2"/>
  <outline>
    <contour>
      <point x="39" y="668" type="line"/>
      <point x="238" y="668" type="line"/>
      <point x="237" y="748" type="line"/>
      <point x="91" y="748" type="line"/>
      <point x="39" y="669" type="line"/>
    </contour>
  </outline>
</glyph>
<glyph name="twosuperior.color1" format="2">
  <advance width="600"/>
  <unicode hex="00B2"/>
  <outline>
    <contour>
      <point x="95" y="478" type="line"/>
      <point x="286" y="682" type="line"/>
      <point x="237" y="748" type="line"/>
      <point x="42" y="533" type="line"/>
      <point x="42" y="532" type="line"/>
    </contour>
  </outline>
</glyph>
<glyph name="twosuperior.color2" format="2">
  <advance width="600"/>
  <unicode hex="00B2"/>
  <outline>
    <contour>
      <point x="42" y="452" type="line"/>
      <point x="297" y="452" type="line"/>
      <point x="297" y="532" type="line"/>
      <point x="42" y="532" type="line"/>
    </contour>
  </outline>
</glyph>
<glyph name="twosuperior" format="2">
  <advance width="336"/>
  <unicode hex="00B2"/>
  <outline>
    <contour>
      <point x="39" y="668" type="line"/>
      <point x="238" y="668" type="line"/>
      <point x="237" y="748" type="line"/>
      <point x="91" y="748" type="line"/>
      <point x="39" y="669" type="line"/>
    </contour>
    <contour>
      <point x="95" y="478" type="line"/>
      <point x="286" y="682" type="line"/>
      <point x="237" y="748" type="line"/>
      <point x="42" y="533" type="line"/>
      <point x="42" y="532" type="line"/>
    </contour>
    <contour>
      <point x="42" y="452" type="line"/>
      <point x="297" y="452" type="line"/>
      <point x="297" y="532" type="line"/>
      <point x="42" y="532" type="line"/>
    </contour>
  </outline>
</glyph>
<glyph name="threesuperior.color0" format="2">
  <advance width="600"/>
  <unicode hex="00B3"/>
  <outline>
    <contour>
      <point x="97" y="452" type="line"/>
      <point x="208" y="452" type="line"/>
      <point x="208" y="517" type="line"/>
      <point x="24" y="517" type="line"/>
      <point x="24" y="516" type="line"/>
    </contour>
  </outline>
</glyph>
<glyph name="threesuperior.color1" format="2">
  <advance width="600"/>
  <unicode hex="00B3"/>
  <outline>
    <contour>
      <point x="65" y="581" type="line"/>
      <point x="208" y="581" type="line"/>
      <point x="208" y="632" type="line"/>
      <point x="65" y="632" type="line"/>
    </contour>
  </outline>
</glyph>
<glyph name="threesuperior.color3" format="2">
  <advance width="600"/>
  <unicode hex="00B3"/>
  <outline>
    <contour>
      <point x="208" y="613" type="line"/>
      <point x="297" y="613" type="line"/>
      <point x="297" y="685" type="line"/>
      <point x="209" y="748" type="line"/>
      <point x="208" y="748" type="line"/>
    </contour>
  </outline>
</glyph>
<glyph name="threesuperior.color4" format="2">
  <advance width="600"/>
  <unicode hex="00B3"/>
  <outline>
    <contour>
      <point x="208" y="452" type="line"/>
      <point x="209" y="452" type="line"/>
      <point x="298" y="496" type="line"/>
      <point x="298" y="578" type="line"/>
      <point x="209" y="632" type="line"/>
      <point x="208" y="632" type="line"/>
    </contour>
  </outline>
</glyph>
<glyph name="threesuperior" format="2">
  <advance width="343.5"/>
  <unicode hex="00B3"/>
  <outline>
    <contour>
      <point x="97" y="452" type="line"/>
      <point x="208" y="452" type="line"/>
      <point x="208" y="517" type="line"/>
      <point x="24" y="517" type="line"/>
      <point x="24" y="516" type="line"/>
    </contour>
    <contour>
      <point x="65" y="581" type="line"/>
      <point x="208" y="581" type="line"/>
      <point x="208" y="632" type="line"/>
      <point x="65" y="632" type="line"/>
    </contour>
    <contour>
      <point x="30" y="688" type="line"/>
      <point x="208" y="688" type="line"/>
      <point x="208" y="748" type="line"/>
      <point x="101" y="748" type="line"/>
      <point x="30" y="689" type="line"/>
    </contour>
    <contour>
      <point x="208" y="613" type="line"/>
      <point x="297" y="613" type="line"/>
      <point x="297" y="685" type="line"/>
      <point x="209" y="748" type="line"/>
      <point x="208" y="748" type="line"/>
    </contour>
    <contour>
      <point x="208" y="452" type="line"/>
      <point x="209" y="452" type="line"/>
      <point x="298" y="496" type="line"/>
      <point x="298" y="578" type="line"/>
      <point x="209" y="632" type="line"/>
      <point x="208" y="632" type="line"/>
    </contour>
  </outline>
</glyph>
<glyph name="acute" format="2">
  <advance width="600"/>
  <unicode hex="00B4"/>
  <anchor x="285" y="515" name="_top"/>
  <outline>
    <contour>
      <point x="239" y="580" type="line"/>
      <point x="305" y="580" type="line"/>
      <point x="373" y="759" type="line"/>
      <point x="373" y="760" type="line"/>
      <point x="270" y="760" type="line"/>
    </contour>
  </outline>
</glyph>
<glyph name="micro.color0" format="2">
  <advance width="600"/>
  <unicode hex="00B5"/>
  <outline>
    <contour>
      <point x="44" y="-200" type="line"/>
      <point x="164" y="-200" type="line"/>
      <point x="164" y="515" type="line"/>
      <point x="163" y="515" type="line"/>
      <point x="44" y="450" type="line"/>
    </contour>
  </outline>
</glyph>
<glyph name="micro.color1" format="2">
  <advance width="600"/>
  <unicode hex="00B5"/>
  <outline>
    <contour>
      <point x="164" y="-1" type="line"/>
      <point x="303" y="-1" type="line"/>
      <point x="303" y="112" type="line"/>
      <point x="164" y="113" type="line"/>
    </contour>
  </outline>
</glyph>
<glyph name="micro.color3" format="2">
  <advance width="600"/>
  <unicode hex="00B5"/>
  <outline>
    <contour>
      <point x="303" y="-1" type="line"/>
      <point x="304" y="-1" type="line"/>
      <point x="421" y="113" type="line"/>
      <point x="421" y="515" type="line"/>
      <point x="303" y="515" type="line"/>
    </contour>
  </outline>
</glyph>
<glyph name="micro" format="2">
  <advance width="544.5"/>
  <unicode hex="00B5"/>
  <outline>
    <contour>
      <point x="44" y="-200" type="line"/>
      <point x="164" y="-200" type="line"/>
      <point x="164" y="515" type="line"/>
      <point x="163" y="515" type="line"/>
      <point x="44" y="450" type="line"/>
    </contour>
    <contour>
      <point x="164" y="-1" type="line"/>
      <point x="303" y="-1" type="line"/>
      <point x="303" y="112" type="line"/>
      <point x="164" y="113" type="line"/>
    </contour>
    <contour>
      <point x="377" y="-1" type="line"/>
      <point x="501" y="-1" type="line"/>
      <point x="501" y="113" type="line"/>
      <point x="303" y="112" type="line"/>
    </contour>
    <contour>
      <point x="303" y="-1" type="line"/>
      <point x="304" y="-1" type="line"/>
      <point x="421" y="113" type="line"/>
      <point x="421" y="515" type="line"/>
      <point x="303" y="515" type="line"/>
    </contour>
  </outline>
</glyph>
<glyph name="paragraph.color1" format="2">
  <advance width="600"/>
  <unicode hex="00B6"/>
  <outline>
    <contour>
      <point x="157" y="263" type="line"/>
      <point x="320" y="263" type="line"/>
      <point x="320" y="377" type="line"/>
      <point x="44" y="377" type="line"/>
      <point x="44" y="376" type="line"/>
    </contour>
  </outline>
</glyph>
<glyph name="paragraph.color2" format="2">
  <advance width="600"/>
  <unicode hex="00B6"/>
  <outline>
    <contour>
      <point x="44" y="377" type="line"/>
      <point x="164" y="377" type="line"/>
      <point x="164" y="715" type="line"/>
      <point x="163" y="715" type="line"/>
      <point x="44" y="605" type="line"/>
    </contour>
  </outline>
</glyph>
<glyph name="paragraph.color4" format="2">
  <advance width="600"/>
  <unicode hex="00B6"/>
  <outline>
    <contour>
      <point x="478" y="0" type="line"/>
      <point x="598" y="0" type="line"/>
      <point x="598" y="601" type="line"/>
      <point x="478" y="601" type="line"/>
    </contour>
  </outline>
</glyph>
<glyph name="paragraph" format="2">
  <advance width="671.5"/>
  <unicode hex="00B6"/>
  <outline>
    <contour>
      <point x="164" y="601" type="line"/>
      <point x="598" y="601" type="line"/>
      <point x="598" y="715" type="line"/>
      <point x="164" y="715" type="line"/>
    </contour>
    <contour>
      <point x="157" y="263" type="line"/>
      <point x="320" y="263" type="line"/>
      <point x="320" y="377" type="line"/>
      <point x="44" y="377" type="line"/>
      <point x="44" y="376" type="line"/>
    </contour>
    <contour>
      <point x="44" y="377" type="line"/>
      <point x="164" y="377" type="line"/>
      <point x="164" y="715" type="line"/>
      <point x="163" y="715" type="line"/>
      <point x="44" y="605" type="line"/>
    </contour>
    <contour>
      <point x="320" y="0" type="line"/>
      <point x="440" y="0" type="line"/>
      <point x="440" y="601" type="line"/>
      <point x="320" y="601" type="line"/>
    </contour>
    <contour>
      <point x="478" y="0" type="line"/>
      <point x="598" y="0" type="line"/>
      <point x="598" y="601" type="line"/>
      <point x="478" y="601" type="line"/>
    </contour>
  </outline>
</glyph>
<glyph name="cedilla.color0" format="2">
  <advance width="600"/>
  <unicode hex="00B8"/>
  <outline>
    <contour>
      <point x="305" y="-85" type="line"/>
      <point x="408" y="-85" type="line"/>
      <point x="408" y="-84" type="line"/>
      <point x="363" y="-28" type="line"/>
      <point x="334" y="-28" type="line"/>
    </contour>
  </outline>
</glyph>
<glyph name="cedilla.color1" format="2">
  <advance width="600"/>
  <unicode hex="00B8"/>
  <outline>
    <contour>
      <point x="241" y="-85" type="line"/>
      <point x="305" y="-85" type="line"/>
      <point x="355" y="-1" type="line"/>
      <point x="355" y="0" type="line"/>
      <point x="292" y="0" type="line"/>
      <point x="241" y="-84" type="line"/>
    </contour>
  </outline>
</glyph>
<glyph name="cedilla.color2" format="2">
  <advance width="600"/>
  <unicode hex="00B8"/>
  <outline>
    <contour>
      <point x="248" y="-184" type="line"/>
      <point x="343" y="-184" type="line"/>
      <point x="343" y="-129" type="line"/>
      <point x="209" y="-129" type="line"/>
      <point x="209" y="-130" type="line"/>
    </contour>
  </outline>
</glyph>
<glyph name="cedilla.color3" format="2">
  <advance width="600"/>
  <unicode hex="00B8"/>
  <outline>
    <contour>
      <point x="343" y="-184" type="line"/>
      <point x="344" y="-184" type="line"/>
      <point x="408" y="-148" type="line"/>
      <point x="408" y="-85" type="line"/>
      <point x="343" y="-85" type="line"/>
    </contour>
  </outline>
</glyph>
<glyph name="cedilla" format="2">
  <advance width="600"/>
  <unicode hex="00B8"/>
  <anchor x="328" y="0" name="_bottom"/>
  <outline>
    <contour>
      <point x="305" y="-85" type="line"/>
      <point x="408" y="-85" type="line"/>
      <point x="408" y="-84" type="line"/>
      <point x="363" y="-28" type="line"/>
      <point x="334" y="-28" type="line"/>
    </contour>
    <contour>
      <point x="241" y="-85" type="line"/>
      <point x="305" y="-85" type="line"/>
      <point x="355" y="-1" type="line"/>
      <point x="355" y="0" type="line"/>
      <point x="292" y="0" type="line"/>
      <point x="241" y="-84" type="line"/>
    </contour>
    <contour>
      <point x="248" y="-184" type="line"/>
      <point x="343" y="-184" type="line"/>
      <point x="343" y="-129" type="line"/>
      <point x="209" y="-129" type="line"/>
      <point x="209" y="-130" type="line"/>
    </contour>
    <contour>
      <point x="343" y="-184" type="line"/>
      <point x="344" y="-184" type="line"/>
      <point x="408" y="-148" type="line"/>
      <point x="408" y="-85" type="line"/>
      <point x="343" y="-85" type="line"/>
    </contour>
  </outline>
</glyph>
<glyph name="onesuperior.color0" format="2">
  <advance width="600"/>
  <unicode hex="00B9"/>
  <outline>
    <contour>
      <point x="142" y="451" type="line"/>
      <point x="167" y="451" type="line"/>
      <point x="230" y="529" type="line"/>
      <point x="230" y="748" type="line"/>
      <point x="204" y="748" type="line"/>
      <point x="142" y="668" type="line"/>
    </contour>
  </outline>
</glyph>
